/* XPM */
static char *_32f0b771d244073c682ec2c5b2c6282NY5qU3WoAlvs75tL[] = {
/* columns rows colors chars-per-pixel */
"65 65 224 2 ",
"   c #000000",
".  c #1A1A1A",
"X  c #282828",
"o  c #373736",
"O  c #740300",
"+  c #7B0600",
"@  c #671A01",
"#  c #731702",
"$  c #6A2B00",
"%  c #772700",
"&  c #6E3900",
"*  c #7D3600",
"=  c #364D30",
"-  c #3A4F37",
";  c #3A5438",
":  c #585B08",
">  c #4B541F",
",  c #575D18",
"<  c #6B4800",
"1  c #794900",
"2  c #6D5902",
"3  c #745500",
"4  c #775A1D",
"5  c #59661B",
"6  c #5D7A1B",
"7  c #696301",
"8  c #6C6D00",
"9  c #727302",
"0  c #767805",
"q  c #7B7C00",
"w  c #76770D",
"e  c #646915",
"r  c #504E2E",
"t  c #4A5527",
"y  c #47543C",
"u  c #585739",
"i  c #665628",
"p  c #735D29",
"a  c #536B28",
"s  c #57742A",
"d  c #486536",
"f  c #527033",
"g  c #7A632A",
"h  c #17484B",
"j  c #094957",
"k  c #054C5D",
"l  c #134B53",
"z  c #0C535B",
"x  c #195758",
"c  c #284B44",
"v  c #2C5244",
"b  c #23524C",
"n  c #2B534A",
"m  c #385548",
"M  c #285752",
"N  c #3A5C51",
"B  c #3A675E",
"V  c #035264",
"C  c #0B5D65",
"Z  c #00818A",
"A  c #075968",
"S  c #00818A",
"D  c #00818A",
"F  c #245C67",
"G  c #03626C",
"H  c #06676E",
"J  c #106469",
"K  c #00818A",
"L  c #046B74",
"P  c #086B70",
"I  c #00818A",
"U  c #00818A",
"Y  c #027077",
"T  c #00818A",
"R  c #376664",
"E  c #535A50",
"W  c #456352",
"Q  c #77776E",
"!  c #767676",
"~  c #8A0400",
"^  c #960200",
"/  c #990000",
"(  c #920A00",
")  c #822400",
"_  c #803C05",
"`  c #875C02",
"'  c #925600",
"]  c #875F13",
"[  c #8C6302",
"{  c #986300",
"}  c #9D6B00",
"|  c #966814",
" . c #98701F",
".. c #A66300",
"X. c #A46901",
"o. c #AD6C00",
"O. c #B66E00",
"+. c #A57301",
"@. c #B57200",
"#. c #B67603",
"$. c #BC7400",
"%. c #AC781B",
"&. c #B57B15",
"*. c #946D21",
"=. c #906E27",
"-. c #A17522",
";. c #C37500",
":. c #C87700",
">. c #C47A01",
",. c #CD7C00",
"<. c #D47F00",
"1. c #6E8A04",
"2. c #7A8702",
"3. c #769601",
"4. c #698519",
"5. c #7A8219",
"6. c #7B9B1C",
"7. c #7DA300",
"8. c #78942B",
"9. c #5A855D",
"0. c #7BA64B",
"q. c #848400",
"w. c #848B00",
"e. c #8B8B00",
"r. c #8A9600",
"t. c #949400",
"y. c #979803",
"u. c #999901",
"i. c #9C9C0B",
"p. c #87881A",
"a. c #8A9211",
"s. c #9E9E12",
"d. c #9A9A19",
"f. c #B98B00",
"g. c #B0820F",
"h. c #A29500",
"j. c #84A400",
"k. c #83AB01",
"l. c #89A802",
"z. c #99A300",
"x. c #95A803",
"c. c #99AC00",
"v. c #87B203",
"b. c #8BB400",
"n. c #8DBB00",
"m. c #99B401",
"M. c #93BC00",
"N. c #99BC00",
"B. c #91BA08",
"V. c #89AA18",
"C. c #8FB416",
"Z. c #92B618",
"A. c #95BC19",
"S. c #B7A800",
"D. c #A0A215",
"F. c #A2A21B",
"G. c #A0BA14",
"H. c #979821",
"J. c #929234",
"K. c #97BA2D",
"L. c #A6A624",
"P. c #A6A82A",
"I. c #00818A",
"U. c #00818A",
"Y. c #A6A638",
"T. c #00818A",
"R. c #C68501",
"E. c #D58000",
"W. c #DC8400",
"Q. c #DA8801",
"!. c #C88819",
"~. c #D58A13",
"^. c #D38915",
"/. c #DC9116",
"(. c #E58900",
"). c #EB8D00",
"_. c #E48F0F",
"`. c #F49300",
"'. c #FA9600",
"]. c #FF9900",
"[. c #FF9D0B",
"{. c #E69616",
"}. c #FE9F12",
"|. c #F69E18",
" X c #FFA216",
".X c #FEA219",
"XX c #94C400",
"oX c #99C300",
"OX c #97C900",
"+X c #99CC00",
"@X c #9CC10A",
"#X c #9DCD0B",
"$X c #9FCF11",
"%X c #9AC419",
"&X c #9DC919",
"*X c #A0CF13",
"=X c #A2CE19",
"-X c #A2D016",
";X c #A3D119",
":X c #99C627",
">X c #979751",
",X c #AFB652",
"<X c #A7A763",
"1X c #B7B864",
"2X c #00818A",
"3X c #00818A",
"4X c #00818A",
"5X c #00818A",
"6X c #818181",
"7X c #989898",
"8X c #BBBB9E",
"9X c gray68",
"0X c #B7B7B4",
"qX c #BFC097",
"wX c #CACA93",
"eX c #CFCFA8",
"rX c #D8D8C7",
"tX c #D6D6D3",
"yX c #E4E4C5",
"uX c #ECECDC",
"iX c #E9E9E9",
"pX c #F4F4EA",
"aX c #F6F6F3",
"sX c #FEFEFE",
/* pixels */
"Z Z Z Z Z Z Z Z Z Z Z Z Z Z Z Z Z Z Z Z Z Z Z Z Z Z Z Z Z Z Z Z Z Z Z Z Z Z Z Z Z Z Z Z Z Z Z Z Z Z Z Z Z Z Z Z Z Z Z Z Z Z Z Z Z ",
"Z Z Z Z Z Z Z Z Z Z Z Z Z Z Z Z Z Z Z Z Z Z Z Z Z Z Z Z Z Z Z Z Z Z Z Z Z Z Z Z Z Z Z Z Z Z Z Z Z Z Z Z Z Z Z Z Z Z Z Z Z Z Z Z Z ",
"Z Z Z Z Z Z Z Z Z Z Z Z Z Z Z Z Z Z Z Z Z Z S S Z Z S S S D S S S S S S S S S S D Z Z Z Z Z Z Z Z Z Z Z Z Z Z Z Z Z Z Z Z Z Z Z Z ",
"Z Z Z Z Z Z Z Z Z Z Z Z Z Z Z Z Z Z Z Z Z S S S S S S S S S S S S S S S S S S S D Z Z Z Z Z Z Z Z Z Z Z Z Z Z Z Z Z Z Z Z Z Z Z Z ",
"Z Z Z Z Z Z Z Z Z Z Z Z Z Z Z Z Z Z Z Z Z S S S S S S S S S S S S S S S S S S S Z Z Z Z Z Z Z Z Z Z Z Z Z Z Z Z Z Z Z Z Z Z Z Z Z ",
"S S S S S S S S S S S S S S S S S S S S S S S S S S S S S S S S S A F R B W W W y - b k Z S S S S S S S S S S S S S S S S S S S S ",
"S S S S S S S S S S S S S S S S S S S S S S S S S S S S S S A R 9.0.K.:X:XK.H.d.s.s.a.t Z S S S S S S S S S S S S S S S S S S S S ",
"D D D D D D D D D D D D D D D D D D D D D D D D D D S S V W 8.:X&X$X#X#X#X#Xx.i.i.i.y.t Z D D D D D S S S S S S S S S S S S S S S ",
"D D D D D D D D D D D D D D D D D D D D D D D D D D D k 5 n.OXOXOX+X+X+X+X+Xc.u.u.e.t k D D D D D D D D D D D D D D D D D D D D D ",
"D D D D D D D D D D D D D D D D D D D D Z V j l l h h = 3.7.7.k.v.b.n.OXOX+Xc.u.e.t V D D D D D D D D D D D D D D D D S S S S S S ",
"D D D D D D D D D D D D D D D D D S V v a 4.V.C.Z.Z.Z.C.v.k.3.3.1.1.3.k.v.b.y.u.9 j S S S S S S S S S S S S S S S S S S S S S S S ",
"D D D D D D D D D S S S S S S S k ; 4.Z.=X;X;X;X;X$X#X+X+X+X+X+XOXn.j.1.1.2.q.q.t V S S S S S Z Z S S S S S S S S S S S S S S S Z ",
"S S S S S S S S S S S S S S V c 4.A.=X;X;X;X-X$X#X+X+X+X+X+X+X+X+X+X+X+Xx.q 8 q > V Z Z Z Z h t t h Z Z Z Z Z Z Z Z Z Z Z Z Z Z Z ",
"S S S S S S S S S S S S Z l s Z.=X;X;X;X;X*X#X+X+X+X+X+X+X+X+XOXN.N.m.c.u.u.t.q : j Z Z Z c 9 t.t.e j Z Z Z Z Z Z Z Z Z Z Z Z Z Z ",
"S S S S S S S S S S S V v 6.&X;X;X;X;X-X#X+X+X+X+X+X+X+X+X+XN.z.u.u.u.i.L.L.F.y.e.t j Z h 9 t.t.u.t.e k Z Z Z Z Z Z Z Z Z Z Z Z S ",
"S S S S S S S S S S V d C.;X;X;X;X;X*X#X+X+X+X+X+X+X+X+X+X+Xz.u.u.u.u.F.U.U.U.I.s.e., h e t.e.t.u.u.t.- Z S S S S S S S S S S S S ",
"S S S S S S D D S V s %X;X;X;X;X;X#X+X+X+X+X+X+X+X+X+X+X+X+Xm.u.u.u.u.F.U.U.U.U.I.y.e.7 q e.e.e.t.u.u.w k D D D D D D D D D D D D ",
"D D D D D D D D V s &X;X;X;X;X-X#X+X+X+X+X+X+X+X+X+X+X+X+X+X+Xm.u.u.u.s.U.U.U.U.U.i.t.q.8 8 q.e.t.t.t.e.c D D D D D D D D D D D D ",
"D D D D D D D S d %X;X;X;X;X-X#X+X+X+X+X+X+X+XOXN.N.M.M.+X+X+X+XN.z.u.y.P.U.U.U.L.u.u.e.q.8 8 q.e.t.t.t.- D D D D D D D D K K D K ",
"D D D D D D D l V.;X;X;X;X$X+X+X+X+X+X+X+XoXc.z.u.u.t.e.w.b.+X+X+XoXz.u.i.F.F.s.u.y.i.u.e.q.8 q.t.u.u.q.b K K K K K K K K K K K K ",
"K K K K K K D f =X;X;X;X-X+X+X+X+X+X+X+XN.u.t.t.t.e.t.u.e.q j.OX+X+XN.u.u.u.u.u.y.P.U.L.t.e.q : , 5 a v S K K K K K K K K K K K K ",
"K K K I K K V 6.V.V.=X;X#X+X+X+X+X+X+XN.u.a.p.p.p.w p.p.s.t.q l.+X+X+Xm.u.u.u.u.L.U.U.U.F.e.e.8 h S S K K K K K K K K K I K K K I ",
"I I I I I I l C.5.e Z.$X+X+X+X+X+X+X+Xx.H.J.<XwXrXuXpXaXyXP.e.q M.+X+X+Xz.u.u.i.U.U.U.U.P.t.e.q.> S I I I I K K S z b v h K I I I ",
"I I I I I I b A.Z.a.V.#X+X+X+X+X+X+XN.d.>X8XtXaXsXsXsXsXsXeXy.q j.+X+X+Xm.u.u.i.U.U.U.U.P.u.e.e.q c I I I K z ; 4.k.n.k.= K I I I ",
"I I I I I I v %X;X;X;X#X+X+X+X+X+X+Xm.>Xy o X Q iXsXsXsXsXaXY.q.2.+X+X+XOXu.u.u.F.U.U.U.L.u.e.e.e., A I S - 0 x.+X+Xn.a V I I I I ",
"I I I I I I n %X;X;X-X#X+X+X+X+X+X+X,XQ 7XQ .   6XaXsXsXsXsX1Xe.q OX+X+X+Xz.u.u.u.D.L.L.s.u.t.e.e.q c S t e.u.N.+XM.a A I I I I I ",
"I I I I I I n %X;X;X-X#X+X+X+X+X+X+XT.0XsXaX!   o iXsXsXsXsX1Xe.q OX+X+X+Xc.u.u.u.u.u.u.u.u.t.e.e.e., t t.u.z.+XOX4.V I I I I I I ",
"I I I I I I x Z.;X;X;X#X+X+X+X+X+X+XT.tXsXsX!   E aXsXsXsXaXY.e.2.OX+X+X+Xz.u.u.u.i.L.P.P.F.u.e.e.e.9 q t.u.c.+Xb.v I I I I I I I ",
"I I I I I I z V.;X;X;X#X+X+X+X+X+X+X@XqX7X7X. X 0XsXsXsXsXyXs.q.r.+X+X+X+Xz.u.u.u.L.U.U.U.U.s.e.e.e.q 9 t.u.m.+X3.A I I I I I I I ",
"I I I I I I S 6.;X;X;X#X+X+X+X+X+X+X+X,XrX0X9XtXsXsXsXsXpX,Xt.2.M.+X+X+XoXu.u.u.y.I.U.U.U.U.L.e.e.e.q.9 e.u.N.+X6 G I I I I I I I ",
"I I I I I I I f =X;X;X$X+X+X+X+X+X+X+XN.1XuXsXsXsXsXsXpX1Xu.q.l.+X+X+X+Xm.u.u.u.u.F.U.U.U.U.L.e.e.e.q.8 e.u.oX+Xs K I I I I I I I ",
"I I U U U U I n A.;X;X-X+X+X+X+X+X+X+X+XN.P.wXyXyXyXwX,Xu.e.j.+X+X+X+XOXu.u.u.u.u.u.F.I.U.U.L.e.e.e.q.8 e.u.oX+X6 G U U U U U U I ",
"U I U I U U I C 6.;X;X-X+Xn.k.n.+X+X+X+X+XoXc.i.y.y.u.u.y.b.+X+X+X+X+Xc.u.u.u.u.u.u.u.y.s.s.y.e.e.e.q.9 e.u.N.+X1.A U U U I I U I ",
"U U U U U U U I d &X;X;XB.3 < 3.XX+X+X+X+XOXOXoXN.N.N.oXOX+X+X+X+XOXc.u.u.u.u.u.L.I.P.F.y.u.u.e.e.e.q.9 e.u.N.+Xk.l I U U U U U U ",
"U U U U U U U U x V.;X=X5.( ( 2 v.XX+X+Xb.q 9 k.OX+X+X+X+X+X+X+XOXz.u.u.u.u.u.i.U.U.U.U.L.y.t.e.e.e.9 : t.u.m.+XXX; I U U U U U U ",
"U U U U U U I U K f Z.V._ / / ) 3.n.XXb.3 ( ( 7 b.OX+X+X+X+X+XOXz.u.u.u.u.u.u.y.I.U.U.U.U.F.t.e.e.e.e h 5.i.z.+X+X4.G U U U U U U ",
"U U U U U K u y K G m r ( ^ ^ ^ 3 j.7.2 ( / / ) 3.n.OX+X+X+X+Xm.u.u.u.u.u.u.u.u.P.U.U.U.U.L.e.e.e.q.t I n p.D.OX+Xb.n U U U U U U ",
"T T T T U C g./.u I U x # # # ~ ( * * ( / ^ / ^ 3 k.n.n.k.l.S.S.u.u.u.u.u.u.u.u.s.I.U.U.P.y.e.e.e.q b U I n p.G.#XOX6 G T T T T U ",
"T T T T T C !. XR.m I x @ 1 $.1 O ~ ^ ~ + % % ~ ( 1 7 < ) ) @.).R.h.u.u.i.L.L.L.F.i.i.i.u.t.e.e.e.e G T T U M 5.%X#Xv.x U T T T T ",
"2X2X2X2XT G %..X].>.m - @ X.`.Q.& O ~ O $ @.$.$ + ^ ^ ^ ( ' W.`.E.R.u.y.P.U.U.U.I.i.u.u.t.e.e.e.q v U T T T U C d 6.V.x T 2X2X2XT ",
"2XT T T T U p |. X].Q.o.X.W.'.].@.$ O @ { ).'.X.@ O + % { E.`.].W.<.f.y.I.U.U.U.U.D.u.u.t.e.e.e.5 G T T T T T T U C z U T T T T T ",
"2X2X2X2X2X2XM /. X].].].'.'.].].'.$.` o.).'.].`.$.{ { >.).'.].].).<.E.h.F.U.U.U.U.F.u.u.e.e.e.q b T 2X2X2X2X2X2X2X2X2X2X2X2X2X2X2X",
"2X2X2X2X2X2XK *..X[.].].].].].].].].].].].].].].].].'.'.].].].].).<.<.f.i.P.U.U.U.s.u.t.e.e.+.r I 2X2X2X2X2X2X2X2X2X2X2X2X2X2X2X2X",
"2X2X2X2X2X2XT m {. X].].].].].].].].].].].].].].].].].].].].].].(.<.<.E.f.u.F.L.F.u.h.h.#.@.i G 2X2X2X2X2X2X2X2X2X2X2X2X2X2X2X2X2X",
"2X2X2X2X2X2X2XH *..X}.].].].].].].].].].].].].].].].].].].].].'.W.<.<.<.<.R.R.R.R.R.>.$.$.` h G G I 2X2X2X2X2X2X2X2X2X2X2X2X2X2X2X",
"2X2X2X2X2X2X2X2XM !..X[.].].].].].].].].].].].].].].].].].].].`.E.<.<.<.<.<.<.<.<.<.;.$.[ ` ] | | 4 C 2X2X2X2X2X2X2X2X2X2X2X2X2X2X",
"2X2X2X2X2X2X2X2XU u {. X].].].].].].].].].].].].].].].].].].`.E.<.<.<.<.<.<.<.<.<.:.O.` { ;.<.<.<.,.u T 2X2X2X2X2X2X2X2X2X2X2X2X2X",
"2X2X2X2X2X2X2X2X2XL g {. X[.].].].].].].].].].].].].].].].).E.<.<.<.<.<.<.<.<.<.,.o.` ` ..O.;.:.,.<.u T 2X2X2X2X2X2X2X2X2X2X2X2X2X",
"2X2X2X2X2X2X2X2X2X2XH g {..X[.].].].].].].].].].].].'.).W.<.<.<.<.<.<.<.<.<.<.<.X.2 o.o.O.:.<.<.<.$.n 2X2X2X2X2X2X2X2X2X2X2X2X2X2X",
"2X2X2X2X2X2X2X2X2X2X2XL u ^..X X X[.].].].].].].].).E.<.<.<.<.<.<.<.<.<.<.<.$.4 M b X.,.$.,.,.<.<.] H 2X2X2X2X2X2X2X2X2X2X2X2X2X2X",
"3X3X3X3X3X3X3X3X3X3X3X3XT M  .{..X.X X[.].].].].).E.<.<.<.<.<.<.<.<.<.,.$.[ m L 2XT y $.:.,.<.<.$.m 2X3X3X3X3X3X3X3X3X3X3X3X3X3X3X",
"3X3X3X3X3X3X3X3X3X3X3X3X3X2XL m *.^.|..X X}.].'.E.<.<.<.<.<.<.<.<.>.o.[ [ t Y 3X3X3XL i >.,.<.,.i U 3X3X3X3X3X3X3X3X3X3X3X3X3X3X3X",
"3X3X3X3X3X3X3X3X3X3X3X3X3X3X3X3XL x u *.g.~.{._.,.,.,.,.,.,.>.o.{ } X.o.o.n 3X3X3X3X3XL i @.$.p L 3X3X3X3X3X3X3X3X3X3X3X3X3X3X3X3X",
"3X3X3X3X3X3X3X3X3X3X3X3X3X3X3X3X3X3X2XY L x N y [ } } } } } X.$.E.W.<.:.;.m 3X3X3X3X3X3XY M m H 3X3X3X3X3X3X3X3X3X3X3X3X3X3X3X3X3X",
"3X3X3X3X3X3X3X3X3X3X3X3X3X3X3X3X3X3X3X3X3X3X3XL i E.W.W.W.(.).`.`.'.`.E.<.i T 3X3X3X3X3X3X3X3X3X3X3X3X3X3X3X3X3X3X3X3X3X3X3X3X3X3X",
"3X3X3X3X3X3X3X3X3X3X3X3X3X3X3X3X3X3X3X3X3X3X3X3XJ  .`.].].].].].].].`.E.<.$.N 2X3X3X3X3X3X3X3X3X3X3X3X3X3X3X3X3X3X3X3X3X3X3X3X3X3X",
"3X3X3X3X3X3X3X3X3X3X3X3X3X3X3X3X3X3X3X3X3X3X3X3X3XJ g _.}.}.[.[.].].).<.<.<.#.N 2X3X3X3X3X3X3X3X3X3X3X3X3X3X3X3X3X3X3X3X3X3X3X3X3X",
"3X3X3X3X3X3X3X3X3X3X3X3X3X3X3X3X3X3X3X3X3X3X3X3X4X3XY N -./.|..X X}./.~.~.~.~.| H 3X3X3X3X3X3X3X3X3X3X3X3X3X3X3X3X3X3X3X3X3X3X3X3X",
"3X3X3X3X3X3X3X3X3X3X3X3X3X3X3X3X3X3X3X3X3X3X3X3X3X4X4X3XY x u =.-.%.&.&.%.%.*.E T 3X3X3X3X3X3X3X3X3X3X3X3X3X3X3X3X3X3X3X3X3X3X3X3X",
"4X4X4X4X4X4X4X4X4X4X4X4X4X4X4X4X4X4X4X4X4X4X4X4X4X4X4X4X4X3X3XT L L P P L L Y 3X4X4X4X4X4X4X4X4X4X4X4X4X4X4X4X4X4X4X4X4X4X4X4X4X4X",
"4X4X4X4X4X4X4X4X4X4X4X4X4X4X4X4X4X4X4X4X4X4X4X4X4X4X4X4X4X4X4X4X4X4X4X4X4X4X4X3X4X4X4X4X4X4X4X4X4X4X4X4X4X4X4X4X4X4X4X4X4X4X4X4X4X",
"5X5X5X5X4X4X4X4X4X4X4X4X5X5X5X5X4X4X4X4X4X4X4X4X4X4X4X4X4X4X4X4X4X4X4X4X4X4X4X4X4X4X4X4X4X4X4X4X5X5X5X5X4X4X4X4X4X4X4X4X5X5X5X5X4X",
"5X5X5X5X5X5X5X5X5X5X5X5X5X5X5X5X5X5X5X5X5X5X5X5X5X5X5X5X5X5X5X5X5X5X5X5X5X5X5X5X5X5X5X5X5X5X5X5X5X5X5X5X5X5X5X5X5X5X5X5X5X5X5X5X5X",
"5X5X5X5X5X5X5X5X5X5X5X5X5X5X5X5X5X5X5X5X5X5X5X5X5X5X5X5X5X5X5X5X5X5X5X5X5X5X5X5X5X5X5X5X5X5X5X5X5X5X5X5X5X5X5X5X5X5X5X5X5X5X5X5X5X",
"5X5X5X5X5X5X5X5X5X5X5X5X5X5X5X5X5X5X5X5X5X5X5X5X5X5X5X5X5X5X5X5X5X5X5X5X5X5X5X5X5X5X5X5X5X5X5X5X5X5X5X5X5X5X5X5X5X5X5X5X5X5X5X5X5X"
};
