/* XPM */
static char *e08c077843144a21a63840ef6484075axg59AJHshmdxI2FN[] = {
/* columns rows colors chars-per-pixel */
"65 65 225 2 ",
"   c #020202",
".  c #0B0B0B",
"X  c #151515",
"o  c #292929",
"O  c #363A30",
"+  c #6F0500",
"@  c #740200",
"#  c #7C0200",
"$  c #691801",
"%  c #682500",
"&  c #7A2500",
"*  c #6D3700",
"=  c #7C3A02",
"-  c #1D4239",
";  c #3A492A",
":  c #364C36",
">  c #345332",
",  c #395439",
"<  c #565907",
"1  c #4D4D17",
"2  c #4C5418",
"3  c #575E1C",
"4  c #6C4B00",
"5  c #794800",
"6  c #6A5B00",
"7  c #7C5903",
"8  c #66561A",
"9  c #775A18",
"0  c #586616",
"q  c #577116",
"w  c #636300",
"e  c #6C6C01",
"r  c #66690B",
"t  c #696B08",
"y  c #747501",
"u  c #7C7C01",
"i  c #707508",
"p  c #777B09",
"a  c #676916",
"s  c #677817",
"d  c #454E24",
"f  c #45582A",
"g  c #57522C",
"h  c #445938",
"j  c #575534",
"k  c #66582A",
"l  c #6C5B2D",
"z  c #4C6325",
"x  c #597123",
"c  c #496537",
"v  c #7A6327",
"b  c #627C20",
"n  c #164F51",
"m  c #175353",
"M  c #1A5455",
"N  c #145559",
"B  c #145A5E",
"V  c #1B5B5B",
"C  c #254D47",
"Z  c #2A5448",
"A  c #365647",
"S  c #265652",
"D  c #235B5B",
"F  c #355B53",
"G  c #24605F",
"H  c #0D5B62",
"J  c #085F68",
"K  c #125D62",
"L  c #0E6167",
"P  c #06646D",
"I  c #0C656C",
"U  c #156267",
"Y  c #046771",
"T  c #046B75",
"R  c #0A6B74",
"E  c #026E79",
"W  c #01727D",
"Q  c #454544",
"!  c #475846",
"~  c #535B42",
"^  c gray34",
"/  c #69694C",
"(  c #7A7A6D",
")  c #820600",
"_  c #8B0200",
"`  c #940200",
"'  c #990000",
"]  c #910B00",
"[  c #881800",
"{  c #832500",
"}  c #885A01",
"|  c #925B00",
" . c #896202",
".. c #936302",
"X. c #9C6601",
"o. c #966800",
"O. c #9A6900",
"+. c #927013",
"@. c #A96500",
"#. c #A46A01",
"$. c #AC6D01",
"%. c #B56C00",
"&. c #AC7701",
"*. c #B57301",
"=. c #BC7300",
"-. c #B77904",
";. c #A87619",
":. c #B07A15",
">. c #856722",
",. c #967020",
"<. c #A27620",
"1. c #C27400",
"2. c #C87700",
"3. c #C47A01",
"4. c #CC7B00",
"5. c #D47F00",
"6. c #6C8503",
"7. c #718400",
"8. c #7C8300",
"9. c #728C01",
"0. c #749402",
"q. c #799D01",
"w. c #6A841F",
"e. c #79971B",
"r. c #7EA401",
"t. c #739020",
"y. c #838300",
"u. c #838F00",
"i. c #8B8B00",
"p. c #92890B",
"a. c #869600",
"s. c #949400",
"d. c #999901",
"f. c #989A00",
"g. c #9D9D0C",
"h. c #869819",
"j. c #9E9E13",
"k. c #999A19",
"l. c #B78C00",
"z. c #AC9100",
"x. c #A59809",
"c. c #BB8014",
"v. c #83AC00",
"b. c #88A801",
"n. c #99A301",
"m. c #98A405",
"M. c #99AC01",
"N. c #86B101",
"B. c #8AB500",
"V. c #8DBA00",
"C. c #8DB20B",
"Z. c #99B300",
"A. c #93BD00",
"S. c #99BB01",
"D. c #87A818",
"F. c #94B919",
"G. c #A0A015",
"H. c #A2A21C",
"J. c #A0AB19",
"K. c #A0B613",
"L. c #8F8F2B",
"P. c #A5A523",
"I. c #A8A827",
"U. c #AAAA2C",
"Y. c #A7A835",
"T. c #ADAD33",
"R. c #C78401",
"E. c #D48101",
"W. c #DC8400",
"Q. c #DA8B00",
"!. c #DC910D",
"~. c #C48514",
"^. c #D58B17",
"/. c #E28700",
"(. c #E58A00",
"). c #EB8D00",
"_. c #EC9000",
"`. c #F49300",
"'. c #FA9600",
"]. c #FF9900",
"[. c #FF9D0C",
"{. c #E89718",
"}. c #FB9E12",
"|. c #F49E19",
" X c #FFA115",
".X c #FDA218",
"XX c #94C400",
"oX c #99C400",
"OX c #97C800",
"+X c #99CC00",
"@X c #9BC10D",
"#X c #9DCE0C",
"$X c #9BC712",
"%X c #9FCE12",
"&X c #9AC318",
"*X c #9EC919",
"=X c #A9C100",
"-X c #A0CE15",
";X c #A1CE19",
":X c #A1D016",
">X c #A3D119",
",X c #959547",
"<X c #99995A",
"1X c #AEAF4B",
"2X c #AAB843",
"3X c #A8AE54",
"4X c #B4B55B",
"5X c #9E9E60",
"6X c #00818A",
"7X c #8E8E8E",
"8X c #91918C",
"9X c #B3B389",
"0X c #AAAAAA",
"qX c #B5B5B5",
"wX c #C8C892",
"eX c #D5D5A8",
"rX c #D9D9C5",
"tX c #D0D0CB",
"yX c #E6E6CA",
"uX c #EEEEDD",
"iX c #F0F0DE",
"pX c #E6E6E6",
"aX c #F6F6ED",
"sX c #F6F6F3",
"dX c #FEFEFE",
/* pixels */
"6X6X6X6X6X6X6X6X6X6X6X6X6X6X6X6X6X6X6X6X6X6X6X6X6X6X6X6X6X6X6X6X6X6X6X6X6X6X6X6X6X6X6X6X6X6X6X6X6X6X6X6X6X6X6X6X6X6X6X6X6X6X6X6X6X",
"6X6X6X6X6X6X6X6X6X6X6X6X6X6X6X6X6X6X6X6X6X6X6X6X6X6X6X6X6X6XY B S , c 0 0 a a 3 f f A N W 6X6X6X6X6X6X6X6X6X6X6X6X6X6X6X6X6X6X6X6X",
"6X6X6X6X6X6X6X6X6X6X6X6X6X6X6X6X6X6X6X6X6X6X6X6X6X6X6X6XT S s D.F.&X*X*X&XJ.G.G.k.k.k.a N 6X6X6X6X6X6X6X6X6X6X6X6X6X6X6X6X6X6X6X6X",
"6X6X6X6X6X6X6X6X6X6X6X6X6X6X6X6X6X6X6X6X6X6X6X6X6X6X6XB z C.*X-X:X-X%X%X%X@Xm.g.g.g.j.p M 6X6X6X6X6X6X6X6X6X6X6X6X6X6X6X6X6X6X6X6X",
"6X6X6X6X6X6X6X6X6X6X6X6X6X6X6X6X6X6X6X6X6X6X6X6X6X6Xn 6.XX+X+X+X+X+X+X+X+XOXn.f.f.f.u : W 6X6X6X6X6X6X6X6X6X6X6X6X6X6X6X6X6X6X6X6X",
"6X6X6X6X6X6X6X6X6X6X6X6X6X6X6X6X6X6X6X6X6X6X6X6X6XN q N.B.B.V.XXoXOX+X+X+X+Xn.f.f.u C E 6X6X6X6X6X6X6X6X6X6X6X6X6X6X6X6X6X6X6X6X6X",
"6X6X6X6X6X6X6X6X6X6X6X6X6X6X6X6X6XY H S A ! h f f 2 6.9.9.0.q.r.v.N.B.XXoXoXf.f.i.: W 6X6X6X6X6X6X6X6X6X6X6X6X6X6X6X6X6X6X6X6X6X6X",
"6X6X6X6X6X6X6X6X6X6X6X6X6X6XW H f s e.F.&X&X&X*X*X$X@XV.B.v.q.9.6.9.q.r.v.b.s.s.r J 6X6X6X6X6X6X6X6X6X6X6X6X6X6X6X6X6X6X6X6X6X6X6X",
"6X6X6X6X6X6X6X6X6X6X6X6XW H f e.&X>X>X>X>X>X:X#X+X+X+X+X+X+X+XOXXXB.0.6.6.8.y.y.2 E 6X6X6X6X6X6X6X6X6X6X6X6X6X6X6X6X6X6X6X6X6X6X6X",
"6X6X6X6X6X6X6X6X6X6X6XP , e.&X;X>X>X>X>X:X#X+X+X+X+X+X+X+X+X+X+X+X+X+XA.u.e e y 2 T 6X6X6X6X6XH : ; C 6X6X6X6X6X6X6X6X6X6X6X6X6X6X",
"6X6X6X6X6X6X6X6X6XW C w.F.;X>X>X>X>X>X%X+X+X+X+X+X+X+X+X+X+X+XOXOXoXZ.n.f.s.y.e < J 6X6X6X6XC r i.s.i M 6X6X6X6X6X6X6X6X6X6X6X6X6X",
"6X6X6X6X6X6X6X6XP h D.;X>X>X>X>X>X:X#X+X+X+X+X+X+X+X+X+X+XS.n.n.f.f.f.g.G.g.f.s.y : E 6X6Xm t s.s.f.s.a K 6X6X6X6X6X6X6X6X6X6X6X6X",
"6X6X6X6X6X6X6XK b &X>X>X>X>X>X>X%X+X+X+X+X+X+X+X+X+X+X+XoXf.f.f.f.f.f.U.T.T.U.G.f.u ; P J 0 s.s.s.f.f.s.3 T 6X6X6X6X6X6X6X6X6X6X6X",
"6X6X6X6X6X6XV e.*X>X>X>X>X>X:X#X+X+X+X+X+X+X+X+X+X+X+X+XS.f.f.f.f.f.g.T.T.T.T.T.P.f.8.2 d i.s.i.s.s.f.f.y.C 6X6X6X6X6X6X6X6X6X6X6X",
"6X6X6X6X6XV e.;X>X>X>X>X>X:X+X+X+X+X+X+X+X+X+X+X+X+X+X+XOXn.f.f.f.f.g.U.T.T.T.T.T.g.s.u w y.i.i.i.s.f.f.s.3 T 6X6X6X6X6X6X6X6X6X6X",
"6X6X6X6XV e.;X>X>X>X>X>X%X+X+X+X+X+X+X+X+X+X+X+X+X+X+X+X+XOXM.f.f.f.f.U.T.T.T.T.T.G.s.i.u w y y.i.s.s.s.f.u K 6X6X6X6X6X6X6X6X6X6X",
"6X6X6XI t.;X>X>X>X>X>X#X+X+X+X+X+X+X+X+X+X+XoXoXoXoX+X+X+X+X+XS.f.f.f.H.T.T.T.T.U.f.f.s.i.u w y y.i.i.s.f.i.M 6X6X6X6X6X6X6X6X6X6X",
"6X6XW c *X>X>X>X>X>X#X+X+X+X+X+X+X+X+XoXZ.n.f.f.s.a.a.B.+X+X+X+XS.f.f.f.H.P.P.H.f.f.f.f.i.i.y e i.s.f.f.f.u K 6X6X6X6X6X6X6X6X6X6X",
"6X6XK D.>X>X>X>X>X#X+X+X+X+X+X+X+X+XZ.f.f.f.f.f.f.f.i.u a.oX+X+X+XS.f.f.f.f.f.f.f.G.U.P.f.i.i.y e y y.y.y : W 6X6X6X6X6X6X6X6X6X6X",
"6X6Xc &X*X*X>X>X%X+X+X+X+X+X+X+X+XZ.f.s.i.y.y.y.i.s.f.i.y a.oX+X+X+XM.f.f.f.f.f.j.U.T.T.P.s.i.y.< - n M H W 6X6X6X6X6X6X6X6X6X6X6X",
"6XE w.D.s D.;X:X+X+X+X+X+X+X+X+XS.s.p.L.L.L.,X,X<X5X3Xg.i.y b.+X+X+XOXn.f.f.f.f.U.T.T.T.U.g.i.i.u : W 6X6X6X6X6X6X6X6X6X6X6X6X6X6X",
"6XP e.D.a s F.#X+X+X+X+X+X+X+XOXm.L.L.<XwXrXuXsXdXdXsXwXf.y.8.A.+X+X+XS.f.f.f.g.T.T.T.T.T.H.s.i.i.t B 6X6X6X6X6X6X6XP B : > ; C 6X",
"6XB D.*Xh.h.F.#X+X+X+X+X+X+X+XS.k.,X9XrXaXdXdXdXdXdXdXaX1Xi.y b.+X+X+XOXn.f.f.g.T.T.T.T.T.P.s.i.i.y.d E 6X6X6X6XP : s q.V.XXv.: 6X",
"6XV D.>X;X;X:X+X+X+X+X+X+X+X+XM.,X/ Q Q ^ qXdXdXdXdXdXdXeXs.u u.+X+X+X+XZ.f.f.f.P.T.T.T.T.G.f.i.i.i.e M 6X6XE : r a.oX+X+XB.z Y 6X",
"6XV D.>X>X>X:X+X+X+X+X+X+X+X+X2X( o o .   o tXdXdXdXdXdXyXj.u 8.OX+X+X+XS.f.f.f.f.H.U.T.U.g.f.s.i.i.y.d E T d y.s.Z.+X+XB.f Y 6X6X",
"6XB D.>X>X>X:X+X+X+X+X+X+X+X+X3X8XpXpX8X.   ( dXdXdXdXdXyXP.y.u oX+X+X+XoXf.f.f.f.f.f.g.f.f.f.s.i.i.i.t n f i.f.f.oX+XXX0 Y 6X6X6X",
"6XB D.>X>X>X:X+X+X+X+X+X+X+X+X3XtXdXdXtXo   ^ sXdXdXdXdXyXj.y.u oX+X+X+XoXf.f.f.f.f.f.g.g.g.f.s.i.i.i.y.< y.f.f.n.+X+X0.N 6X6X6X6X",
"6XP e.>X>X>X:X+X+X+X+X+X+X+X+X2XrXaXdXqXX   8XdXdXdXdXdXeXf.y.u.+X+X+X+XS.f.f.f.f.g.P.U.T.U.P.f.i.i.i.i.w y.f.f.M.+XoXf W 6X6X6X6X",
"6XT w.>X>X>X>X+X+X+X+X+X+X+X+XS.wX8X7XO . ^ pXdXdXdXdXaX4Xs.u b.+X+X+X+XS.f.f.f.f.P.T.T.T.T.T.j.i.i.i.i.e u s.f.Z.+XN.Z 6X6X6X6X6X",
"6X6Xx ;X>X>X>X#X+X+X+X+X+X+X+XOX2XrXqX0X0XpXdXdXdXdXdXeXg.i.8.oX+X+X+X+XM.f.f.f.f.I.T.T.T.T.T.P.i.i.i.i.e u s.f.S.+Xr.N 6X6X6X6X6X",
"6X6XA F.>X>X>X#X+X+X+X+X+X+X+X+XS.4XuXdXdXdXdXdXdXdXeXH.s.y.B.+X+X+X+XOXf.f.f.f.f.G.T.T.T.T.T.P.i.i.i.i.y y i.f.S.+Xr.P 6X6X6X6X6X",
"6X6XK D.>X>X>X%X+X+X+X+X+X+X+X+X+XZ.1XeXiXaXaXaXyXwXk.f.i.b.+X+X+X+X+XZ.f.f.f.f.f.f.H.U.T.T.T.P.s.i.i.i.y y i.f.S.+Xr.K 6X6X6X6X6X",
"6X6XT b ;X>X>X:X+X+XXXXX+X+X+X+X+X+XS.m.Y.4X4X1XH.f.s.s.b.+X+X+X+X+XoXn.f.f.f.f.f.f.f.g.P.P.P.g.i.i.i.i.y y i.f.S.+Xv.M 6X6X6X6X6X",
"6X6X6XA &X>X>X:X+Xv.y r.V.+X+X+X+X+X+XOXZ.n.f.f.f.m.M.A.+X+X+X+X+XOXM.f.f.f.f.f.g.G.j.f.f.f.f.f.i.i.i.i.y u s.f.S.+XV., 6X6X6X6X6X",
"6X6X6XL e.>X>X>XC.5 [ 6 N.XX+X+X+X+XOXXXoXoX+X+X+X+X+X+X+X+X+X+XoXn.f.f.f.f.f.f.U.T.T.U.H.f.f.f.i.i.i.i.e u s.f.Z.+X+Xq E 6X6X6X6X",
"6X6X6XW z &X>X;Xp ] ' & 9.B.oX+X+XV.y 6 7.B.OX+X+X+X+X+X+X+X+XS.n.f.f.f.f.f.f.g.T.T.T.T.T.P.f.s.i.i.i.y.2 r f.f.M.+X+X0.L 6X6X6X6X",
"6X6X6X6XV e.&XD.= ` ' ] 6 N.V.XXV.e [ ' & 9.V.OX+X+X+X+X+X+XoXn.f.f.f.f.f.f.f.g.U.T.T.T.T.T.j.s.i.i.i.y.Z A p.g.n.+X+XB.Z 6X6X6X6X",
"6XD F E 6XV z 1 ] ' ' ' { 9.B.v.e [ ' ' ` 4 v.XX+X+X+X+X+X+XM.f.f.f.f.f.f.f.f.f.U.T.T.T.T.T.G.i.i.i.i.y B W h k.G.S.+XOXs Y 6X6X6X",
"6X>.^.g W 6X6XC ) ) ) _ ` = e 6 [ ' ' ' ' [ 7.B.V.XXOXoXoX=Xn.f.f.f.f.f.f.f.f.f.G.T.T.T.T.U.g.i.i.i.i.0 T 6XE c k.K.+X+XN.Z 6X6X6X",
"6X:..XE.A 6X6XV $ % 5 * # _ ] ` ` ` _ _ ` ` = 9.q.0.e 6  .Q.Q.z.f.f.f.f.f.g.g.g.f.G.P.P.H.g.s.i.i.i.y., 6X6X6XE h h.-X#XoXq E 6X6X",
"6X<..X[.-.S 6XS $ 5 W.3.* @ _ ` # @ * } % ) ` [ & & ] ] 5 (.).E.l.f.f.g.U.T.T.T.I.f.f.f.f.s.i.i.i.i.t U 6X6X6X6XW F t.&X-XD.I 6X6X",
"6Xv .X X'.-., O % X.).'.*.% @ # @ % *./.#.$ # ` ` ` ] 5 3.`.`.E.E.z.f.H.T.T.T.T.T.G.f.f.f.s.i.i.i.y.> 6X6X6X6X6X6X6XU c w.x T 6X6X",
"6X! {..X].'.Q.*.$.W.`.].`.| $ + $ | W.'._.5 $ @ # % | 4.).'.'.W.5.R.f.G.T.T.T.T.T.H.f.f.f.i.i.i.i.r L 6X6X6X6X6X6X6X6X6XY E 6X6X6X",
"6XL c..X}.].].].'.'.].].]._.X.4 X./.`.].].Q.#.} } *.W.`.].].].(.5.E.z.g.U.T.T.T.T.P.f.f.s.i.i.i. .: 6X6X6X6X6X6X6X6X6X6X6X6X6X6X6X",
"6XW l |. X].].].].].].].].].'.'.'.].].].].].].].`.`.'.].].].].).5.5.R.f.H.T.T.T.T.H.f.f.i.i.i.&.8 Y 6X6X6X6X6X6X6X6X6X6X6X6X6X6X6X",
"6X6XD ~..X[.].].].].].].].].].].].].].].].].].].].].].].].].].(.5.5.E.l.f.j.U.U.U.g.f.s.p.&.*.} V 6X6X6X6X6X6X6X6X6X6X6X6X6X6X6X6X",
"6X6XW v |. X].].].].].].].].].].].].].].].].].].].].].].].].].W.5.5.5.E.R.z.x.x.x.z.l.-.=.=...S 6X6X6X6X6X6X6X6X6X6X6X6X6X6X6X6X6X",
"6X6X6XV ~..X}.].].].].].].].].].].].].].].].].].].].].].].].`.W.5.5.5.5.5.E.E.E.E.5.4.1.=.#.1 C S S B E 6X6X6X6X6X6X6X6X6X6X6X6X6X",
"6X6X6XW j {..X[.].].].].].].].].].].].].].].].].].].].].].].(.5.5.5.5.5.5.5.5.5.5.5.1.=.#.} #.$.*.*.$.g W 6X6X6X6X6X6X6X6X6X6X6X6X",
"6X6X6X6XR >.|. X[.].].].].].].].].].].].].].].].].].].].].).E.5.5.5.5.5.5.5.5.5.5.4.=.X.7 $.1.5.5.5.5.#.I 6X6X6X6X6X6X6X6X6X6X6X6X",
"6X6X6X6X6XU ;.|. X[.].].].].].].].].].].].].].].].].].'.(.E.5.5.5.5.5.5.5.5.5.5.5.*...7 | @.%.=.1.4.5.$.L 6X6X6X6X6X6X6X6X6X6X6X6X",
"6X6X6X6X6X6XD ;.|. X[.].].].].].].].].].].].].].].'.).W.5.5.5.5.5.5.5.5.5.5.5.5.*.7 ..$.@.=.4.5.4.5.5.9 T 6X6X6X6X6X6X6X6X6X6X6X6X",
"6X6X6X6X6X6X6XD ,.{..X X[.].].].].].].].].].].'.(.W.5.5.5.5.5.5.5.5.5.5.5.5.4.#.g C ..4.*.1.1.5.5.5.=.h 6X6X6X6X6X6X6X6X6X6X6X6X6X",
"6X6X6X6X6X6X6X6XI l ^..X.X X X[.].].].].].].`.W.5.5.5.5.5.5.5.5.5.5.5.5.4.*.9 D W 6Xh *.4.=.5.5.5.5...I 6X6X6X6X6X6X6X6X6X6X6X6X6X",
"6X6X6X6X6X6X6X6X6XW F +.!.|..X.X X[.].].].'.W.5.5.5.5.5.5.5.5.5.5.5.4.$. .d T 6X6X6XT k 3.2.4.5.5.*.A 6X6X6X6X6X6X6X6X6X6X6X6X6X6X",
"6X6X6X6X6X6X6X6X6X6X6XT F >.~.{..X.X X[.].).5.5.5.5.5.5.5.5.5.4.*.O. ...} V 6X6X6X6X6XI 9 4.5.5.3.k W 6X6X6X6X6X6X6X6X6X6X6X6X6X6X",
"6X6X6X6X6X6X6X6X6X6X6X6X6XW U ! >.:.~.!.|.W.4.4.4.4.4.4.4.*.O...O.$.$.%.} Y 6X6X6X6X6X6XU 9 $.*.9 R 6X6X6X6X6X6X6X6X6X6X6X6X6X6X6X",
"6X6X6X6X6X6X6X6X6X6X6X6X6X6X6X6XW Y U F ! 8 ..O.O.O.O.O.o.#.*.5.W.5.1.4.X.Y 6X6X6X6X6X6X6XT S A I 6X6X6X6X6X6X6X6X6X6X6X6X6X6X6X6X",
"6X6X6X6X6X6X6X6X6X6X6X6X6X6X6X6X6X6X6X6X6XV ..4.5.5.E.E.W./.).).`.'.W.5.*.D 6X6X6X6X6X6X6X6X6X6X6X6X6X6X6X6X6X6X6X6X6X6X6X6X6X6X6X",
"6X6X6X6X6X6X6X6X6X6X6X6X6X6X6X6X6X6X6X6X6X6X! 4.`.`.`.'.'.'.].].].'.W.5.4.v E 6X6X6X6X6X6X6X6X6X6X6X6X6X6X6X6X6X6X6X6X6X6X6X6X6X6X",
"6X6X6X6X6X6X6X6X6X6X6X6X6X6X6X6X6X6X6X6X6X6XW ~ R.'.].].].].].].].'.W.5.5.3.j W 6X6X6X6X6X6X6X6X6X6X6X6X6X6X6X6X6X6X6X6X6X6X6X6X6X",
"6X6X6X6X6X6X6X6X6X6X6X6X6X6X6X6X6X6X6X6X6X6X6X6XF ;.{. X X X}.[.[.`.E.E.E.E.3.j W 6X6X6X6X6X6X6X6X6X6X6X6X6X6X6X6X6X6X6X6X6X6X6X6X",
"6X6X6X6X6X6X6X6X6X6X6X6X6X6X6X6X6X6X6X6X6X6X6X6X6XR ~ <.^.|..X.X.X{.^.^.^.^.^.+.T 6X6X6X6X6X6X6X6X6X6X6X6X6X6X6X6X6X6X6X6X6X6X6X6X",
"6X6X6X6X6X6X6X6X6X6X6X6X6X6X6X6X6X6X6X6X6X6X6X6X6X6X6XT G ~ v ,.;.:.:.:.;.;.>.F 6X6X6X6X6X6X6X6X6X6X6X6X6X6X6X6X6X6X6X6X6X6X6X6X6X",
"6X6X6X6X6X6X6X6X6X6X6X6X6X6X6X6X6X6X6X6X6X6X6X6X6X6X6X6X6X6X6X6X6X6X6X6X6X6X6X6X6X6X6X6X6X6X6X6X6X6X6X6X6X6X6X6X6X6X6X6X6X6X6X6X6X"
};
