/* XPM */
static char *f26a3135bbd94919f27a3623f45b0166FIWuZEzPUjFK9VZ5[] = {
/* column4Xrow4Xcolor4Xchars-per-pixel */
"65 65 223 2 ",
"   c #000000",
".  c #1A1A1A",
"X  c #282828",
"o  c #373736",
"O  c #740300",
"+  c #7B0600",
"@  c #671A01",
"#  c #731702",
"$  c #6A2B00",
"%  c #772700",
"&  c #6E3900",
"*  c #7D3600",
"=  c #364D30",
"-  c #3A4F37",
";  c #3A5438",
":  c #585B08",
">  c #4B541F",
",  c #575D18",
"<  c #6B4800",
"1  c #794900",
"2  c #6D5902",
"3  c #745500",
"4  c #775A1D",
"5  c #59661B",
"6  c #5D7A1B",
"7  c #696301",
"8  c #6C6D00",
"9  c #727302",
"0  c #767805",
"q  c #7B7C00",
"w  c #76770D",
"e  c #646915",
"r  c #504E2E",
"t  c #4A5527",
"y  c #47543C",
"u  c #585739",
"i  c #665628",
"p  c #735D29",
"a  c #536B28",
"s  c #57742A",
"d  c #486536",
"f  c #527033",
"g  c #7A632A",
"h  c #17484B",
"j  c #094957",
"k  c #054C5D",
"l  c #134B53",
"z  c #0C535B",
"x  c #195758",
"c  c #284B44",
"v  c #2C5244",
"b  c #23524C",
"n  c #2B534A",
"m  c #385548",
"M  c #285752",
"N  c #3A5C51",
"B  c #3A675E",
"V  c #035264",
"C  c #0B5D65",
"Z  c #00566D",
"A  c #075968",
"S  c #00596F",
"D  c #005B71",
"F  c #245C67",
"G  c #03626C",
"H  c #06676E",
"J  c #106469",
"K  c #006375",
"L  c #046B74",
"P  c #086B70",
"I  c #006678",
"U  c #006B7B",
"Y  c #027077",
"T  c #00717E",
"R  c #376664",
"E  c #535A50",
"W  c #456352",
"Q  c #77776E",
"!  c #767676",
"~  c #8A0400",
"^  c #960200",
"/  c #990000",
"(  c #920A00",
")  c #822400",
"_  c #875C02",
"`  c #925600",
"'  c #875F13",
"]  c #8C6302",
"[  c #986300",
"{  c #9D6B00",
"}  c #966814",
"|  c #98701F",
" . c #A66300",
".. c #A46901",
"X. c #AD6C00",
"o. c #B66E00",
"O. c #A57301",
"+. c #B57200",
"@. c #B67603",
"#. c #BC7400",
"$. c #AC781B",
"%. c #B57B15",
"&. c #946D21",
"*. c #906E27",
"=. c #A17522",
"-. c #C37500",
";. c #C87700",
":. c #C47A01",
">. c #CD7C00",
",. c #D47F00",
"<. c #6E8A04",
"1. c #7A8702",
"2. c #769601",
"3. c #698519",
"4. c #7A8219",
"5. c #7B9B1C",
"6. c #7DA300",
"7. c #78942B",
"8. c #5A855D",
"9. c #7BA64B",
"0. c #848400",
"q. c #848B00",
"w. c #8B8B00",
"e. c #8A9600",
"r. c #949400",
"t. c #979803",
"y. c #999901",
"u. c #9C9C0B",
"i. c #87881A",
"p. c #8A9211",
"a. c #9E9E12",
"s. c #9A9A19",
"d. c #B98B00",
"f. c #B0820F",
"g. c #A29500",
"h. c #84A400",
"j. c #83AB01",
"k. c #89A802",
"l. c #99A300",
"z. c #95A803",
"x. c #99AC00",
"c. c #87B203",
"v. c #8BB400",
"b. c #8DBB00",
"n. c #99B401",
"m. c #93BC00",
"M. c #99BC00",
"N. c #91BA08",
"B. c #89AA18",
"V. c #8FB416",
"C. c #92B618",
"Z. c #95BC19",
"A. c #B7A800",
"S. c #A0A215",
"D. c #A2A21B",
"F. c #A0BA14",
"G. c #979821",
"H. c #929234",
"J. c #97BA2D",
"K. c #A6A624",
"L. c #A6A82A",
"P. c #A9A92B",
"I. c #ADAD33",
"U. c #A6A638",
"Y. c #A6BA3F",
"T. c #C68501",
"R. c #D58000",
"E. c #DC8400",
"W. c #DA8801",
"Q. c #C88819",
"!. c #D58A13",
"~. c #D38915",
"^. c #DC9116",
"/. c #E58900",
"(. c #EB8D00",
"). c #E48F0F",
"_. c #F49300",
"`. c #FA9600",
"'. c #FF9900",
"]. c #FF9D0B",
"[. c #E69616",
"{. c #FE9F12",
"}. c #F69E18",
"|. c #FFA216",
" X c #FEA219",
".X c #94C400",
"XX c #99C300",
"oX c #97C900",
"OX c #99CC00",
"+X c #9CC10A",
"@X c #9DCD0B",
"#X c #9FCF11",
"$X c #9AC419",
"%X c #9DC919",
"&X c #A0CF13",
"*X c #A2CE19",
"=X c #A2D016",
"-X c #A3D119",
";X c #99C627",
":X c #979751",
">X c #AFB652",
",X c #A7A763",
"<X c #B7B864",
"1X c #007482",
"2X c #007B86",
"3X c #007E88",
"4X c #00818A",
"5X c #818181",
"6X c #989898",
"7X c #BBBB9E",
"8X c gray68",
"9X c #B7B7B4",
"0X c #BFC097",
"qX c #CACA93",
"wX c #CFCFA8",
"eX c #D8D8C7",
"rX c #D6D6D3",
"tX c #E4E4C5",
"yX c #ECECDC",
"uX c #E9E9E9",
"iX c #F4F4EA",
"pX c #F6F6F3",
"aX c #FEFEFE",
/* pixel4X*/
"4X4X4X4X4X4X4X4X4X4X4X4X4X4X4X4X4X4X4X4X4X4X4X4X4X4X4X4X4X4X4X4X4X4X4X4X4X4X4X4X4X4X4X4X4X4X4X4X4X4X4X4X4X4X4X4X4X4X4X4X4X4X4X4X4X",
"4X4X4X4X4X4X4X4X4X4X4X4X4X4X4X4X4X4X4X4X4X4X4X4X4X4X4X4X4X4X4X4X4X4X4X4X4X4X4X4X4X4X4X4X4X4X4X4X4X4X4X4X4X4X4X4X4X4X4X4X4X4X4X4X4X",
"4X4X4X4X4X4X4X4X4X4X4X4X4X4X4X4X4X4X4X4X4X4X4X4X4X4X4X4X4X4X4X4X4X4X4X4X4X4X4X4X4X4X4X4X4X4X4X4X4X4X4X4X4X4X4X4X4X4X4X4X4X4X4X4X4X",
"4X4X4X4X4X4X4X4X4X4X4X4X4X4X4X4X4X4X4X4X4X4X4X4X4X4X4X4X4X4X4X4X4X4X4X4X4X4X4X4X4X4X4X4X4X4X4X4X4X4X4X4X4X4X4X4X4X4X4X4X4X4X4X4X4X",
"4X4X4X4X4X4X4X4X4X4X4X4X4X4X4X4X4X4X4X4X4X4X4X4X4X4X4X4X4X4X4X4X4X4X4X4X4X4X4X4X4X4X4X4X4X4X4X4X4X4X4X4X4X4X4X4X4X4X4X4X4X4X4X4X4X",
"4X4X4X4X4X4X4X4X4X4X4X4X4X4X4X4X4X4X4X4X4X4Xb - y W W W B R F A 4X4X4X4X4X4X4X4X4X4X4X4X4X4X4X4X4X4X4X4X4X4X4X4X4X4X4X4X4X4X4X4X4X",
"4X4X4X4X4X4X4X4X4X4X4X4X4X4X4X4X4X4X4X4X4X4Xp.s.s.s.G.J.;X;XJ.9.8.R A 4X4X4X4X4X4X4X4X4X4X4X4X4X4X4X4X4X4X4X4X4X4X4X4X4X4X4X4X4X4X",
"4X4X4X4X4X4X4X4X4X4X4X4X4X4X4X4X4X4X4X4X4X4Xt.u.u.u.z.@X@X@X@X#X%X;X7.W V 4X4X4X4X4X4X4X4X4X4X4X4X4X4X4X4X4X4X4X4X4X4X4X4X4X4X4X4X",
"4X4X4X4X4X4X4X4X4X4X4X4X4X4X4X4X4X4X4X4X4X4X4Xw.y.y.x.oXOXOXOXOXoXoXoXb.5 4X4X4X4X4X4X4X4X4X4X4X4X4X4X4X4X4X4X4X4X4X4X4X4X4X4X4X4X",
"4X4X4X4X4X4X4X4X4X4X4X4X4X4X4X4X4X4X4X4X4X4XV 4Xr.y.x.oXoX.Xb.v.c.j.6.6.2.= h h l l j V 4X4X4X4X4X4X4X4X4X4X4X4X4X4X4X4X4X4X4X4X4X",
"4X4X4X4X4X4X4X4X4X4X4X4X4X4X4X4X4X4X4X4X4X4X4Xj 9 y.y.v.c.j.2.<.<.2.2.j.c.V.C.C.C.V.B.3.a v V 4X4X4X4X4X4X4X4X4X4X4X4X4X4X4X4X4X4X",
"4X4X4X4X4X4X4X4X4X4X4X4X4X4X4X4XV 4X4X4X4X4X4XV 4X0.0.1.<.<.h.b.oXoXOXOXOXOX@X#X-X-X-X-X*XZ.3.; 4X4X4X4X4X4X4X4X4X4X4X4X4X4X4X4X4X",
"4X4X4X4X4X4X4X4X4X4X4X4X4X4X4Xh 4X4Xh 4X4X4X4XV > q 8 q z.oXOXOXOXOXOXOXOXOXOXOX@X#X=X-X-X-X*XZ.3.c V 4X4X4X4X4X4X4X4X4X4X4X4X4X4X",
"4X4X4X4X4X4X4X4X4X4X4X4X4X4Xj e t.t.9 c 4X4X4Xj : q r.y.y.x.n.M.M.XXoXOXOXOXOXOXOXOX@X&X-X-X-X-X*XC.4Xl 4X4X4X4X4X4X4X4X4X4X4X4X4X",
"4X4X4X4X4X4X4X4X4X4X4X4X4X4Xe t.y.r.t.9 h 4Xj 4Xw.t.S.K.K.u.y.y.y.l.M.OXOXOXOXOXOXOXOXOX@X=X-X-X-X-X%X5.v V 4X4X4X4X4X4X4X4X4X4X4X",
"4X4X4X4X4X4X4X4X4X4X4X4X4X- r.y.y.t.w.t.e h , w.a.P.I.I.I.S.y.y.y.y.l.oXOXOXOXOXOXOXOXOXOX@X&X-X-X-X-X-XV.4XV 4X4X4X4X4X4X4X4X4X4X",
"4X4X4X4X4X4X4X4X4X4X4X4X4Xw y.y.t.w.w.w.q 7 w.t.P.I.I.I.I.S.y.y.y.y.n.oXOXOXOXOXOXOXOXOXOXOXOX@X-X-X-X-X-X$Xf V 4X4X4X4X4X4X4X4X4X",
"4X4X4X4X4X4X4X4X4X4X4X4Xc w.t.r.r.w.0.8 8 0.r.u.I.I.I.I.I.a.y.y.y.n.oXOXOXOXOXOXOXOXOXOXOXOXOXOX@X=X-X-X-X-X%X4XV 4X4X4X4X4X4X4X4X",
"4X4X4X4X4X4X4X4X4X4X4X4X- t.t.r.w.0.8 8 0.w.y.y.K.I.I.I.P.t.y.l.M.oXOXOXoXm.m.M.M.XXOXOXOXOXOXOXOX@X=X-X-X-X-X$X4X4X4X4X4X4X4X4X4X",
"4X4X4X4X4X4X4X4X4X4X4X4Xb 0.y.y.t.0.8 0.w.y.u.t.y.a.S.S.u.y.l.XXOXOXoXv.q.w.t.y.y.l.x.XXOXOXOXOXOXOXOX&X-X-X-X-XB.l 4X4X4X4X4X4X4X",
"4X4X4X4X4X4X4X4X4X4X4X4X4Xv a 5 , : q w.r.K.I.P.t.y.y.y.y.y.M.OXOXoXh.q w.y.t.w.r.r.t.y.M.OXOXOXOXOXOXOX=X-X-X-X*Xf 4X4X4X4X4X4X4X",
"4X4X4X4X4X4X4X4X4X4X4X4X4X4X4XA h 8 w.w.S.I.I.I.K.y.y.y.y.n.oXOXoXk.q r.a.i.i.w i.i.i.p.y.M.OXOXOXOXOXOX@X-X*XB.B.5.A 4X4X4X4X4X4X",
"4X4X4X4Xh v b l A 4X4X4X4X4X4XA > 0.w.r.P.I.I.I.I.u.y.y.l.oXOXOXm.q w.L.tXpXiXyXeXqX,XH.G.l.oXOXOXOXOXOXOX#XC.e 4.V.l 4X4X4X4X4X4X",
"4X4X4X4X= j.b.j.3.; 4X4X4X4X4Xc q w.w.y.P.I.I.I.I.u.y.y.n.OXOXoXh.q t.wXaXaXaXaXaXpXrX7X:Xs.M.oXOXOXOXOXOX@XB.p.Z.Z.b 4X4X4X4X4X4X",
"4X4X4X4XA a b.OXoXz.0 - A 4XA , w.w.w.y.K.I.I.I.D.y.y.y.XXOXOXoX1.0.L.pXaXaXaXaXuXQ o o y :Xn.oXOXOXOXOXOX@X-X-X-X$Xv 4X4X4X4X4X4X",
"4X4X4X4X4XA a m.OXM.y.w.4XA c q w.w.r.y.a.K.K.S.y.y.y.l.oXOXOXoXq w.<XaXaXaXaXpX5X  . Q 6XQ >XoXOXOXOXOXOX@X=X-X-X$Xn 4X4X4X4X4X4X",
"4X4X4X4X4X4XA 3.oXoXl.y.r.4X, w.w.w.t.y.y.y.y.y.y.y.y.x.oXOXOXoXq w.<XaXaXaXaXuXo   ! pXaX9XY.oXOXOXOXOXOX@X=X-X-XZ.n 4X4X4X4X4X4X",
"4X4X4X4X4X4X4Xv v.oXx.y.t.q 9 w.w.w.y.D.P.P.K.u.y.y.y.l.oXOXOXoX1.w.U.pXaXaXaXpXE   ! aXaXrXY.oXOXOXOXOXOX@X-X-X-XC.x 4X4X4X4X4X4X",
"4X4X4X4X4X4X4XA 2.OXn.y.r.9 q w.w.w.a.I.I.I.I.K.y.y.y.l.oXOXOXoXe.0.a.tXaXaXaXaX9XX . 6X6X0X+XOXOXOXOXOXOX@X-X-X-XB.4X4X4X4X4X4X4X",
"4X4X4X4X4X4X4XG 6 OXM.y.w.9 0.w.w.w.K.I.I.I.I.P.t.y.y.y.XXOXOXOXm.1.t.>XiXaXaXaXaXrX8X9XeX>XoXOXOXOXOXOXOX@X-X-X-X5.4X4X4X4X4X4X4X",
"4X4X4X4X4X4X4X4X4XOXXXy.w.8 0.w.w.w.K.I.I.I.I.D.y.y.y.y.n.oXOXOXoXk.0.y.<XiXaXaXaXaXaXyX<XM.OXOXOXOXOXOXOX#X-X-X*Xa 4X4X4X4X4X4X4X",
"4X4X4X4X4X4X4XG 6 OXXXy.w.8 0.w.w.w.K.I.I.P.D.y.y.y.y.y.y.XXOXOXOXoXh.w.y.U.qXtXtXtXqXL.M.oXOXOXOXOXoXOXOX=X-X-X$Xn 4X4X4X4X4X4X4X",
"4X4X4X4X4X4X4XA <.OXM.y.w.9 0.w.w.w.t.a.a.t.y.y.y.y.y.y.y.x.oXOXOXOXoXv.t.y.y.t.t.u.x.XXOXOXOXOXoXb.j.b.OX=X-X-X5.C 4X4X4X4X4X4X4X",
"4X4X4X4X4X4X4Xx j.OXM.y.w.9 0.w.w.w.y.y.t.S.P.P.K.y.y.y.y.y.x.XXoXOXOXOXoXXXM.M.M.XXoXoXOXOXOXOX.X2.< 3 N.-X-X%X4X4X4X4X4X4X4X4X4X",
"4X4X4X4X4X4X4X; .XOXn.y.r.: 9 w.w.w.t.t.K.I.I.I.I.u.y.y.y.y.y.l.XXOXOXOXOXOXOXOXoXj.9 q v.OXOX.Xc.2 ( ( 4.*X-XB.x 4X4X4X4X4X4X4X4X",
"4X4X4X4X4X4XG 3.oXoXl.u.4.h e w.w.w.r.D.I.I.I.I.P.t.y.y.y.y.y.y.l.XXOXOXOXOXOXoXv.7 ( ( 3 v..Xb.2.) / / * B.C.a 4X4X4X4X4X4X4X4X4X",
"4X4X4X4X4X4Xn v.OXXXS.i.n 4X4X0.w.w.w.K.I.I.I.I.P.y.y.y.y.y.y.y.y.n.OXOXOXOXoXb.2.) / / ( 2 6.h.3 ^ ^ ^ ( r m G 4Xy 4X4X4X4X4X4X4X",
"4X4X4X4X4XG 6 oX@XF.i.n 4X4Xb q w.w.w.t.P.I.I.P.a.y.y.y.y.y.y.y.y.A.A.k.j.b.b.j.3 ^ / ^ / ( * * ( ~ # # # x 4X4X4X^.f.C 4X4X4X4X4X",
"4X4X4X4X4Xx c.@X$X4.M 4X4X4XG e w.w.w.r.y.u.u.u.S.K.K.K.u.y.y.g.T.(.+.) ) < 7 1 ( ~ % % + ~ ^ ~ O 1 #.1 @ x 4Xm T.|.Q.C 4X4X4X4X4X",
"4X4X4X4X4Xx B.5.4XC 4X4X4X4X4Xv q w.w.w.t.y.y.u.P.I.I.I.P.t.y.T.R._.E.` ( ^ ^ ^ + $ #.+.$ O ~ O & W._...@ - m :.]. X$.G 4X4X4X4X4X",
"4X4X4X4X4X4X4XC 4X4X4X4X4X4X4XG 5 w.w.w.r.y.y.S.I.I.I.I.P.t.d.,.E.'._.R.[ % + O @ ..`.(.[ @ O $ +.'.`.E...X.W.'.|.}.p 4X4X4X4X4X4X",
"4X4X4X4X4X4X4X4X4X4X4X4X4X4X4X4Xb 0 w.w.w.y.y.S.I.I.I.I.K.g.T.,.(.'.'.`.(.:.[ [ #._.'.`.(.X._ #.`.'.'.`.`.'.'.].|.^.M 4X4X4X4X4X4X",
"4X4X4X4X4X4X4X4X4X4X4X4X4X4X4X4X4Xr O.w.w.r.y.u.I.I.I.L.u.d.,.,.(.'.'.'.'.`.`.'.'.'.'.'.'.'.'.'.'.'.'.'.'.'.'.]. X&.4X4X4X4X4X4X4X",
"4X4X4X4X4X4X4X4X4X4X4X4X4X4X4X4X4XG 4X+.@.f.g.y.D.K.S.y.d.R.,.,./.'.'.'.'.'.'.'.'.'.'.'.'.'.'.'.'.'.'.'.'.'.].|.[.m 4X4X4X4X4X4X4X",
"4X4X4X4X4X4X4X4X4X4X4X4X4X4X4X4XG G h _ #.#.:.T.T.T.T.T.,.,.,.,.E.`.'.'.'.'.'.'.'.'.'.'.'.'.'.'.'.'.'.'.'.'.{. X&.G 4X4X4X4X4X4X4X",
"4X4X4X4X4X4X4X4X4X4X4X4X4X4XC 4 } } ' _ ] #.-.,.,.,.,.,.,.,.,.,.R._.'.'.'.'.'.'.'.'.'.'.'.'.'.'.'.'.'.'.'.]. XQ.M 4X4X4X4X4X4X4X4X",
"4X4X4X4X4X4X4X4X4X4X4X4X4X4X4X>.,.,.,.-.[ _ #.;.,.,.,.,.,.,.,.,.,.E._.'.'.'.'.'.'.'.'.'.'.'.'.'.'.'.'.'.].|.[.4X4X4X4X4X4X4X4X4X4X",
"4X4X4X4X4X4X4X4X4X4X4X4X4X4X4X,.>.-.-.o. ._ _ X.>.,.,.,.,.,.,.,.,.,.E.(.'.'.'.'.'.'.'.'.'.'.'.'.'.'.'.].|.[.g L 4X4X4X4X4X4X4X4X4X",
"4X4X4X4X4X4X4X4X4X4X4X4X4X4Xn #.,.,.,.;.o.X.X.2 ..,.,.,.,.,.,.,.,.,.,.,.E.(.`.'.'.'.'.'.'.'.'.'.'.'.]. X[.g H 4X4X4X4X4X4X4X4X4X4X",
"4X4X4X4X4X4X4X4X4X4X4X4X4X4XH ' ,.,.,.>.#.>...b M 4 #.,.,.,.,.,.,.,.,.,.,.,.E.(.'.'.'.'.'.'.'.].{.|. X~.4XL 4X4X4X4X4X4X4X4X4X4X4X",
"4X4X4X4X4X4X4X4X4X4X4X4X4X4X4Xm #.,.,.>.;.#.y 4X4XL m ] #.>.,.,.,.,.,.,.,.,.,.R.(.'.'.'.].].|. X X[.| M 4X4X4X4X4X4X4X4X4X4X4X4X4X",
"4X4X4X4X4X4X4X4X4X4X4X4X4X4X4XY 4X>.,.>.:.4XL 4X4X4XY 4X] ] X.:.,.,.,.,.,.,.,.,.E.`.].{.|. X}.~.&.m L 4X4X4X4X4X4X4X4X4X4X4X4X4X4X",
"4X4X4X4X4X4X4X4X4X4X4X4X4X4X4X4XL p #.+.4XL 4X4X4X4X4Xn X.X...{ [ X.:.>.>.>.>.>.>.).[.!.f.&.4Xx L 4X4X4X4X4X4X4X4X4X4X4X4X4X4X4X4X",
"4X4X4X4X4X4X4X4X4X4X4X4X4X4X4X4X4XH m M Y 4X4X4X4X4X4Xm -.;.,.E.R.#...{ { { { { ] y N x L Y 4X4X4X4X4X4X4X4X4X4X4X4X4X4X4X4X4X4X4X",
"4X4X4X4X4X4X4X4X4X4X4X4X4X4X4X4X4X4X4X4X4X4X4X4X4X4X4X4X,.R._.`._._.(./.E.E.E.R.4XL 4X4X4X4X4X4X4X4X4X4X4X4X4X4X4X4X4X4X4X4X4X4X4X",
"4X4X4X4X4X4X4X4X4X4X4X4X4X4X4X4X4X4X4X4X4X4X4X4X4X4XN #.,.R._.'.'.'.'.'.'.'._.| J 4X4X4X4X4X4X4X4X4X4X4X4X4X4X4X4X4X4X4X4X4X4X4X4X",
"4X4X4X4X4X4X4X4X4X4X4X4X4X4X4X4X4X4X4X4X4X4X4X4X4XN @.,.,.,.(.'.].].].{.{.).g J 4X4X4X4X4X4X4X4X4X4X4X4X4X4X4X4X4X4X4X4X4X4X4X4X4X",
"4X4X4X4X4X4X4X4X4X4X4X4X4X4X4X4X4X4X4X4X4X4X4X4XH } !.!.!.!.^.{.|. X}.^.=.N Y 4X4X4X4X4X4X4X4X4X4X4X4X4X4X4X4X4X4X4X4X4X4X4X4X4X4X",
"4X4X4X4X4X4X4X4X4X4X4X4X4X4X4X4X4X4X4X4X4X4X4X4X4XE &.$.$.%.%.$.=.*.4Xx Y 4X3X3X4X4X4X4X4X4X4X4X4X4X4X4X4X4X4X4X4X4X4X4X4X4X4X4X4X",
"3X3X3X3X3X3X3X3X3X3X3X3X3X3X3X3X3X3X3X3X3X3X3X3X3X4XY L L P P L L 4X4X4X3X3X3X3X3X3X3X3X3X3X3X3X3X3X3X3X3X3X3X3X3X3X3X3X3X3X3X3X3X",
"3X3X3X3X3X3X3X3X3X3X3X3X3X3X3X3X3X3X3X3X3X3X3X3X3X3X3X3X3X3X3X3X3X3X3X3X3X3X3X3X3X3X3X3X3X3X3X3X3X3X3X3X3X3X3X3X3X3X3X3X3X3X3X3X3X",
"4X4X4X4X3X3X3X3X3X3X3X3X4X4X4X4X3X3X3X3X3X3X3X3X3X3X3X3X3X3X3X3X3X3X3X3X3X3X3X3X3X3X3X3X3X3X3X3X4X4X4X4X3X3X3X3X3X3X3X3X4X4X4X4X3X",
"4X4X4X4X4X4X4X4X4X4X4X4X4X4X4X4X4X4X4X4X4X4X4X4X4X4X4X4X4X4X4X4X4X4X4X4X4X4X4X4X4X4X4X4X4X4X4X4X4X4X4X4X4X4X4X4X4X4X4X4X4X4X4X4X4X",
"4X4X4X4X4X4X4X4X4X4X4X4X4X4X4X4X4X4X4X4X4X4X4X4X4X4X4X4X4X4X4X4X4X4X4X4X4X4X4X4X4X4X4X4X4X4X4X4X4X4X4X4X4X4X4X4X4X4X4X4X4X4X4X4X4X",
"4X4X4X4X4X4X4X4X4X4X4X4X4X4X4X4X4X4X4X4X4X4X4X4X4X4X4X4X4X4X4X4X4X4X4X4X4X4X4X4X4X4X4X4X4X4X4X4X4X4X4X4X4X4X4X4X4X4X4X4X4X4X4X4X4X"
};
