/* XPM */
static char *_bd259f133ce4464cd3cb35c60ce1648Rw2aSpySq2yVQFii[] = {
/* columns rows colors chars-per-pixel */
"65 65 234 2 ",
"   c #060606",
".  c #191919",
"X  c #3A3A3A",
"o  c #6F070D",
"O  c #74080E",
"+  c #700813",
"@  c #551B3C",
"#  c #70132D",
"$  c #715B1A",
"%  c #79611C",
"&  c #584D3B",
"*  c #6F5C32",
"=  c #695839",
"-  c #7C6532",
";  c #1C394C",
":  c #0F3C59",
">  c #113450",
",  c #283848",
"<  c #373B46",
"1  c #233851",
"2  c #113766",
"3  c #133876",
"4  c #4D2F49",
"5  c #5F2A53",
"6  c #6A2C53",
"7  c #0E4558",
"8  c #0E4D5C",
"9  c #154858",
"0  c #134D5A",
"q  c #2F4650",
"w  c #144B66",
"e  c #124C6B",
"r  c #0E5968",
"t  c #115462",
"y  c #115A65",
"u  c #115E69",
"i  c #13477A",
"p  c #294A67",
"a  c #305573",
"s  c #11636D",
"d  c #126A74",
"f  c #126B75",
"g  c #14737D",
"h  c #474447",
"j  c #00818A",
"k  c #585350",
"l  c #675845",
"z  c #645856",
"x  c #53695F",
"c  c #786548",
"v  c #746956",
"b  c #514B70",
"n  c #4E6874",
"m  c #696766",
"M  c #777777",
"N  c #870C15",
"B  c #950E17",
"V  c #920F1B",
"C  c #81142A",
"Z  c #856B1E",
"A  c #8F7320",
"S  c #937724",
"D  c #9B7D23",
"F  c #866D36",
"G  c #8D733C",
"H  c #977A3A",
"J  c #836C44",
"K  c #8C7348",
"L  c #987B43",
"P  c #8A7655",
"I  c #907456",
"U  c #778177",
"Y  c #9E8129",
"T  c #9F853B",
"R  c #A38325",
"E  c #A88726",
"W  c #A98828",
"Q  c #AE8C2A",
"!  c #B18E2A",
"~  c #B5922A",
"^  c #B9942A",
"/  c #BE982E",
"(  c #A88937",
")  c #AD8F38",
"_  c #B99534",
"`  c #C69E2D",
"'  c #C89F2D",
"]  c #C29B36",
"[  c #C7A02E",
"{  c #CAA22E",
"}  c #D0A62F",
"|  c #CAA333",
" . c #CBA63B",
".. c #D6AA33",
"X. c #DAAD32",
"o. c #D3AA3A",
"O. c #DEB135",
"+. c #E4B534",
"@. c #E9B935",
"#. c #E7B938",
"$. c #F0BF37",
"%. c #F5C337",
"&. c #F6C438",
"*. c #FAC638",
"=. c #FDC939",
"-. c #9C8553",
";. c #A58A45",
":. c #BA9B48",
">. c #A48C55",
",. c #AB9859",
"<. c #B59852",
"1. c #BEA151",
"2. c #989073",
"3. c #A8956A",
"4. c #B8AA70",
"5. c #C19D46",
"6. c #C8A848",
"7. c #D2AE42",
"8. c #D2B146",
"9. c #DCB646",
"0. c #D2B156",
"q. c #E6BE47",
"w. c #CDB470",
"e. c #EBC348",
"r. c #F9CD46",
"t. c #FDD047",
"y. c #FCD24C",
"u. c #EECD56",
"i. c #DFDA7D",
"p. c #EBD466",
"a. c #E4D873",
"s. c #154A87",
"d. c #14508B",
"f. c #155897",
"g. c #375C84",
"h. c #157781",
"j. c #00818A",
"k. c #14718C",
"l. c #167B9C",
"z. c #336D93",
"x. c #1A5AA8",
"c. c #1C5FB7",
"v. c #1963A9",
"b. c #1A75A7",
"n. c #1B6BB5",
"m. c #1C75B9",
"M. c #1C74BC",
"N. c #367AAA",
"B. c #2D76B2",
"V. c #3377B7",
"C. c #476786",
"Z. c #56718F",
"A. c #657595",
"S. c #517CAE",
"D. c #1C77C0",
"F. c #1E76C9",
"G. c #1F74CE",
"H. c #227BC9",
"J. c #1E8BBC",
"K. c #338ABA",
"L. c #6196A7",
"P. c #6B90AE",
"I. c #1E85C7",
"U. c #1F8AD0",
"Y. c #3489C8",
"T. c #268ED0",
"R. c #1FA3CA",
"E. c #21ADD9",
"W. c #218BE6",
"Q. c #2695EB",
"!. c #309AE1",
"~. c #2496F4",
"^. c #249AFA",
"/. c #2DAFE7",
"(. c #25B8EB",
"). c #25A9FB",
"_. c #26B9F7",
"`. c #439ECD",
"'. c #46A4D3",
"]. c #6DA6C3",
"[. c #26C5F6",
"{. c #27C4FB",
"}. c #27CBFC",
"|. c #2BCDFC",
" X c #37D2FC",
".X c #7AC7D0",
"XX c #48D1F6",
"oX c #45D6FB",
"OX c #6AD4F1",
"+X c #77ECFB",
"@X c #71EBFD",
"#X c #959593",
"$X c #A5A296",
"%X c #8396B4",
"&X c #86A7BC",
"*X c #B2B2B2",
"=X c #D2BD84",
"-X c #BFECBD",
";X c #D9CA94",
":X c #D4E199",
">X c #D6CBAC",
",X c #E4D8B7",
"<X c #C7E7AE",
"1X c #8CAEC6",
"2X c #8AB2C8",
"3X c #87C5D0",
"4X c #98C6D7",
"5X c #ABCBDB",
"6X c #BCEEC5",
"7X c #B1F3D7",
"8X c #8BD7E2",
"9X c #A8D8E4",
"0X c #94E9F0",
"qX c #88F6FE",
"wX c #97FAFA",
"eX c #9AFEFE",
"rX c #B4E8EC",
"tX c #A7F8E8",
"yX c #A1F7F2",
"uX c #A3FDFE",
"iX c #ABFDFE",
"pX c #BAF8FA",
"aX c #D1CFCB",
"sX c #E3DDCB",
"dX c #C1EBC0",
"fX c #F2EBD8",
"gX c #C5EFF4",
"hX c #C3F3F7",
"jX c #C4FEFD",
"kX c #CDFEFE",
"lX c #D4FEFE",
"zX c #E9E9E7",
"xX c #F9F7F2",
"cX c #FEFEFE",
/* pixels */
"j.j.j.j.j.j.j.j.j.j.j.j.j.j.j.j.j.j.j.j.j.j.j.j.j.j.j.j.j.j.j.j.j.j.j.j.j.j.j.j.j.j.j.j.j.j.j.j.j.j.j.j.j.j.j.j.j.j.j.j.j.j.j.j.j.",
"j.j.j.j.j.j.j.j.j.j.j.j.j.j.j.j.j.j.j.j.j.j.j.8 h h s j.j.j.j.j.g y t g j.j.j.j.j.j.j.j.j.j.j.j.j.j.j.j.j.j.j.j.j.j.j.j.j.j.j.j.j.",
"j.j.j.j.j.j.j.j.j.j.j.j.j.j.j.j.j.j.j.j.j.j.g < _ ) 4 d h.j.j.g , -.<.1 h.j.j.j.j.j.j.j.j.j.j.j.j.j.j.j.j.j.j.j.j.j.j.j.j.j.j.j.j.",
"j.j.j.j.j.j.j.j.j.j.j.j.j.j.j.j.h.d g j.j.j.d l ` ` H ; h.j.g q <.y.r.l d j.j.j.j.j.j.j.j.j.j.j.j.j.j.j.j.j.j.j.j.j.j.j.j.j.j.j.j.",
"j.j.j.j.j.j.j.j.j.j.j.j.j.j.j.j.9 4 ; s j.j.u J ` ` / j s j.9 -.y.t.=.L d j.j.j.j.j.j.j.j.j.j.j.j.j.j.j.j.j.j.j.j.j.j.j.j.j.j.j.j.",
"j.j.j.j.j.j.j.j.j.j.j.j.j.j.j.d v q.:.h s j.8 G ` ! ( c > 7 z e.t.=.=.( y j.j.j.j.j.d 8 > > d j.j.j.j.j.j.j.j.j.j.j.j.j.j.j.j.j.j.",
"j.j.j.j.j.j.j.j.j.j.j.j.j.j.j.s >.y.=. .h 8 ; z v P -.>.<.m 0.t.t.=.=._ ; 8 d h.g 8 < c L J , j.j.j.j.j.j.j.j.j.j.j.j.j.j.j.j.j.j.",
"j.j.j.j.j.j.j.j.j.j.j.j.j.j.j.t <.y.=.=.5.k <.9.y.y.y.y.0.2.y.t.=.=.=.:.P P k , ; = ) ` ` ` h g j.j.j.j.j.j.j.j.j.j.j.j.j.j.j.j.j.",
"j.j.j.j.j.j.j.j.j.j.j.j.j.j.j.t <.y.=.=.*.<.e.y.y.t.t.t.<.9.t.=.=.=.=.:.;.8.6.,.v K _ ` ` / 4 g j.j.j.j.j.j.j.j.j.j.j.j.j.j.j.j.j.",
"j.j.j.j.j.j.j.j.j.j.j.j.j.j.g 8 >.y.=.=.=.=.t.t.=.=.=.=.%.=.=.=.=.=.=.] ;.8.8.8.6.<.P L ` ) , h.j.j.j.j.j.j.j.j.j.j.j.j.j.j.j.j.j.",
"j.j.j.j.j.j.j.j.j.j.j.j.j.g ; z -.t.=.=.=.=.=.=.=.=.=.=.=.=.=.=.=.=.=.:. .#.o.7.8.8.6.>.K K 7 j.j.j.j.j.j.j.j.j.j.j.j.j.j.j.j.j.j.",
"j.j.j.j.j.j.j.j.j.j.j.j.d , ,.e.5.=.=.=.=.=.=.=.=.=.=.=.=.=.=.=.=.=.=.#.$.=.@.|  .7.8.8.:.z 8 j.j.j.j.j.j.j.j.j.j.j.j.j.j.j.j.j.j.",
"j.j.j.j.j.j.j.j.j.j.j.d < 4.p.p.r.=.=.=.=.=.=.=.=.=.=.=.=.=.=.=.=.=.=.=.=.=.=.@.{ |  .7.8.6.c y j.j.j.j.j.j.j.j.j.j.j.j.j.j.j.j.j.",
"j.j.j.j.j.j.j.j.j.j.d p 3X7XtXtX7Xa.=.=.=.=.=.=.=.=.=.=.=.=.=.*.*.*.&.&.*.=.=.=.+.{ ` | 7.8.6.c s j.j.j.j.j.j.j.j.j.j.j.j.j.j.j.j.",
"j.j.j.j.j.j.j.j.j.g p .XeXeXeXeXeXyX:Xr.=.=.=.=.=.=.=.=.=.&.+.{ ^ ^ Q ! ' @.=.=.*.+.{ ` |  .8.6.l d j.j.j.j.j.j.j.j.j.j.j.j.j.j.j.",
"j.j.j.j.j.j.j.j.h.9 ].wXeXeXeXeXeXeXwX<Xr.=.=.=.=.=.=.=.@.{ ^ ^ ^ ^ ^ ! D E +.=.=.*...` ` {  .8.:.h g j.j.j.j.j.j.j.j.j.j.j.j.j.j.",
"j.j.j.j.j.j.g s 7 C..X8XwXeXeXeXeXeXeXwX:X=.=.=.=.=.=.@./ ~ W E E E W ~ ~ D Y +.=.=.$.{ ` ` {  .6.-.; y y y y g j.j.j.j.j.j.j.j.j.",
"j.j.j.j.g t a L.P.P.P.L..XwXeXeXeXeXeXeXtXp.=.=.=.=.&.` Q Y Y D S S D W ^ ! S E $.=.=.+.{ ` ` G c P 3.3.,.,.c 9 j.j.j.j.j.j.j.j.j.",
"j.j.j.d p &XrXkXkXkXhX9XP..XeXeXeXeXeXeXeX6Xr.=.=.=.+.~ ( ;.,.4.>XsXsXsX,X:.E A { =.=.&.} ` { o.9.e.e.e.e.e.9.j d j.j.j.j.j.j.j.j.",
"j.j.g a 9XkXlXlXlXlXlXkXpX4XwXeXeXeXeXeXeXwXi.=.=.*.` ) ,.>XzXxXcXcXcXcXcX>X~ S R %.=.=.+.` { q.e.e.#.#.#.#.+.& d j.j.j.j.j.j.j.j.",
"j.j.9 1XjXlXlXlXlXlXlXlXlXjXiXeXeXeXeXeXeXeX6X=.=.@._ ,.2.$X*XzXcXcXcXcXcXfX6.R A O.=.=.%.{ { +.@.@.@.@.@.@.| q j.j.j.d ; , ; d j.",
"j.d C.pXjXrX1X%X%X5XlXlXlXkXjXuXeXeXeXeXeXeXyXp.=.O.,.& .     M zXcXcXcXcXcXw.E A { =.=.=.X.{ +.@.@.@.@.@.+.G s j.j.d , F ! G ; j.",
"j.8 2XjXpXA.# C C 6 &XlXlXlXjXiXeXeXeXeXeXeXeX:X=.9.2.m m X     *XcXcXcXcXcX;XQ A ^ *.=.=.@.{ ..@.@.@.@.@.| q h.j.g ; F ~ ^ ~ j j.",
"j.p rXjX1X6 B B B V 6 5XlXlXjXpXeXeXeXeXeXeXeX6X=.o.$XzXcXaX.   m xXcXcXcXcX;X! A ~ *.=.=.%.{ { +.@.@.@.O.c t j.h.7 c ~ ^ ^ ^ J j.",
"j.Z.jXrXb V B B N N # P.lXlXkXjXuXeXeXeXeXeXeXtXr.O.>XxXcXzXX   m xXcXcXcXcX;X! A ^ *.=.=.*...` { +.@.+.;.-.q j.y & Q ^ ^ ~ ^ G j.",
"j.L.jX4X6 B B N o o o b gXlXjXjXuXeXeXeXeXeXeXyXa.#.>XzXxXaX.   $XcXcXcXcXxXw.Q A ` *.=.=.=.O.` ` { X.| ;.6.k y & S ~ ^ ~ E W K j.",
"j.P.jX1X# B N o o o o 5 9XjXjXjXiXeXeXeXeXeXeXeX:X&.w.#XM X   k zXcXcXcXcXfX/ E S ..*.=.=.=.+.{ ` ` { ` [ 8.P < % D ~ ! R Y ! = j.",
"j.P.jX1XC B N o o o o 4 9XjXjXjXiXeXeXeXeXeXeXeX<X=.7.,X*X#X#XzXcXcXcXcXxXw.~ D W +.=.=.=.=.@.` ` ` [ ` { o.>.* Z D E D R ~ ~ h j.",
"j.A.jX2X# B O o o o o 4 9XjXjXjXuXeXeXeXeXeXeXeX7Xr.@.0.fXcXcXcXcXcXcXxX;X_ Q D { &.=.=.=.=.+.K ) ` ` ` `  .<.* Z A S R ~ ^ W < j.",
"j.C.jX9X6 B O o o o o b pXjXjXjXuXeXeXeXeXeXeXeXyXu.=.X.0.,XxXcXcXcXfX=X_ ~ R ^ @.=.=.=.=.=.q.1.P J _ ` ` | 1.l $ Z E ~ ^ ^ G 0 j.",
"j.p 9XpXZ.V O o o o # P.jXjXjXpXeXeXeXeXeXeXeXeXeX:X=.&.} / w.w.w.0.:.^ ~ E ~ X.*.=.=.=.=.&.e.e.e.1.v ) ` [ 6.k $ D ~ ^ ^ ^ - y j.",
"j.t 2XjX4X6 + o o + b 9XjXjXjXiXeXeXeXeXeXeXeXeXeXdX=.=.%.X.` ^ ^ ^ ^ ^ ~ ` X.&.=.=.=.=.=.$.e.e.e.e.0.J ` [ 6.z Z E ^ ^ ^ ~ = u j.",
"j.d C.pXjX1X5 @ @ b 4XjXjXjXpXuXeXeXeXeXeXeXeXeXeXtXu.=.=.*.@...{ { { { ..+.&.=.=.=.=.=.=.@.@.#.e.e.6.J ` `  .z % D E Q ! ~ & d j.",
"j.j.8 &XjXjX9X2X2XrXjXjXjXjXqXwXeXeXeXeXeXeXeXeXeXeXi.=.=.=.=.%.@.@.@.@.%.*.=.=.=.=.=.=.=.%.@.@.+. .c ) ` ` | z $ A D D E ! = d j.",
"j.j.g p 4XjXlXlXlXlXkXjXjXqX X@XeXeXeXeXeXeXeXeXeXeX6X=.=.=.=.=.=.=.=.=.=.=.=.=.=.=.=.=.=.*.@. .L c ) ` ` ` / j Z E ~ ~ ~ ~ = s j.",
"j.j.j.: N.2XhXlXlXkXjX9X.X X}. XqXeXeXeXeXeXeXeXeXeXtXp.=.=.=.=.=.=.=.=.=.=.=.=.=.=.=.=.=.=.O.J H / ` ` ` ` ~ & $ D ~ ^ ^ ~ - y j.",
"j.j.j.w R.J.S.].2X2XP.V.(.}.}.}.oXwXeXeXeXeXeXeXeXeXeX<X=.=.=.=.=.=.=.=.=.=.=.=.=.=.=.=.=.=.+.` ` ` ` ` ` ` ) & % Z D E ~ ~ F y j.",
"j.j.j.t J.E.R.J.J.J.R.[.}.}.}.}.}.@XeXeXeXeXeXeXeXeXeXtXp.=.=.=.=.=.=.*.*.*.*.*.=.=.=.=.=.=.X.{ ` ` ` ` ` ` ( = Z R E D D E H t j.",
"j.j.j.u b.E.E.E.E.(.{.}.}.}.}.}.}. X+XeXeXeXeXeXeXeXeXeX-Xr.=.*.@.X./ ( ( ( T ( ] { +.*.=.*.} { ` ` ` ` ` ` K = Z R ^ ~ Q E H 9 j.",
"j.j.j.g b.[.[.[.[.}.}.}.}.}.}.}.}.}. X+XeXeXeXeXeXeXeXeXwX:X..( v n z.N.N.N.N.N.N.C.x c ~ O.{ ` ` ` ` _ ` ` l < - D ^ ^ ^ ^ Q < j.",
"j.j.j.g i (.}.}.}.}.}.}.}.}.}.}.}.}.}. XqXeXeXeXeXeXeXeXeX0Xn N.K.Y.Y.Y.Y.Y.Y.Y.Y.Y.Y.K.z.z R ` ` } ..H _ / h 8 , - ~ ^ ^ ^ Q < j.",
"j.j.j.h.> E.}.}.}.}.}.}.}.}.}.}.}.}.}.}. X+XeXeXeXeXeXeXeXwX`.D.D.D.D.D.D.D.D.D.D.H.Y.Y.Y.K.z / { +.@...G H 9 j.d 9 l H ~ ! G 9 j.",
"j.j.j.8 f.I.}.}.}.}.}.}.}.}.}.}.}.}.}.}.}. X@XeXeXeXeXeXeXwX'.D.D.D.D.D.D.D.D.D.D.D.D.D.Y.Y.n ~ X.@.@.@.] j y j.j.g y , & j , d j.",
"j.j.d d.Q.n.(.}.}.}.}.}.}.}.}.}.}.}.}.}.}.}.|.OXqXeXeXeXeXwX`.D.D.D.D.D.D.D.D.D.D.D.D.D.M.f.= ` +.@.@.@.+.L y j.j.j.j.g u u g j.j.",
"j.j.t M.^.G.T.}.}.}.}.}.}.}.}.}.}.}.}.}.}.}.}.}. X@XwXeXeXwXg.n.D.D.D.D.D.D.D.D.D.D.D.n.i * ~ { +.@.@.@.@...q h.j.j.j.j.j.j.j.j.j.",
"j.j.s > f.f.s.(.}.}.}.}.}.}.}.}.}.}.}.}.}.}.}.}.}.}.oX+XwXeX.Xw n.D.D.D.M.M.D.D.D.D.n.p % ` [ { ..X.+.@.@...j g j.j.j.j.j.j.j.j.j.",
"j.j.j.g s s 8 J.[.!.XX X}.}.}.}.}.}.}.}.}.}.}.}.}.}.}.|.oX@X+X].w v.M.D.D.M.D.D.D.v.q Z ` [ [ / F - K I P l 0 j.j.j.j.j.j.j.j.j.j.",
"j.j.j.j.j.j.g e I.].uXqX@X X}.}.}.}.}.}.}.}.}.}.}.}.}.}.}.|.|.oXK.8 d.n.M.D.M.M.v.: x 3.,.,.,.,.2.2.U 1 s s h.j.j.j.j.j.j.j.j.j.j.",
"j.j.j.j.j.j.j.s a 0XiXeXwX@X|.}.}.}.}.}.}.}.}.}.}.}.}.}.}.}.}.}.[.E.k.7 s.f.f.i w m.Q.^.Q.!.!.!.Q.~.x.u j.j.j.j.j.j.j.j.j.j.j.j.j.",
"j.j.j.j.j.j.j.d L.iXuXeXeXwXoX}.}.}.}.}.}.}.}.}.}.}.}.}.}.}.}.}.}.}.[.R.l.r r l.U.Q.^.^.^.^.^.^.^.F.r j.j.j.j.j.j.j.j.j.j.j.j.j.j.",
"j.j.j.j.j.j.j.t 3XiXuXeXeXeX+X}.}.}.}.}.}.}.}.}.}.}.}.}.}.}.}.}.}.}.}.}.[.(.(.).^.^.^.^.^.^.^.^.W.e h.j.j.j.j.j.j.j.j.j.j.j.j.j.j.",
"j.j.j.j.j.j.j.a 0XiXeXeXeXwX+X|.}.}.}.}.}.}.}.}.}.}.}.(.(.}.}.}.}.}.}.}.}.{.).^.^.^.^.^.^.W.^.W.s.g j.j.j.j.j.j.j.j.j.j.j.j.j.j.j.",
"j.j.j.j.j.j.h.a yXiXeXeX0X].V.(.}.}.}.}.{./. X X}.}.}.I.(.}.}.}.}.}.}.}.{.).^.^.^.^.Q.U.F.x.G.i d j.j.j.j.j.j.j.j.j.j.j.j.j.j.j.j.",
"j.j.j.j.j.j.j.a 8XyX8XL.g.n.(.}.}.}.}.}.[.B.XXoX|.}.[.M.[.}.}.}.}.}.}._.).^.^.^.^.W.F.D.D.x.2 g j.j.j.j.j.j.j.j.j.j.j.j.j.j.j.j.j.",
"j.j.j.j.j.j.j.d p p 9 t s w I._.{.}.}.}.}.R.!.oX X}.(.I.}.}.}.}.}.{.).^.^.^.^.^.Q.F.D.D.D.n.2 h.j.j.j.j.j.j.j.j.j.j.j.j.j.j.j.j.j.",
"j.j.j.j.j.j.j.j.h.g h.j.j.g 8 v.Q._.{.}.}.[.V./.oX|.T.E.}.}.}._.).^.^.^.^.^.^.^.U.D.D.D.D.M.i g j.j.j.j.j.j.j.j.j.j.j.j.j.j.j.j.j.",
"j.j.j.j.j.j.j.j.j.j.j.j.j.j.j.u i F.~.)._._.!.V.XX/.M._._.).).^.^.^.^.^.^.^.^.W.x.M.D.D.D.D.s.d j.j.j.j.j.j.j.j.j.j.j.j.j.j.j.j.j.",
"j.j.j.j.j.j.j.j.j.j.j.j.j.j.j.j.g 2 x.G.~.^.^.G.V.V.W.^.^.^.^.^.^.^.^.^.^.^.~.G.3 3 v.M.D.D.s.d j.j.j.j.j.j.j.j.j.j.j.j.j.j.j.j.j.",
"j.j.j.j.j.j.j.j.j.j.j.j.j.j.j.j.j.2 n.x.x.F.G.W.Q.~.^.^.^.^.^.^.^.^.^.~.G.n.i w d s : s.f.d.2 g j.j.j.j.j.j.j.j.j.j.j.j.j.j.j.j.j.",
"j.j.j.j.j.j.j.j.j.j.j.j.j.j.j.j.h.2 M.D.M.x.2 i f.x.n.F.G.G.G.G.G.c.d.3 7 u g j.j.j.h.d 8 8 d j.j.j.j.j.j.j.j.j.j.j.j.j.j.j.j.j.j.",
"j.j.j.j.j.j.j.j.j.j.j.j.j.j.j.j.j.2 M.D.M.i y d d u 8 : 3 x.x.v.x.3 s h.j.j.j.j.j.j.j.j.j.j.j.j.j.j.j.j.j.j.j.j.j.j.j.j.j.j.j.j.j.",
"j.j.j.j.j.j.j.j.j.j.j.j.j.j.j.j.h.7 v.M.s.8 j.j.j.j.j.g : v.D.D.M.2 h.j.j.j.j.j.j.j.j.j.j.j.j.j.j.j.j.j.j.j.j.j.j.j.j.j.j.j.j.j.j.",
"j.j.j.j.j.j.j.j.j.j.j.j.j.j.j.j.j.u 3 3 8 h.j.j.j.j.j.j.d 3 n.D.v.w j.j.j.j.j.j.j.j.j.j.j.j.j.j.j.j.j.j.j.j.j.j.j.j.j.j.j.j.j.j.j.",
"j.j.j.j.j.j.j.j.j.j.j.j.j.j.j.j.j.j.s s j.j.j.j.j.j.j.h.j.y 3 f.3 d j.j.j.j.j.j.j.j.j.j.j.j.j.j.j.j.j.j.j.j.j.j.j.j.j.j.j.j.j.j.j.",
"j.j.j.j.j.j.j.j.j.j.j.j.j.j.j.j.j.j.j.j.j.j.j.j.j.j.j.j.j.j.j.j.j.j.j.j.j.j.j.j.j.j.j.j.j.j.j.j.j.j.j.j.j.j.j.j.j.j.j.j.j.j.j.j.j."
};
