/* XPM */
static char *eeb2fd646b2446189b631aea90fac81d2kAWv3d7fNjVTCQa[] = {
/* columns rows colors chars-per-pixel */
"65 65 183 2 ",
"   c #1D270E",
".  c #1E280F",
"X  c #1F2B15",
"o  c #202B16",
"O  c #17272C",
"+  c #19292E",
"@  c #1B2B30",
"#  c #253520",
"$  c #253823",
"%  c #293B28",
"&  c #222F33",
"*  c #233630",
"=  c #2C3539",
"-  c #273A3E",
";  c #2E4028",
":  c #34452C",
">  c #2E4533",
",  c #334B38",
"<  c #3B5335",
"1  c #415C39",
"2  c #45603A",
"3  c #4A653C",
"4  c #353E41",
"5  c #3D4447",
"6  c #354E43",
"7  c #30474A",
"8  c #31494C",
"9  c #38534E",
"0  c #374E52",
"q  c #375254",
"w  c #3A5453",
"e  c #3D5A56",
"r  c #3D5759",
"t  c #3E5C5B",
"y  c #484E52",
"u  c #4A5558",
"i  c #405D5E",
"p  c #545A5C",
"a  c #4C6442",
"s  c #546D44",
"d  c #577044",
"f  c #5B7645",
"g  c #5A7A42",
"h  c #49625D",
"j  c #526055",
"k  c #53655A",
"l  c #5A675D",
"z  c #5D695F",
"x  c #57735E",
"c  c #647E4D",
"v  c #415E60",
"b  c #575D60",
"n  c #436163",
"m  c #486767",
"M  c #4D6A66",
"N  c #476769",
"B  c #49696B",
"V  c #526365",
"C  c #5E6A60",
"Z  c #5D7A63",
"A  c #5D7C68",
"S  c #547475",
"D  c #587776",
"F  c #597978",
"G  c #597A7C",
"H  c #636B69",
"J  c #647067",
"K  c #6A7274",
"L  c #707476",
"P  c #727977",
"I  c #618245",
"U  c #698D47",
"Y  c #698C48",
"T  c #718E4F",
"R  c #6E914A",
"E  c #72954D",
"W  c #759A4C",
"Q  c #7A9F4E",
"!  c #618258",
"~  c #67895B",
"^  c #6A8C5A",
"/  c #708C55",
"(  c #6D905F",
")  c #769758",
"_  c #7A9C5C",
"`  c #7AA04E",
"'  c #7CA254",
"]  c #7DA25C",
"[  c #64846B",
"{  c #779B64",
"}  c #779B68",
"|  c #7B9E6C",
" . c #628271",
".. c #6D8E76",
"X. c #64867F",
"o. c #67897A",
"O. c #6C8D7B",
"+. c #7D867F",
"@. c #6F907C",
"#. c #779A77",
"$. c #799C73",
"%. c #74967C",
"&. c #76987C",
"*. c #7DA263",
"=. c #7CA069",
"-. c #7EA177",
";. c #83A74F",
":. c #82A754",
">. c #82A851",
",. c #81A659",
"<. c #87AC5C",
"1. c #88AC58",
"2. c #8CB157",
"3. c #8CB259",
"4. c #92B75D",
"5. c #94BA5E",
"6. c #87A864",
"7. c #96B667",
"8. c #96BB60",
"9. c #9ABF62",
"0. c #86A877",
"q. c #8DAD77",
"w. c #89A978",
"e. c #91B177",
"r. c #9BC063",
"t. c #ADCF65",
"y. c #A1C76E",
"u. c #A1C86E",
"i. c #AFD36F",
"p. c #B6D96D",
"a. c #A7CF75",
"s. c #A8CF74",
"d. c #ACD172",
"f. c #B5D874",
"g. c #C1DF69",
"h. c #C1E069",
"j. c #C2E175",
"k. c #C3E27C",
"l. c #5E7F81",
"z. c #797E80",
"x. c #5F8183",
"c. c #618383",
"v. c #6A8C80",
"b. c #7D8182",
"n. c #818983",
"m. c #838789",
"M. c #868B8A",
"N. c #8A8D8F",
"B. c #859494",
"V. c #939F9F",
"C. c #9A9F9B",
"Z. c #92B186",
"A. c #91B097",
"S. c #9DA0A1",
"D. c #A4AAAB",
"F. c #ABAEAC",
"G. c #A9B5AB",
"H. c #ADB3B2",
"J. c #B1B4B3",
"K. c #B5BBBC",
"L. c #B8BDB9",
"P. c #A3C3A9",
"I. c #C7E793",
"U. c #C8E793",
"Y. c #CEEDAE",
"T. c #BBC2C2",
"R. c #C4C8C6",
"E. c #C9CBCB",
"W. c #CFD1CF",
"Q. c #CFD1D1",
"!. c #D2D4D4",
"~. c #D5D8D8",
"^. c #D9DBDA",
"/. c #D5F3D7",
"(. c #D5F4DA",
"). c #D9F7DC",
"_. c #DEE1E1",
"`. c #E4E5E5",
"'. c #E4E8E8",
"]. c #EBECEC",
"[. c #F2F3F3",
"{. c #F5F8F7",
"}. c #00818A",
/* pixels */
"}.}.}.}.}.}.}.}.}.}.}.}.}.}.}.}.}.}.}.}.}.}.}.}.}.}.}.}.}.}.}.}.}.}.}.}.}.}.}.}.}.}.}.}.}.}.}.}.}.}.}.}.}.}.}.}.}.}.}.}.}.}.}.}.}.",
"}.}.}.}.}.}.}.}.}.}.}.}.}.}.}.}.}.}.}.}.}.}.}.}.}.}.}.}.}.}.}.}.}.}.}.}.}.}.}.}.}.}.}.}.}.}.}.}.}.}.}.}.}.}.}.}.}.}.}.}.}.}.}.}.}.",
"}.}.}.}.}.}.}.}.}.}.}.}.}.}.}.}.}.}.}.}.}.}.}.}.}.}.}.}.}.}.}.}.}.}.}.}.}.}.}.}.}.}.}.}.}.}.}.}.}.}.}.}.}.}.}.}.}.}.}.}.}.}.}.}.}.",
"}.}.}.}.}.}.}.}.}.}.}.}.}.}.}.}.}.}.}.}.}.}.}.}.}.}.}.}.}.}.}.}.}.}.}.}.}.}.}.}.}.}.}.}.}.}.}.}.}.}.}.}.}.}.}.}.}.}.}.}.}.}.}.}.}.",
"}.}.}.}.}.}.}.}.}.}.}.}.}.}.}.}.}.}.}.}.}.}.}.}.}.}.}.}.n n n 9 > > > > > > > }.}.}.}.}.}.}.}.}.}.}.}.}.}.}.}.}.}.}.}.}.}.}.}.}.}.",
"}.}.}.}.}.}.}.}.}.}.}.}.}.}.}.}.}.}.}.}.}.}.}.}.}.}.}.}.n n n 9 > > > > > > > }.}.}.}.}.}.}.}.}.}.}.}.}.}.}.}.}.}.}.}.}.}.}.}.}.}.",
"}.}.}.}.}.}.}.}.}.}.}.}.}.}.}.}.}.}.}.}.}.}.}.}.}.}.}.}.n n n 9 > > > > > > > }.}.}.}.}.}.}.}.}.}.}.}.}.}.}.}.}.}.}.}.}.}.}.}.}.}.",
"}.}.}.}.}.}.}.}.}.}.}.}.}.}.}.}.}.}.}.}.}.}.}.}.}.}.}.}.B B N e 6 , , > > > > }.}.}.}.}.}.}.}.}.}.}.}.}.}.}.}.}.}.}.}.}.}.}.}.}.}.",
"}.}.}.}.}.}.}.}.}.}.}.}.}.}.}.}.}.}.}.n n n n n n n n G x.x.c.x.x.x.x.x.x.x.l.}.}.}.}.}.}.}.}.}.}.}.}.}.}.}.}.}.}.}.}.}.}.}.}.}.}.",
"}.}.}.}.}.}.}.}.}.}.}.}.}.}.}.}.}.}.}.n n n n n n n n G x.x.c.x.x.x.x.c.x.x.c.D > > > > > > > }.}.}.}.}.}.}.}.}.}.}.}.}.}.}.}.}.}.",
"}.}.}.}.}.}.}.}.}.}.}.}.}.}.}.}.}.}.}.n n n n n n n n G x.x.x.x.x.x.x.c.x.x.x.D > > > > > > > }.}.}.}.}.}.}.}.}.}.}.}.}.}.}.}.}.}.",
"}.}.}.}.}.}.}.}.}.}.}.}.}.}.}.}.}.}.}.n n n n n n n n G c.c.c.x.c.c.x.x.x.x.x.D > > > > > > > }.}.}.}.}.}.}.}.}.}.}.}.}.}.}.}.}.}.",
"}.}.}.}.}.}.}.}.}.}.}.}.}.}.}.n n n B x.l.l.G ..@.....%.%.%.%.@.@.@.@.O.v.v.v.o.Z x x k 6 6 6 k !.!.^.}.}.}.}.}.}.}.}.}.}.}.}.}.}.",
"}.}.}.}.}.}.}.}.}.}.}.}.}.}.}.n n n B x.c.c.x.%.%.%.%.%.%.%.%.%.%.%.%.%.%.%.%.%.%.%.%...t t t e > > > }.}.}.}.}.}.}.}.}.}.}.}.}.}.",
"}.}.}.}.}.}.}.}.}.}.}.}.}.}.}.n n n B x.x.x.x.%.%.%.%.%.%.%.%.%.%.%.%.%.%.%.%.%.%.%.%...t t t e > > > }.}.}.}.}.}.}.}.}.}.}.}.}.}.",
"}.}.}.}.}.}.}.}.}.}.}.}.}.}.}.n n n B x.c.x.x.%.%.&.%.%.&.%.%.%.%.&.%.%.&.&.%.&.%.%.%...t t t e > > > }.}.}.}.}.}.}.}.}.}.}.}.}.}.",
"}.}.}.}.}.}.}.}.}.}.}.}.}.}.}.S S S D O.v.v.v.P.P.P.G.Z.e.q.q.0.-.-.-.$.#.#.#.&.&.&.%...t t t e > > > }.}.}.}.}.}.}.}.}.}.}.}.}.}.",
"}.}.}.}.}.}.}.}.}.}.}.> > > M x.c.x.c.%.%.%.%.(.).).).U.h.h.h.t.r.r.9.4.>.>.>.] &.%.%.%.&.%.%.%.e e e e j z J +.}.}.}.}.}.}.}.}.}.",
"}.}.}.}.}.}.}.}.}.}.}.> > > M c.c.x.c.%.%.%.%.(.).).).U.h.h.h.t.r.r.9.4.>.>.>.] &.%.%.%.&.%.&.%.t t t e > > > z }.}.}.}.}.}.}.}.}.",
"}.}.}.}.}.}.}.}.}.}.}.> > > M c.c.c.c.%.%.%.%.(.).).).I.h.h.h.t.r.9.9.4.>.>.>.] &.%.%.%.%.%.%.%.t t t e > > > z }.}.}.}.}.}.}.}.}.",
"}.}.}.}.}.}.}.}.}.}.}.> > > M x.x.x.c.%.%.%.%./.).).).U.h.h.g.t.r.9.9.4.>.>.>.] &.%.&.&.&.%.%.%.e e e e > > > z }.}.}.}.}.}.}.}.}.",
"}.}.}.}.}.}.}.}.}.}.}.> > > Z &.&.&.A.).).(./.k.j.k.k.f.d.d.d.,.s s d c R R E E ] ] *.*.&.%.%.%. . . .A * * * l }.}.}.}.}.}.}.}.}.",
"}.}.}.}.}.}.}.}.}.}.}.> > > Z %.%.%.A.).).).).j.g.h.g.d.s.s.d._ > > > 3 Y Y Y R >.>.>.,.&.%.%.%.&.%.&.%.+ + + p }.}.}.}.}.}.}.}.}.",
"}.}.}.}.}.}.}.}.}.}.}.> > > Z %.%.%.A.).).).).j.h.h.h.i.s.s.s.) > > > 3 Y Y Y R >.>.>.,.&.%.%.%.%.%.%.%.+ + + p }.}.}.}.}.}.}.}.}.",
"}.}.}.}.}.}.}.}.}.}.}.> > > Z %.&.%.A.).).).).j.h.h.h.d.s.s.a.) > > > 3 U Y Y R >.>.>.,.%.%.%.%.%.%.%.%.+ + + p }.}.}.}.}.}.}.}.}.",
"}.}.}.}.}.}.}.}.}.}.}.w w w A %.%.%.Z.Y.Y.Y.Y.f.p.p.p.7.6.6.6.c % % % < g g g I Q ` ` ' $.$.$.$.%.%.%.%.- - - p _.`.`.}.}.}.}.}.}.",
"}.}.}.}.}.}.> > > > i n n n  .%.%.%.w.g.h.h.h.s.s.s.s.c > > > $ .     # > > > 1 U Y Y R >.>.>.:.%.%.%.%.n n n t + + + }.}.}.}.}.}.",
"}.}.}.}.}.}.> > > > i n n n  .%.%.%.w.g.g.h.h.s.s.s.s.c > > > $ . . . # > > > 1 U Y Y R >.>.>.,.%.%.%.%.n n n t + + + }.}.}.}.}.}.",
"}.}.}.}.}.}.> > > > i n n n  .%.%.%.w.g.h.h.h.s.s.s.s.c > > > $ . .   # > > > 1 U Y Y R >.>.>.,.&.%.%.%.n n n t + + + }.}.}.}.}.}.",
"}.}.}.}.}.}.> > > > i n n n  .&.&.&.w.g.h.h.h.d.s.s.s.c > > > $ . . . # > > > 1 Y Y Y R >.>.>.,.%.&.%.%.n n n i + + + }.}.}.}.}.}.",
"}.}.}.}.}.}.> > > > i n n n ^ >.:.:.>.:.>.:.;.9.r.9.9.f > > > $ . . . # > > > 1 Y Y Y R >.>.>.,.%.&.%.%.n n n i + + + }.}.}.}.}.}.",
"}.}.}.}.}.}.> > > > i n n n ^ >.>.>.>.>.>.>.>.9.9.r.9.f > > > $ . . . # > > > 1 Y Y Y R >.>.>.:.%.%.%.%.n n n t + + + }.}.}.}.}.}.",
"}.}.}.}.}.}.> > > > i n n n ^ >.>.>.>.>.>.>.>.9.r.r.9.f > > > $ .   . # > > > 1 Y Y Y R >.>.>.,.&.%.%.%.n n n v + + + }.}.}.}.}.}.",
"}.}.}.}.}.}.> > > > i n n n ^ >.>.>.>.:.>.>.>.9.9.9.9.f > > > $ . .   # > > > 1 Y Y Y R >.>.>.,.%.%.%.%.n n n v + + + }.}.}.}.}.}.",
"}.}.}.}.}.}.> > > > i n n n [ =.| =.*.>.>.>.>.1.1.1.:.s > > > $ . .   # > > > a 1.1.1.1.>.>.>.:.*.*.*.} n n n t + + + }.}.}.}.}.}.",
"}.}.}.}.}.}.> > > > i n n n  .&.%.%.#.>.>.>.>.U Y Y Y 1 > > > $ . . . # > > > d 9.r.r.8.>.>.>.>.>.>.>.' n n n t + + + }.}.}.}.}.}.",
"}.}.}.}.}.}.> > > > i n n n  .&.%.%.#.>.>.>.>.U Y Y Y 2 > > > $ .     # > > > d r.9.9.5.>.>.>.>.:.>.:.' n n n t + + + }.}.}.}.}.}.",
"}.}.}.}.}.}.> > > > i n n n  .&.&.%.#.>.>.>.>.Y Y Y Y 1 > > > $ .   . # > > > d 9.r.r.8.>.>.>.>.>.>.>.' n n n i + + + }.}.}.}.}.}.",
"}.}.}.}.}.}.> > > > i n n n  .%.%.%.#.:.:.:.:.U U U U 3 , < < ; X o o : a a a c 8.8.5.4.] ] ] ] ] ] ] _ r r r i m.M.M.}.}.}.}.}.}.",
"}.}.}.}.}.}.}.}.}.}.}.> > > M c.x.x.X.&.&.&.&.:.>.>.>.8.r.r.r./ > > > / a.s.s.y.>.>.>.] x.x.x.c.%.&.&.%.+ + + p }.}.}.}.}.}.}.}.}.",
"}.}.}.}.}.}.}.}.}.}.}.> > > M x.x.x.c.%.%.%.&.:.:.>.>.5.r.r.r.T > > > / s.s.s.y.>.>.>.] x.x.x.c.%.%.%.%.+ + + p }.}.}.}.}.}.}.}.}.",
"}.}.}.}.}.}.}.}.}.}.}.> > > M c.c.c.c.%.%.%.&.:.>.>.>.5.9.9.r.T > > > / s.s.s.u.>.>.>.] x.c.x.c.%.%.%.%.+ + + p }.}.}.}.}.}.}.}.}.",
"}.}.}.}.}.}.}.}.}.}.}.> > > M x.c.x.c.%.%.&.&.:.>.>.>.5.9.r.9.T > > > / s.s.s.y.>.>.>.] x.x.x.c.%.&.%.%.+ + + p }.}.}.}.}.}.}.}.}.",
"}.}.}.}.}.}.}.}.}.}.}.> > > h S S S D O.O.v.O.| | | | <.2.3.3.E g g g E 3.3.3.6.o.o.o...] ] ] _ m m m n + + + p }.}.}.}.}.}.}.}.}.",
"}.}.}.}.}.}.}.}.}.}.}.> > > w n n n B x.x.x.x.%.%.%.%.*.>.>.>.W Y Y Y E >.>.>.] x.x.x.o.>.>.>.' n n n v + + + p }.}.}.}.}.}.}.}.}.",
"}.}.}.}.}.}.}.}.}.}.}.> > > w n n n B x.x.x.x.%.%.%.%.*.>.>.>.W Y Y Y E >.>.>.] x.x.x.o.>.>.>.' n n n v + + + p }.}.}.}.}.}.}.}.}.",
"}.}.}.}.}.}.}.}.}.}.}.> > > w n n n B x.x.c.x.v.%.&.%.*.>.>.>.W U U Y E >.>.>.] c.c.x.o.>.>.>.' n n n v + + + p }.}.}.}.}.}.}.}.}.",
"}.}.}.}.}.}.}.}.}.}.}.> > > w n n n B x.x.x.l.%.%.%.%.} ] ] ] ) ~ ~ ~ ( { { { } v.v.v.o.^ ^ ~ ! 8 7 8 u E.E.E.Q.}.}.}.}.}.}.}.}.}.",
"}.}.}.}.}.}.}.}.}.}.}.}.}.}.}.@ + + - n n n n l.x.x.x.x.x.x.x.x.x.x.x.x.x.x.x.c.%.%.%...n n n t + + + y }.}.}.}.}.}.}.}.}.}.}.}.}.",
"}.}.}.}.}.}.}.}.}.}.}.}.}.}.}.+ + + - n n n n l.c.c.x.x.x.c.c.c.x.x.x.x.x.x.c.c.%.%.&.@.n n n t + + + y }.}.}.}.}.}.}.}.}.}.}.}.}.",
"}.}.}.}.}.}.}.}.}.}.}.}.}.}.}.+ + + - n n n n x.c.c.c.c.c.x.c.x.x.c.c.c.c.x.x.c.&.%.%.@.n n n t + + + y }.}.}.}.}.}.}.}.}.}.}.}.}.",
"}.}.}.}.}.}.}.}.}.}.}.}.}.}.}.+ + + - n n n n l.x.x.x.x.x.x.x.x.x.x.x.c.x.x.x.c.&.%.%...v i t i K P z.N.}.}.}.}.}.}.}.}.}.}.}.}.}.",
"}.}.}.}.}.}.}.}.}.}.}.}.}.}.}.}.}.}.}.8 7 7 7 r r w 0 n B B B B B N N n n n n t + O O + + + + }.}.}.}.}.}.}.}.}.}.}.}.}.}.}.}.}.}.",
"}.}.}.}.}.}.}.}.}.}.}.}.}.}.}.}.}.}.}.+ + + + + + + + r n n n n n n n n n n n t + + + + + + + }.}.}.}.}.}.}.}.}.}.}.}.}.}.}.}.}.}.",
"}.}.}.}.}.}.}.}.}.}.}.}.}.}.}.}.}.}.}.+ + + + + + + + r n n n n n n n n n n n e + + + + + + + }.}.}.}.}.}.}.}.}.}.}.}.}.}.}.}.}.}.",
"}.}.}.}.}.}.}.}.}.}.}.}.}.}.}.}.}.}.}.+ + + + + + + + r n n n n n n n n n n n e + + + + + + + }.}.}.}.}.}.}.}.}.}.}.}.}.}.}.}.}.}.",
"}.}.}.}.}.}.}.}.}.}.}.}.}.}.}.}.}.}.}.= 5 y p H L b.b.V r q q q q 0 0 8 8 8 8 }.}.}.}.}.}.}.}.}.}.}.}.}.}.}.}.}.}.}.}.}.}.}.}.}.}.",
"}.}.}.}.}.}.}.}.}.}.}.}.}.}.}.}.}.}.}.}.}.}.}.}.}.}.}.}.+ + + + + + + + + + + }.}.}.}.}.}.}.}.}.}.}.}.}.}.}.}.}.}.}.}.}.}.}.}.}.}.",
"}.}.}.}.}.}.}.}.}.}.}.}.}.}.}.}.}.}.}.}.}.}.}.}.}.}.}.}.+ + + + + + + + + + + }.}.}.}.}.}.}.}.}.}.}.}.}.}.}.}.}.}.}.}.}.}.}.}.}.}.",
"}.}.}.}.}.}.}.}.}.}.}.}.}.}.}.}.}.}.}.}.}.}.}.}.}.}.}.}.+ + + + + + + + + + + }.}.}.}.}.}.}.}.}.}.}.}.}.}.}.}.}.}.}.}.}.}.}.}.}.}.",
"}.}.}.}.}.}.}.}.}.}.}.}.}.}.}.}.}.}.}.}.}.}.}.}.}.}.}.}.+ + + O O O & 4 y b H }.}.}.}.}.}.}.}.}.}.}.}.}.}.}.}.}.}.}.}.}.}.}.}.}.}.",
"}.}.}.}.}.}.}.}.}.}.}.}.}.}.}.}.}.}.}.}.}.}.}.}.}.}.}.}.}.}.}.}.}.}.}.}.}.}.}.}.}.}.}.}.}.}.}.}.}.}.}.}.}.}.}.}.}.}.}.}.}.}.}.}.}.",
"}.}.}.}.}.}.}.}.}.}.}.}.}.}.}.}.}.}.}.}.}.}.}.}.}.}.}.}.}.}.}.}.}.}.}.}.}.}.}.}.}.}.}.}.}.}.}.}.}.}.}.}.}.}.}.}.}.}.}.}.}.}.}.}.}.",
"}.}.}.}.}.}.}.}.}.}.}.}.}.}.}.}.}.}.}.}.}.}.}.}.}.}.}.}.}.}.}.}.}.}.}.}.}.}.}.}.}.}.}.}.}.}.}.}.}.}.}.}.}.}.}.}.}.}.}.}.}.}.}.}.}.",
"}.}.}.}.}.}.}.}.}.}.}.}.}.}.}.}.}.}.}.}.}.}.}.}.}.}.}.}.}.}.}.}.}.}.}.}.}.}.}.}.}.}.}.}.}.}.}.}.}.}.}.}.}.}.}.}.}.}.}.}.}.}.}.}.}."
};
