/* XPM */
static char *_5493a5c12dc4a53cdf5048415fc7718djyjFl5FIUP1Ns7N[] = {
/* columns rows colors chars-per-pixel */
"65 65 225 2 ",
"   c #020202",
".  c #0B0B0B",
"X  c #151515",
"o  c #292929",
"O  c #363A30",
"+  c #6F0500",
"@  c #740200",
"#  c #7C0200",
"$  c #691801",
"%  c #682500",
"&  c #7A2500",
"*  c #6D3700",
"=  c #7C3A02",
"-  c #1D4239",
";  c #3A492A",
":  c #364C36",
">  c #345332",
",  c #395439",
"<  c #565907",
"1  c #4D4D17",
"2  c #4C5418",
"3  c #575E1C",
"4  c #6C4B00",
"5  c #794800",
"6  c #6A5B00",
"7  c #7C5903",
"8  c #66561A",
"9  c #775A18",
"0  c #586616",
"q  c #577116",
"w  c #636300",
"e  c #6C6C01",
"r  c #66690B",
"t  c #696B08",
"y  c #747501",
"u  c #7C7C01",
"i  c #707508",
"p  c #777B09",
"a  c #676916",
"s  c #677817",
"d  c #454E24",
"f  c #45582A",
"g  c #57522C",
"h  c #445938",
"j  c #575534",
"k  c #66582A",
"l  c #6C5B2D",
"z  c #4C6325",
"x  c #597123",
"c  c #496537",
"v  c #7A6327",
"b  c #627C20",
"n  c #164F51",
"m  c #175353",
"M  c #1A5455",
"N  c #145559",
"B  c #145A5E",
"V  c #1B5B5B",
"C  c #254D47",
"Z  c #2A5448",
"A  c #365647",
"S  c #265652",
"D  c #235B5B",
"F  c #355B53",
"G  c #24605F",
"H  c #0D5B62",
"J  c #085F68",
"K  c #125D62",
"L  c #0E6167",
"P  c #06646D",
"I  c #0C656C",
"U  c #156267",
"Y  c #046771",
"T  c #046B75",
"R  c #0A6B74",
"E  c #026E79",
"W  c #01727D",
"Q  c #454544",
"!  c #475846",
"~  c #535B42",
"^  c gray34",
"/  c #69694C",
"(  c #7A7A6D",
")  c #820600",
"_  c #8B0200",
"`  c #940200",
"'  c #990000",
"]  c #910B00",
"[  c #881800",
"{  c #832500",
"}  c #885A01",
"|  c #925B00",
" . c #896202",
".. c #936302",
"X. c #9C6601",
"o. c #966800",
"O. c #9A6900",
"+. c #927013",
"@. c #A96500",
"#. c #A46A01",
"$. c #AC6D01",
"%. c #B56C00",
"&. c #AC7701",
"*. c #B57301",
"=. c #BC7300",
"-. c #B77904",
";. c #A87619",
":. c #B07A15",
">. c #856722",
",. c #967020",
"<. c #A27620",
"1. c #C27400",
"2. c #C87700",
"3. c #C47A01",
"4. c #CC7B00",
"5. c #D47F00",
"6. c #6C8503",
"7. c #718400",
"8. c #7C8300",
"9. c #728C01",
"0. c #749402",
"q. c #799D01",
"w. c #6A841F",
"e. c #79971B",
"r. c #7EA401",
"t. c #739020",
"y. c #838300",
"u. c #838F00",
"i. c #8B8B00",
"p. c #92890B",
"a. c #869600",
"s. c #949400",
"d. c #999901",
"f. c #989A00",
"g. c #9D9D0C",
"h. c #869819",
"j. c #9E9E13",
"k. c #999A19",
"l. c #B78C00",
"z. c #AC9100",
"x. c #A59809",
"c. c #BB8014",
"v. c #83AC00",
"b. c #88A801",
"n. c #99A301",
"m. c #98A405",
"M. c #99AC01",
"N. c #86B101",
"B. c #8AB500",
"V. c #8DBA00",
"C. c #8DB20B",
"Z. c #99B300",
"A. c #93BD00",
"S. c #99BB01",
"D. c #87A818",
"F. c #94B919",
"G. c #A0A015",
"H. c #A2A21C",
"J. c #A0AB19",
"K. c #A0B613",
"L. c #8F8F2B",
"P. c #A5A523",
"I. c #A8A827",
"U. c #AAAA2C",
"Y. c #A7A835",
"T. c #ADAD33",
"R. c #C78401",
"E. c #D48101",
"W. c #DC8400",
"Q. c #DA8B00",
"!. c #DC910D",
"~. c #C48514",
"^. c #D58B17",
"/. c #E28700",
"(. c #E58A00",
"). c #EB8D00",
"_. c #EC9000",
"`. c #F49300",
"'. c #FA9600",
"]. c #FF9900",
"[. c #FF9D0C",
"{. c #E89718",
"}. c #FB9E12",
"|. c #F49E19",
" X c #FFA115",
".X c #FDA218",
"XX c #94C400",
"oX c #99C400",
"OX c #97C800",
"+X c #99CC00",
"@X c #9BC10D",
"#X c #9DCE0C",
"$X c #9BC712",
"%X c #9FCE12",
"&X c #9AC318",
"*X c #9EC919",
"=X c #A9C100",
"-X c #A0CE15",
";X c #A1CE19",
":X c #A1D016",
">X c #A3D119",
",X c #959547",
"<X c #99995A",
"1X c #AEAF4B",
"2X c #AAB843",
"3X c #A8AE54",
"4X c #B4B55B",
"5X c #9E9E60",
"6X c #00818A",
"7X c #8E8E8E",
"8X c #91918C",
"9X c #B3B389",
"0X c #AAAAAA",
"qX c #B5B5B5",
"wX c #C8C892",
"eX c #D5D5A8",
"rX c #D9D9C5",
"tX c #D0D0CB",
"yX c #E6E6CA",
"uX c #EEEEDD",
"iX c #F0F0DE",
"pX c #E6E6E6",
"aX c #F6F6ED",
"sX c #F6F6F3",
"dX c #FEFEFE",
/* pixels */
"6X6X6X6X6X6X6X6X6X6X6X6X6X6X6X6X6X6X6X6X6X6X6X6X6X6X6X6X6X6X6X6X6X6X6X6X6X6X6X6X6X6X6X6X6X6X6X6X6X6X6X6X6X6X6X6X6X6X6X6X6X6X6X6X6X",
"6X6X6X6X6X6X6X6X6X6X6X6X6X6X6X6X6X6X6X6X6X6X6X6X6X6X6X6X6X6X6X6X6X6X6X6X6X6X6X6X6X6X6X6X6X6X6X6X6X6X6X6X6X6X6X6X6X6X6X6X6X6X6X6X6X",
"6X6X6X6X6X6X6X6X6X6X6X6X6X6X6X6X6X6X6X6X6X6X6X6X6X6X6X6X6X6X6X6X6X6X6X6X6X6X6X6X6X6X6X6X6X6X6X6X6X6X6X6X6X6X6X6X6X6X6X6X6X6X6X6X6X",
"6X6X6X6X6X6X6X6X6X6X6X6X6X6X6X6X6X6X6X6X6X6X6X6X6X6X6X6X6X6X6X6X6X6X6X6X6X6X6X6X6X6X6X6X6X6X6X6X6X6X6X6X6X6X6X6X6X6X6X6X6X6X6X6X6X",
"6X6X6X6X6X6X6X6X6X6X6X6X6X6X6X6X6X6X6X6X6X6X6X6X6X6X6X6X6X6X6X6X6X6X6X6X6X6X6X6X6X6X6X6X6X6X6X6X6X6X6X6X6X6X6X6X6X6X6X6X6X6X6X6X6X",
"6X6X6X6X6X6X6X6X6X6X6X6X6X6X6X6X6X6X6X6X6X6X6X6X6X6X6X6X6X6X6X6X6X6X6X6X6X6X6X6X6X6X6X6X6X6X6X6X6X6X6X6X6X6X6X6X6X6X6X6X6X6X6X6X6X",
"6X6X6X6X6X6X6X6X6X6X6X6X6X6X6X6X6X6X6X6X6X6X6X6X6X6X6X6X6X6X6X6X6X6X6X6X6X6X6X6X6X6X6X6X6X6X6X6X6X6X6X6X6X6X6X6X6X6X6X6X6X6X6X6X6X",
"6X6X6X6X6X6X6X6X6X6X6X6X6X6X6X6X6X6X6X6X6X6X6X6X6X6X6X6X6X6X6X6X6X6X6X6X6X6X6X6X6X6X6X6X6X6X6X6X6X6X6X6X6X6X6X6X6X6X6X6X6X6X6X6X6X",
"6X6X6X6X6X6X6X6X6X6X6X6X6X6X6X6X6X6X6X6X6X6X6X6X6X6X6X6X6X6X6X6X6X6X6X6X6X6X6X6X6X6X6X6X6X6X6X6X6X6X6X6X6X6X6X6X6X6X6X6X6X6X6X6X6X",
"6X6X6X6X6X6X6X6X6X6X6X6X6X6X6X6X6X6X6X6X6X6X6X6X6X6X6X6X6X6X6X6X6X6X6X6X6X6X6X6X6X6X6X6X6X6X6X6X6X6X6X6X6X6X6X6X6X6X6X6X6X6X6X6X6X",
"6X6X6X6X6X6X6X6X6X6X6X6X6X6X6X6X6X6X6X6X6X6X6X6X6X6X6X6X6X6X6X6X6X6X6X6X6X6X6X6X6X6X6X6X6X6X6X6X6X6X6X6X6X6X6X6X6X6X6X6X6X6X6X6X6X",
"6X6X6X6X6X6X6X6X6X6X6X6X6X6X6X6X6X6X6X6X6X6X6X6X6X6X6X6X6X6X6X6X6X6X6X6X6X6X6X6X6X6X6X6X6X6X6X6X6X6X6X6X6X6X6X6X6X6X6X6X6X6X6X6X6X",
"6X6X6X6X6X6X6X6X6X6X6X6X6X6X6X6X6X6X6X6X6X6X6X6X6X6X6X6X6X6X6X6X6X6X6X6X6X6X6X6X6X6X6X6X6X6X6X6X6X6X6X6X6X6X6X6X6X6X6X6X6X6X6X6X6X",
"6X6X6X6X6X6X6X6X6X6X6X6X6X6X6X6X6X6X6X6X6X6X6X6X6X6X6X6X6X6X6X6X6X6X6X6X6X6X6X6X6X6X6X6X6X6X6X6X6X6X6X6X6X6X6X6X6X6X6X6X6X6X6X6X6X",
"6X6X6X6X6X6X6X6X6X6X6X6X6X6X6X6X6X6X6X6X6X6X6X6X6X6X6X6X6X6X6X6X6X6X6X6X6X6X6X6X6X6X6X6X6X6X6X6X6X6X6X6X6X6X6X6X6X6X6X6X6X6X6X6X6X",
"6X6X6X6X6X6X6X6X6X6X6X6X6X6X6X6X6X6X6X6X6X6X6X6X6X6X6X6X6X6X6X6X6X6X6X6X6X6X6X6X6X6X6X6X6X6X6X6X6X6X6X6X6X6X6X6X6X6X6X6X6X6X6X6X6X",
"6X6X6X6X6X6X6X6X6X6X6X6X6X6X6X6X6X6X6X6X6X6X6X6X6X6X6X6X6X6X6X6X6X6X6X6X6X6X6X6X6X6X6X6X6X6X6X6X6X6X6X6X6X6X6X6X6X6X6X6X6X6X6X6X6X",
"6X6X6X6X6X6X6X6X6X6X6X6X6X6X6X6X6X6X6X6X6X6X6X6X6X6X6X6X6X6X6X6X6X6X6X6X6X6X6X6X6X6X6X6X6X6X6X6X6X6X6X6X6X6X6X6X6X6X6X6X6X6X6X6X6X",
"6X6X6X6X6X6X6X6X6X6X6X6X6X6X6X6X6X6X6X6X6X6X6X6X6X6X6X6X6X6X6X6X6X6X6X6X6X6X6X6X6X6X6X6X6X6X6X6X6X6X6X6X6X6X6X6X6X6X6X6X6X6X6X6X6X",
"6X6X6X6X6X6X6X6X6X6X6X6X6X6X6X6X6X6X6X6X6X6X6X6X6X6X6X6X6X6X6X6X6X6X6X6X6X6X6X6X6X6X6X6X6X6X6X6X6X6X6X6X6X6X6X6X6X6X6X6X6X6X6X6X6X",
"6X6X6X6X6X6X6X6X6X6X6X6X6X6X6X6X6X6X6X6X6X6X6X6X6X6X6X6X6X6X6X6X6X6X6X6X6X6X6X6X6X6X6X6X6X6X6X6X6X6X6X6X6X6X6X6X6X6X6X6X6X6X6X6X6X",
"6XC ; > : B Y 6X6X6X6X6X6X6X6X6X6X6X6X6X6X6X6X6X6X6X6X6X6X6X6X6X6X6X6X6X6X6X6X6X6X6X6X6X6X6X6X6X6X6X6X6X6X6X6X6X6X6X6X6X6X6X6X6X6X",
"6X: v.XXV.q.q : P 6X6X6X6XE d y.i.i.s.H.T.T.T.T.T.g.d.d.n.oX+X+X+Xb.u i.1XaXdXdXdXdXdXdXaXrX9X,Xk.S.+X+X+X+X+X+X+X#XF.h.h.*XD.B 6X",
"6XY z B.+X+XOXa.r : E 6X6XM e i.i.i.d.H.T.T.T.T.P.d.d.d.Z.+X+X+X+Xu.u s.eXdXdXdXdXdXdXqX^ Q Q / ,XM.+X+X+X+X+X+X+X+X:X;X;X>XD.V 6X",
"6X6XY f B.+X+XZ.s.y.d T E d i.i.i.s.d.g.U.T.U.H.g.d.d.d.S.+X+X+XOX8.u j.yXdXdXdXdXdXtXo   . o o ( 2X+X+X+X+X+X+X+X+X:X>X>X>XD.V 6X",
"6X6X6XY 0 XX+XoXd.d.i.f n e i.i.i.s.d.d.g.g.g.d.d.d.d.d.oX+X+X+XOXu y.P.yXdXdXdXdXdX(   . 8XpXpX8X3X+X+X+X+X+X+X+X+X:X>X>X>XD.B 6X",
"6X6X6X6XN 0.+X+Xn.d.d.y.< y.i.i.i.s.g.g.g.g.g.d.d.d.d.d.oX+X+X+XOXu y.j.yXdXdXdXdXsX^   o tXdXdXtX3X+X+X+X+X+X+X+X+X:X>X>X>XD.B 6X",
"6X6X6X6XW f OX+XM.d.d.i.w i.i.i.i.d.P.U.T.U.P.g.d.d.d.d.S.+X+X+X+Xu.y.d.eXdXdXdXdXdX8X  X qXdXaXrX2X+X+X+X+X+X+X+X+X:X>X>X>Xe.P 6X",
"6X6X6X6X6XZ N.+XZ.d.s.u e i.i.i.i.j.T.T.T.T.T.P.d.d.d.d.S.+X+X+X+Xb.u s.4XaXdXdXdXdXpX^ . O 7X8XwXS.+X+X+X+X+X+X+X+X>X>X>X>Xw.T 6X",
"6X6X6X6X6XN r.+XS.d.s.u e i.i.i.i.P.T.T.T.T.T.I.d.d.d.d.M.+X+X+X+XoX8.i.g.eXdXdXdXdXdXpX0X0XqXrX2XoX+X+X+X+X+X+X+X#X>X>X>X;Xx 6X6X",
"6X6X6X6X6XL r.+XS.d.i.y y i.i.i.i.P.T.T.T.T.T.H.d.d.d.d.d.oX+X+X+X+XN.y.s.H.eXdXdXdXdXdXdXdXiX4XS.+X+X+X+X+X+X+X+X#X>X>X>XF.A 6X6X",
"6X6X6X6X6XK r.+XS.d.i.y y i.i.i.s.P.T.T.T.U.H.d.d.d.d.d.d.Z.+X+X+X+X+Xb.i.d.k.wXyXaXaXaXiXeX1XZ.+X+X+X+X+X+X+X+X+X%X>X>X>XD.K 6X6X",
"6X6X6X6X6XM v.+XS.d.i.u y i.i.i.i.g.P.P.P.g.d.d.d.d.d.d.d.n.oX+X+X+X+X+Xb.s.s.d.H.1X4X4XY.m.S.+X+X+X+X+X+XXXXX+X+X:X>X>X;Xb T 6X6X",
"6X6X6X6X6X, V.+XS.d.s.u y i.i.i.i.d.d.d.d.g.j.G.g.d.d.d.d.d.M.oX+X+X+X+X+XA.M.n.d.d.d.n.Z.oX+X+X+X+X+X+XV.r.y v.#X:X>X>X&XA 6X6X6X",
"6X6X6X6XE q OX+XZ.d.s.u e i.i.i.i.d.d.g.H.U.T.T.U.d.d.d.d.d.d.n.oX+X+X+X+X+X+X+X+X+X+XOXOXXXOX+X+X+X+XXXN.6 [ 5 C.>X>X>Xe.L 6X6X6X",
"6X6X6X6XL 0.+X+XM.d.s.r 2 i.i.i.i.s.d.P.T.T.T.T.U.g.d.d.d.d.d.d.n.S.+X+X+X+X+X+X+X+XOXV.7.6 y V.+X+XOXV.9.& ' ] p *X>X&Xz W 6X6X6X",
"6X6X6X6XA B.+X+Xn.g.h.A Z y.i.i.i.s.j.T.T.T.T.T.U.g.d.d.d.d.d.d.d.n.oX+X+X+X+X+X+XOXV.9.& ' [ e V.XXV.N.6 ] ' ' = D.&Xe.V 6X6X6X6X",
"6X6X6XY s +X+XS.G.k.h W B y i.i.i.i.H.T.T.T.T.T.U.d.d.d.d.d.d.d.d.d.M.+X+X+X+X+X+XXXv.4 ' ' ' [ e v.B.9.{ ' ' ' ] 1 z V 6XE F D 6X",
"6X6X6XZ N.+X#XK.k.h E 6XT 0 i.i.i.i.g.U.T.T.T.T.H.d.d.d.d.d.d.d.d.d.n.=XoXOXOXXXV.B.7.[ ' ' ' ' [ 6 e = ' _ ) ) ) C 6X6XW g ^.>.6X",
"6X6XE q OX#X-Xh.h E 6X6X6X, y.i.i.i.s.g.H.P.P.H.g.g.g.g.d.d.d.d.d.z.Q.Q. .6 e 0.q.9.= ' ` _ _ ` ' ` ] _ # * 5 % $ V 6X6XA E..X:.6X",
"6X6XI D.-X&Xt.F W 6X6X6X6XU t i.i.i.i.s.d.d.d.d.I.T.T.T.U.g.d.d.l.E.).(.5 ] ] & & [ ` ) % } * @ # ` _ @ * 3.Q.5 $ S 6XS -.[..X<.6X",
"6X6XT x w.c L 6X6X6X6X6X6X6X> y.i.i.i.s.d.d.d.G.T.T.T.T.T.H.d.z.E.E.`.`.3.5 ] ' ' ` # $ #./.*.% @ # @ % -.'.).X.% O , -.'. X.Xv 6X",
"6X6X6XT T 6X6X6X6X6X6X6X6X6XL r i.i.i.i.d.d.d.H.T.T.T.T.T.H.d.R.5.W.'.'.).4.| % # @ $ 5 _.'.W.| $ + $ | `.].`.W.$.*.Q.'.[..X{.! 6X",
"6X6X6X6X6X6X6X6X6X6X6X6X6X6X6X:  .i.i.i.s.d.d.P.T.T.T.T.U.g.z.E.5.(.].].].`.W.*.} } #.Q.].].`./.X.4 X._.].].].'.'.].].].}..Xc.L 6X",
"6X6X6X6X6X6X6X6X6X6X6X6X6X6X6XY 8 &.i.i.i.d.d.H.T.T.T.T.H.d.R.5.5.).].].].].'.`.`.].].].].].].].'.'.'.].].].].].].].].[. X|.l W 6X",
"6X6X6X6X6X6X6X6X6X6X6X6X6X6X6X6XV 7 *.&.p.s.d.g.U.U.U.j.d.l.E.5.5.(.].].].].].].].].].].].].].].].].].].].].].].].].].[..X~.D 6X6X",
"6X6X6X6X6X6X6X6X6X6X6X6X6X6X6X6X6XS ..=.=.-.l.z.x.x.x.z.R.E.5.5.5.W.].].].].].].].].].].].].].].].].].].].].].].].].[. X|.v W 6X6X",
"6X6X6X6X6X6X6X6X6X6X6X6X6XE V S S C 1 #.=.1.2.5.E.E.E.E.5.5.5.5.5.E.`.].].].].].].].].].].].].].].].].].].].].].].].}..X~.V 6X6X6X",
"6X6X6X6X6X6X6X6X6X6X6X6XW g $.-.*.$.#.} #.=.1.5.5.5.5.5.5.5.5.5.5.5.(.].].].].].].].].].].].].].].].].].].].].].].[..X{.j W 6X6X6X",
"6X6X6X6X6X6X6X6X6X6X6X6XI #.5.5.5.5.1.$.7 X.=.2.5.5.5.5.5.5.5.5.5.5.E.).].].].].].].].].].].].].].].].].].].].].[. X|.>.R 6X6X6X6X",
"6X6X6X6X6X6X6X6X6X6X6X6XL $.5.4.1.=.%.@.| 7 ..=.4.5.5.5.5.5.5.5.5.5.5.E.(.'.].].].].].].].].].].].].].].].].].[. X|.;.U 6X6X6X6X6X",
"6X6X6X6X6X6X6X6X6X6X6X6XT 9 5.5.4.5.4.=.@.%...7 =.5.5.5.5.5.5.5.5.5.5.5.5.E.).'.].].].].].].].].].].].].].].[. X|.;.D 6X6X6X6X6X6X",
"6X6X6X6X6X6X6X6X6X6X6X6X6Xh =.5.5.5.1.1.=.2...C g #.4.5.5.5.5.5.5.5.5.5.5.5.5.E.(.'.].].].].].].].].].[.[. X.X{.,.D 6X6X6X6X6X6X6X",
"6X6X6X6X6X6X6X6X6X6X6X6X6XI ..5.5.5.5.=.4.*.h 6XW D 9 *.4.5.5.5.5.5.5.5.5.5.5.5.5.W.`.].].].].].].[. X X.X.X^.l I 6X6X6X6X6X6X6X6X",
"6X6X6X6X6X6X6X6X6X6X6X6X6X6XA -.5.5.4.2.3.k T 6X6X6XT d  .$.2.5.5.5.5.5.5.5.5.5.5.5.W.'.].].[.[. X.X.X|.!.+.F W 6X6X6X6X6X6X6X6X6X",
"6X6X6X6X6X6X6X6X6X6X6X6X6X6XW k 3.5.5.2.9 I 6X6X6X6X6XV } .. .O.*.4.5.5.5.5.5.5.5.5.5.).[.[. X.X.X{.~.>.F T 6X6X6X6X6X6X6X6X6X6X6X",
"6X6X6X6X6X6X6X6X6X6X6X6X6X6X6XR 9 -.$.9 U 6X6X6X6X6X6XY } %.$.$.O...O.-.2.4.4.4.4.4.4.W.|.!.~.:.>.! U W 6X6X6X6X6X6X6X6X6X6X6X6X6X",
"6X6X6X6X6X6X6X6X6X6X6X6X6X6X6X6XI A S T 6X6X6X6X6X6X6XY X.2.1.5.E.5.-.#.o.o.o.o.o.o...8 ! F U Y W 6X6X6X6X6X6X6X6X6X6X6X6X6X6X6X6X",
"6X6X6X6X6X6X6X6X6X6X6X6X6X6X6X6X6X6X6X6X6X6X6X6X6X6X6XD *.5.W.'.`.).)./.E.E.E.5.5.4...V 6X6X6X6X6X6X6X6X6X6X6X6X6X6X6X6X6X6X6X6X6X",
"6X6X6X6X6X6X6X6X6X6X6X6X6X6X6X6X6X6X6X6X6X6X6X6X6X6XE v 4.5.W.'.].].].'.'.'.'.'.`.4.! 6X6X6X6X6X6X6X6X6X6X6X6X6X6X6X6X6X6X6X6X6X6X",
"6X6X6X6X6X6X6X6X6X6X6X6X6X6X6X6X6X6X6X6X6X6X6X6X6XW j 3.5.5.W.'.].].].].].].[.'.R.~ W 6X6X6X6X6X6X6X6X6X6X6X6X6X6X6X6X6X6X6X6X6X6X",
"6X6X6X6X6X6X6X6X6X6X6X6X6X6X6X6X6X6X6X6X6X6X6X6XW j 3.E.E.E.E.`.[.[.}. X X X{.;.F 6X6X6X6X6X6X6X6X6X6X6X6X6X6X6X6X6X6X6X6X6X6X6X6X",
"6X6X6X6X6X6X6X6X6X6X6X6X6X6X6X6X6X6X6X6X6X6X6X6XT +.^.^.^.^.^.{..X.X.X|.^.<.~ R 6X6X6X6X6X6X6X6X6X6X6X6X6X6X6X6X6X6X6X6X6X6X6X6X6X",
"6X6X6X6X6X6X6X6X6X6X6X6X6X6X6X6X6X6X6X6X6X6X6X6X6XF >.;.;.:.:.:.;.,.v ~ G T 6X6X6X6X6X6X6X6X6X6X6X6X6X6X6X6X6X6X6X6X6X6X6X6X6X6X6X",
"6X6X6X6X6X6X6X6X6X6X6X6X6X6X6X6X6X6X6X6X6X6X6X6X6X6X6X6X6X6X6X6X6X6X6X6X6X6X6X6X6X6X6X6X6X6X6X6X6X6X6X6X6X6X6X6X6X6X6X6X6X6X6X6X6X"
};
