/* XPM */
static char *_b6eb706584b461ca7fdd283f248d21cV0rKMhRHFI8mIj0e[] = {
/* columns rows colors chars-per-pixel */
"65 65 237 2 ",
"   c #0B111C",
".  c #19161B",
"X  c #1B161E",
"o  c #231A1C",
"O  c #33251D",
"+  c #0E1528",
"@  c #151624",
"#  c #1A1524",
"$  c #151925",
"%  c #1A1A24",
"&  c #11122A",
"*  c #15162A",
"=  c #1B162B",
"-  c #141A2B",
";  c #19192B",
":  c #161733",
">  c #1B1B31",
",  c #211B25",
"<  c #261B34",
"1  c #231D34",
"2  c #1C2A2D",
"3  c #1A2637",
"4  c #282428",
"5  c #352B2A",
"6  c #3C362C",
"7  c #282338",
"8  c #34263B",
"9  c #273236",
"0  c #3C3431",
"q  c #3B3A36",
"w  c #43332C",
"e  c #4C3A2E",
"r  c #543C2C",
"t  c #453734",
"y  c #453A34",
"u  c #4C3C34",
"i  c #443C3A",
"p  c #4C3D3A",
"a  c #523C33",
"s  c #553A39",
"d  c #48423A",
"f  c #4B413C",
"g  c #52433B",
"h  c #564438",
"j  c #2E1F43",
"k  c #1D2A45",
"l  c #1F344B",
"z  c #272845",
"x  c #382B46",
"c  c #263549",
"v  c #3B354B",
"b  c #273E54",
"n  c #3A3855",
"m  c #412A48",
"M  c #46354D",
"N  c #473A54",
"B  c #553C5C",
"V  c #623B5E",
"C  c #104D53",
"Z  c #0A555B",
"A  c #2D474A",
"S  c #374342",
"D  c #294357",
"F  c #37475C",
"G  c #3A5557",
"H  c #0D5A60",
"J  c #374C66",
"K  c #295C65",
"L  c #395967",
"P  c #3C5973",
"I  c #05646B",
"U  c #16646B",
"Y  c #026B73",
"T  c #096E76",
"R  c #136C73",
"E  c #02757D",
"W  c #0C7179",
"Q  c #27676E",
"!  c #31676C",
"~  c #3C6377",
"^  c #454144",
"/  c #4A4847",
"(  c #534641",
")  c #544A44",
"_  c #5A4B43",
"`  c #5C4E49",
"'  c #4F504E",
"]  c #5D524B",
"[  c #5B544A",
"{  c #47475A",
"}  c #544658",
"|  c #4B5658",
" . c #5B5553",
".. c #585958",
"X. c #67534A",
"o. c #66554A",
"O. c #63544C",
"+. c #655651",
"@. c #655C55",
"#. c #6C5D54",
"$. c #645C59",
"%. c #6A5E5A",
"&. c #725E53",
"*. c #5B6157",
"=. c #6A6257",
"-. c #6D635C",
";. c #726155",
":. c #73645B",
">. c #78675C",
",. c #7A695F",
"<. c #7A705F",
"1. c #494663",
"2. c #584662",
"3. c #485867",
"4. c #4B546F",
"5. c #575879",
"6. c #63466A",
"7. c #64536D",
"8. c #674C75",
"9. c #754E78",
"0. c #6A5477",
"q. c #765376",
"w. c #74527B",
"e. c #4B6569",
"r. c #586366",
"t. c #466678",
"y. c #566978",
"u. c #57737B",
"i. c #6C6764",
"p. c #766864",
"a. c #746A64",
"s. c #7B6C63",
"d. c #7D7166",
"f. c #7B7567",
"g. c #7D736C",
"h. c #686F75",
"j. c #797777",
"k. c #84695E",
"l. c #81587E",
"z. c #816D65",
"x. c #827266",
"c. c #8C7567",
"v. c #85756B",
"b. c #88776D",
"n. c #86796E",
"m. c #8A796D",
"M. c #857A72",
"N. c #857975",
"B. c #8C7C73",
"V. c #917E73",
"C. c #8D8274",
"Z. c #8E827B",
"A. c #918176",
"S. c #94847B",
"D. c #95897E",
"F. c #017780",
"G. c #00818A",
"H. c #3E6686",
"J. c #3F779C",
"K. c #2C77A7",
"L. c #307AAD",
"P. c #5A5E80",
"I. c #7A5884",
"U. c #476A86",
"Y. c #536785",
"T. c #497389",
"R. c #577589",
"E. c #476C90",
"W. c #477999",
"Q. c #567795",
"!. c #6C658D",
"~. c #656C98",
"^. c #657598",
"/. c #737192",
"(. c #507BA5",
"). c #6A7AA1",
"_. c #7978A6",
"`. c #865887",
"'. c #845C8B",
"]. c #885A92",
"[. c #866894",
"{. c #837AA6",
"}. c #2D81B0",
"|. c #3885B6",
" X c #4C8296",
".X c #5A839C",
"XX c #65869A",
"oX c #4584A6",
"OX c #5788A8",
"+X c #508EB3",
"@X c #5A8CB4",
"#X c #658BA9",
"$X c #778EAD",
"%X c #6896AE",
"&X c #6C89B5",
"*X c #7788B6",
"=X c #6A95B5",
"-X c #6B9CBD",
";X c #759BB5",
":X c #6BA3B9",
">X c #76A4BD",
",X c #3990C6",
"<X c #4F95C9",
"1X c #669DC4",
"2X c #799ACA",
"3X c #789BD1",
"4X c #54A9D6",
"5X c #68A4CA",
"6X c #76A2C7",
"7X c #66B3CA",
"8X c #69ABD7",
"9X c #77AAD9",
"0X c #6DB6DD",
"qX c #7BB5D7",
"wX c #5DB9EB",
"eX c #6CBAE7",
"rX c #78B9E6",
"tX c #73BBEB",
"yX c #76BCF3",
"uX c #5EC2F5",
"iX c #6DC0EB",
"pX c #78C3EA",
"aX c #6BC5F7",
"sX c #73C3F4",
"dX c #7AC9F7",
"fX c #74C2FB",
"gX c #958981",
"hX c #8287B4",
"jX c #86A6B3",
"kX c #8399C6",
"lX c #85A8D5",
"zX c #82B3D0",
"xX c #81B6E7",
"cX c #89C5E8",
"vX c #88C9F0",
"bX c #96DDFE",
"nX c #A4E2FC",
/* pixels */
"G.G.G.G.G.G.G.G.G.G.G.G.G.G.G.G.G.G.G.G.G.G.G.G.G.G.G.G.G.G.G.G.G.G.G.G.G.G.G.G.G.G.G.G.G.G.G.G.G.G.G.G.G.G.G.G.G.G.G.G.G.G.G.G.G.",
"G.G.G.G.G.G.G.G.G.G.G.G.G.G.G.G.G.G.G.G.G.G.G.G.G.G.G.G.G.G.G.G.G.G.G.G.G.G.G.G.G.G.G.G.G.G.G.G.G.G.G.G.G.G.G.G.G.G.G.G.G.G.G.G.G.",
"G.G.G.G.G.G.G.G.G.G.G.G.G.G.G.G.G.G.G.G.G.G.G.G.G.G.G.G.G.G.G.G.G.G.G.G.G.G.G.G.G.G.G.G.G.G.G.G.G.G.G.G.G.G.G.G.G.G.G.G.G.G.G.G.G.",
"G.G.G.G.G.G.G.G.G.G.G.G.G.G.G.G.G.G.G.G.G.G.G.G.G.G.G.G.G.G.G.G.G.G.G.G.G.G.G.G.G.G.G.G.G.G.G.G.G.G.G.G.G.G.G.G.G.G.G.G.G.G.G.G.G.",
"G.G.G.G.G.G.G.G.G.G.G.G.G.G.G.G.G.G.G.G.G.G.G.G.G.G.G.E T F.F.F.F.F.F.E Y E G.G.G.G.G.G.G.G.G.G.G.G.G.G.G.G.G.G.G.G.G.G.G.G.G.G.G.",
"G.G.G.G.G.G.G.G.G.G.G.G.G.G.G.G.G.G.G.G.G.G.G.G.G.G.R i.a.a.a.a.a.a.a.a.a.i.R G.G.G.G.G.G.G.G.G.G.G.G.G.G.G.G.G.G.G.G.G.G.G.G.G.G.",
"G.G.G.G.G.G.G.G.G.G.G.G.G.G.G.G.G.G.G.G.G.G.G.G.G.E ..a.O.O.O.O.+.o.O. .+.s.r.G.G.G.G.G.G.G.G.G.G.G.G.G.G.G.G.G.G.G.G.G.G.G.G.G.G.",
"G.G.G.G.G.G.G.G.G.G.G.G.G.G.G.G.G.G.G.G.G.G.F.G.I C @.s.h r i y.XXu.i u g s.%.Z I F.G.G.G.G.G.G.G.G.G.G.G.G.G.G.G.G.G.G.G.G.G.G.G.",
"G.G.G.G.G.G.G.G.G.G.G.G.G.G.G.G.G.G.G.G.G.E K ..i.n.x.s.o.u R.cXnXpXu.s [ d.d.C.g...Q E G.G.G.G.G.G.G.G.G.G.G.G.G.G.G.G.G.G.G.G.G.",
"G.G.G.G.G.G.G.G.G.G.G.G.G.G.F.! L R F.F.Q G d.B.:.#.s.;.,.p Q.sXdXaXW.a >.-.v.m.m.B. .| K E G.U L ! G.G.G.G.G.G.G.G.G.G.G.G.G.G.G.",
"G.G.G.G.G.G.G.G.G.G.G.G.G.F.| g.f...L r.B.v.z.v.;.#.s.;.<._ t.|.,X|.E._ d.#.:.b.:.s.B.S.B.r.L  .s.N.e.G.G.G.G.G.G.G.G.G.G.G.G.G.G.",
"G.G.G.G.G.G.G.G.G.G.G.G.E | v.O.u n.gXA.m.B.>.x.x.s.v.:.d.X.M T.oXW.^ X.s.>.s.>.x.b.x.>.x.A.gXM.u O.v.e.T G.G.G.G.G.G.G.G.G.G.G.G.",
"G.G.G.G.G.G.G.G.G.G.G.F.3.M.O.a e :.A.b.b.m.#.O.m.v.n.&.o.s.s i q i a k.&.v.m.#.B.m.;.#.;.b.C.:.e e O.v./ E G.G.G.G.G.G.G.G.G.G.G.",
"G.G.G.G.G.G.G.G.G.G.E | v.O.d ^ f y n.B.n.n.:.u O.#.;.g ) f.V.V.A.V.B.j.) g #.#.s.v.,.#.>.B.M.y ^ ^ d O.g.t.E G.G.G.G.G.G.G.G.G.G.",
"G.G.G.G.G.G.G.G.G.E e.g.o.d %XcXqX4.;.Z.m.b.V.m.` 5 0 o . 0 u y y y y 0 . o 5 w ( s.v.x.n.Z.-.3.zXcX=Xu O.N.' E G.G.G.G.G.G.G.G.G.",
"G.G.G.G.G.G.G.G.G.e.f.X.p R.pXbXvX5Xu M.C.x.O.y 4 X # % - @ @ @ @ @ @ @ $ $ . . 4 y ] x.B.n.i 5XdXbXsXR.r +.x.e.F.G.G.G.G.G.G.G.G.",
"G.G.G.G.G.G.G.G.Y j.;.h p P 4XwX8XL.p -.C.` 4 X @ @ ; * = * = x v x x v 1 - * @ % X 4 ` C.;.i W.wXeX4X~ r g >.j.Y G.G.G.G.G.G.G.G.",
"G.G.G.G.G.G.G.G.Y j.n.b.&.| J.K.L.U.r g v.0 = @ $ ; * # # @ 1 7.I.'.'.I.w.8.8 7 ; % # 0 M.f r T.K.K.J.| ;.n.m.h.Y G.G.G.G.G.G.G.G.",
"G.G.G.G.G.G.G.G.E Y | >.c.n.h.H.~ u u O.i.4 : ; $ $ - k - + ; @ m V B w.[.kX2X6XY.n ; , i.] u y t.E.h.b.B.a.' I G.G.G.G.G.G.G.G.G.",
"G.G.G.G.G.G.G.G.G.E r._ _ :.B.n.:.p +.i.4 @ ; $ = 7 t.:Xc ; = # ; - - > 7 F Q.5XsXtXOXk 4 -.] h ;.v.M.a._ ` ..F.G.G.G.G.G.G.G.G.G.",
"G.G.G.G.G.G.G.G.G.K B.b.#.g g >.n.B.=.4 % = = = 3 >XT.l $ $ - * & + +   $ $ ; k @XeXaXrXP 4 -.m.m.:.( g ;.n.N.! G.G.G.G.G.G.G.G.G.",
"G.G.G.G.G.G.G.G.G.h.S.m.s.s.,.` ( $.% @ = 8 0.F %XQ.> = ; 1 c  XeXtXrXrX@XJ > = - H.tXaXeXP % $.( ` >.s.s.x.S.r.F.G.G.G.G.G.G.G.G.",
"G.G.G.G.G.G.G.G.K N.B.n.n.v.n.] 4 # - - # 7.1.=XQ.> # - c W.-X9XlX9X9X8XsXeXOX- @ * U.tXaX0XP $ 4 ` b.n.n.b.m.C.K G.G.G.G.G.G.G.G.",
"G.G.G.G.G.G.G.G.' x.s.n.v.v.s.i % # - % B 2.1X5X+ ; - F -X X5.I.9.0.0.n T.1XeXOX3 # @ H.eXaX5X3 # e a.s.+.s.v.A.' G.G.G.G.G.G.G.G.",
"G.G.G.G.G.G.G.Y o 5 s.b.n.v.O.4 @ * ; B 0.U.rXt.- = { hXY.* ; $ 9 b b b x 0.~.rXJ $ # - @XfXsXJ - O ` s.B.s.O.;.a.Y G.G.G.G.G.G.G.",
"G.G.G.G.G.G.F.Z i.g B.v.v.s.u X * = N ].N 0X5X- @ = { 7 % - z ).8XyXyXfX5XU.2.*X6XF = # l 5XaX1X- . t s.b.m.B.S.Z.C F.G.G.G.G.G.G.",
"G.G.G.G.G.R ..d.D.D.v.b.v.#.5 $ ; 8 '.9..XsXU.* * * ; ; - 5.lX2X2X3X5X3XeXeXt.v _.Q.- ; = U.sXsX3.= 5 #.v.v.v.n.S.s...U G.G.G.G.G.",
"G.G.G.G.Y i.a.s.m.V.A.B.n.g . $ > 8.].M OXsXt.* ; $ $ ; XX).5.4.x x z 6.8XaXtX3 N $XD - * 3 5XsXQ.= , g M.B.A.Z.B.s.a. .F.G.G.G.G.",
"G.G.G.G.F.%.#.u ` :.c.B.Z.s.d # x `.`.7 0XaXt.* $ @ ; n =X1.4.:X3 7 /.t.@XsXsX#X$ ~.).- : $ .XsX9Xv ^ a.Z.m.v.:._ u #.@.F.G.G.G.G.",
"G.G.G.G.F.$.&.r u q f _ >.g.=.@ 8.'.6.3 eXaXY.v * = @ 5.8.w.2.F - 8 Y.:XW.U.5X2X1 v [.v = @ D eX0X7 i.v.>._ ( q u a #.$.F.G.G.G.G.",
"G.G.G.G.F.%.&.u R.jX;X{ w @.@.@ w.`.B 3 eXfX).N c = ; qX_._.v 1.5.{ 2XQ.rXY.OX2X2.- I.0.@ = + tX8X@ $.+.w { ;XjXu.d #.@.F.G.G.G.G.",
"G.G.G.G.F.%.#.y.rXbXdX-Xf #.@.+ I.I.# 3 0XfX^.L Q.* - eX~.%X;X#XxX!.hX7X5X&X3 =X0.7 -X_.M @ & rX8X+ ..%.p 6XvXbXrXy.%.#.F.G.G.G.G.",
"G.G.G.G.F.%.#.L 4XsXuXoX^ #.@.@ w.`.+ # OXfX^.L  XM > eX^.=XfX6X^.{./.).5X&X3 y.B x 7XhXV - & tX9X@ *.%.f oXaXaX4XL $.@.F.G.G.G.G.",
"G.G.G.G.F.%.#.3.(.L.}.E.( #.$.@ q.`.+ # ~ yX^.D 6X7.1 rX&X!.rX5X_.*X$X6.5X*X= - } x 1X{.`.> @ tX8X& =.#.u J.}.L.(.| %.@.F.G.G.G.G.",
"G.G.G.G.F.%.&.p 3.W.E.^ &.s.@.@ 9.`.* ; : 5X6X+ .X2X4.T.0XY.I.Q.W.oXb #XyX_.= ; < ~ ;X`.I.; R.fX8X+ =.a.&./ E.Q.3.i #.@.F.G.G.G.G.",
"G.G.G.G.E %.&.a ( O.z.c.m.j.[ b !.`.7 - - U.qX~ c eX1XN Q.&XY.A # n OX8X@X4.= @ = ~ y.`.'.3 @XfX=X@ ] g.m.c.k.O.( e #.$.F.G.G.G.G.",
"G.G.G.G.E $.>.&.b.C.g.a.g p o t.kX].} * $ = 5X1X$ Y.yX3XP.J Q.F > !.T.T.eXT.* $ = $ v ].w.c tXyXJ @ X u ) s.x.B.v.;.:.@.F.G.G.G.G.",
"G.G.G.G.E r.M.m.>.] g g ;.h 5 + ;X{.w.; $ , D 5XU.> ).xXeXOXJ F J 4.@XeXOX; ; * = @ v ].} T.sX-X- % 4 h ;.g g ` a.m.B...F.G.G.G.G.",
"G.G.G.G.G.W r.( g ;.x.n.b.V.i.$ F [.`.M ; ; * (.rXU.v ).xXaXsXyXsXsXrXOX- # # $ $ $ M '.2.8XpXD ; @ i.B.n.v.z.;.g ( ..R G.G.G.G.G.",
"G.G.G.G.G.G.G.Z y d.x.s.v.B.a.X * 8.`.9.1 - = z &XlX.X1.5.hX3X3X-X%Xb - - D R.- * * 0.q.T.tXW.- = # ] d.b.b.m.,.u Z G.G.G.G.G.G.G.",
"G.G.G.G.G.G.G.Y q :.v.s.v.s.B. .# x '.].6.; @ $ x /.^.>XJ j 7 7 > - $ # R.qXR.- = N I.1.5XW.3 $ @ ' A.x.s.b.v.;.0 I G.G.G.G.G.G.G.",
"G.G.G.G.G.G.G.G.9 _ m.n.x.m.S.M.4 ; 8.'.`.M $ = > 6.l.0.{ F :X8X8X9X^.} !.P - $ # 9.9.#XW.- $ % 4 N.b.B.B.a.;.u 2 G.G.G.G.G.G.G.G.",
"G.G.G.G.G.G.G.G.I / s.n.x.v.n.S. .@ m I.lX_.M - $ = 6.`.`.I._.*X*X{.0.B 7 % ; = } 8.Y.;X& $ $ .  .Z.;.;.B.A.B.f I G.G.G.G.G.G.G.G.",
"G.G.G.G.G.G.G.G.F.A +.b.v.v.n.m.C.$.4 v &X9X&Xn = @ * x 2.I.I.`.I.B 1 * ; - = B 7.4.;XF = ; % =.Z.B.>.,.n.B.) A F.G.G.G.G.G.G.G.G.",
"G.G.G.G.G.G.G.G.G.H ' s.x.f.B.n.s.a.a.4 m -XyX9X(.k * = * * * $ # @ + - = 1 N 7.< * & = # 4 i.a.s.m.A.B.n.s.] I G.G.G.G.G.G.G.G.G.",
"G.G.G.G.G.G.G.G.G.F.A z.A.M.s.` w h s.:.4 > @XaXpX5X+XE.3 3 - * = = = = 7 7.v > @ @ @ * 4 :.s.g w ` a.B.C.d.A E G.G.G.G.G.G.G.G.G.",
"G.G.G.G.G.G.G.G.G.Y | B.k.) 4.XXR.p h s.i., 3 J -XcXsXaXiX8XoX.XP & = # ; 1 = ; $ $ $ % i.s.h ^ R.XX4._ a.N.` I G.G.G.G.G.G.G.G.G.",
"G.G.G.G.G.G.G.G.E j.a._ p r.qXnXcX=Xu d.g.5 X ; 3 D D -X8XsXsXfXrX;X3 * @ * * ; @ @ $ 5 g.d.g $XvXnXqXe.e ) a.j.Y G.G.G.G.G.G.G.G.",
"G.G.G.G.G.G.G.G.E j.o.u p t.wXdXfX+XO.B.O.-. .4 @ ; ; * c 3.P P P P 3 $ @ * ; $ @ 4  .%.O.B.] +XaXdXwXH.r p +.j.Y G.G.G.G.G.G.G.G.",
"G.G.G.G.G.G.G.G.G.e.f.O.u e.|.,X<XW.v.d.u n.D.j. .5 @ ; - * @ X # # X $ $ % . 5 ] N.gXv.u x.g.E.,X<X|.t.r O.v.t.E G.G.G.G.G.G.G.G.",
"G.G.G.G.G.G.G.G.G.F.e.n.o.y H.oX}...B.O.%.v.x.m.S.M.a.i 5 $.a.a.i.-.i...5 i a.M.A.m.v.b.#.O.V.3.(.oXU.u +.N.e.E G.G.G.G.G.G.G.G.G.",
"G.G.G.G.G.G.G.G.G.G.G.3.v.O.t 0 t g.v.y s.s.v.n.b.B.B.S.b.;.O.O.O.o.O.-.v.S.A.x.s.n.N.M.x.y z.v.0 0 p O.g.t.F.G.G.G.G.G.G.G.G.G.G.",
"G.G.G.G.G.G.G.G.G.G.G.T / N.+.u ` B.] ;.x.s.n.n.n.n.v.&.o.,.f ^ ^ ^ s k.&.m.b.n.v.,.#.>.n.#.O.B.O.u O.N.| W G.G.G.G.G.G.G.G.G.G.G.",
"G.G.G.G.G.G.G.G.G.G.G.G.F.e.N.O.v.v.S O.s.x.:.:.v.n.v.>.s.O.' >XcX>X{ X.s.>.m.n.n.;.#.;.s.+.t v.x.O.g.t.E G.G.G.G.G.G.G.G.G.G.G.G.",
"G.G.G.G.G.G.G.G.G.G.G.G.G.E | v.B...I A p ` o.&.s.v.n.;.s.) XXdXbXdX#Xh s.;.v.b.b.v.#._ / A C ] n.v.| G.G.G.G.G.G.G.G.G.G.G.G.G.G.",
"G.G.G.G.G.G.G.G.G.G.G.G.G.G.E L G Q G.F.U 9 y g ;.s.z.&.,.i t.4XwX4XU.a ,.%.n.s.;.` f A U E G.Q G G E G.G.G.G.G.G.G.G.G.G.G.G.G.G.",
"G.G.G.G.G.G.G.G.G.G.G.G.G.G.G.G.G.G.G.G.G.E H 9 0 u O.s.O.p 3.W.K.W.3.a O.s.O.y q 9 U W G.G.G.G.G.G.G.G.G.G.G.G.G.G.G.G.G.G.G.G.G.",
"G.G.G.G.G.G.G.G.G.G.G.G.G.G.G.G.G.G.G.G.G.G.G.G.I Z ( s.g e i 3.t.3.i a h ,._ C Y G.G.G.G.G.G.G.G.G.G.G.G.G.G.G.G.G.G.G.G.G.G.G.G.",
"G.G.G.G.G.G.G.G.G.G.G.G.G.G.G.G.G.G.G.G.G.G.G.G.G.G...a.] O.O.O. .O.O.] O.a.r.F.G.G.G.G.G.G.G.G.G.G.G.G.G.G.G.G.G.G.G.G.G.G.G.G.G.",
"G.G.G.G.G.G.G.G.G.G.G.G.G.G.G.G.G.G.G.G.G.G.G.G.G.G.R 0 0 6 6 w 6 w w 0 t G R G.G.G.G.G.G.G.G.G.G.G.G.G.G.G.G.G.G.G.G.G.G.G.G.G.G.",
"G.G.G.G.G.G.G.G.G.G.G.G.G.G.G.G.G.G.G.G.G.G.G.G.G.G.G.F.F.F.F.F.F.F.F.F.F.F.G.G.G.G.G.G.G.G.G.G.G.G.G.G.G.G.G.G.G.G.G.G.G.G.G.G.G.",
"G.G.G.G.G.G.G.G.G.G.G.G.G.G.G.G.G.G.G.G.G.G.G.G.G.G.G.G.G.G.G.G.G.G.G.G.G.G.G.G.G.G.G.G.G.G.G.G.G.G.G.G.G.G.G.G.G.G.G.G.G.G.G.G.G.",
"G.G.G.G.G.G.G.G.G.G.G.G.G.G.G.G.G.G.G.G.G.G.G.G.G.G.G.G.G.G.G.G.G.G.G.G.G.G.G.G.G.G.G.G.G.G.G.G.G.G.G.G.G.G.G.G.G.G.G.G.G.G.G.G.G.",
"G.G.G.G.G.G.G.G.G.G.G.G.G.G.G.G.G.G.G.G.G.G.G.G.G.G.G.G.G.G.G.G.G.G.G.G.G.G.G.G.G.G.G.G.G.G.G.G.G.G.G.G.G.G.G.G.G.G.G.G.G.G.G.G.G.",
"G.G.G.G.G.G.G.G.G.G.G.G.G.G.G.G.G.G.G.G.G.G.G.G.G.G.G.G.G.G.G.G.G.G.G.G.G.G.G.G.G.G.G.G.G.G.G.G.G.G.G.G.G.G.G.G.G.G.G.G.G.G.G.G.G."
};
