/* XPM */
static char *_a6fc3cc98994c3ff3464b73b1711770oogo67lHaAYmFWm9[] = {
/* columns rows colors chars-per-pixel */
"65 65 219 2 ",
"   c #261D1A",
".  c #1C3235",
"X  c #392D29",
"o  c #39352D",
"O  c #293334",
"+  c #2C3C3C",
"@  c #3D3531",
"#  c #3D3B34",
"$  c #383939",
"%  c #43332C",
"&  c #463A2E",
"*  c #4D3A2E",
"=  c #543C2C",
"-  c #423733",
";  c #453B33",
":  c #4C3C34",
">  c #4E3738",
",  c #453D3A",
"<  c #4C3D3A",
"1  c #523C33",
"2  c #523B38",
"3  c #5B393B",
"4  c #4A4139",
"5  c #4B413C",
"6  c #534336",
"7  c #52433B",
"8  c #59463A",
"9  c #2C3F42",
"0  c #403B45",
"q  c #19474B",
"w  c #0B4D53",
"e  c #1C4D53",
"r  c #09555B",
"t  c #0C555B",
"y  c #2A4447",
"u  c #2E494C",
"i  c #374647",
"p  c #2D4F53",
"a  c #374E50",
"s  c #2A565B",
"d  c #3D5456",
"f  c #39575A",
"g  c #0B5B62",
"h  c #145B62",
"j  c #1D5C62",
"k  c #265D63",
"l  c #295D63",
"z  c #385C65",
"x  c #02656C",
"c  c #08636A",
"v  c #0A656C",
"b  c #14636A",
"n  c #1D656C",
"m  c #1C686F",
"M  c #026C74",
"N  c #0A6E76",
"B  c #136C74",
"V  c #1B6C73",
"C  c #02757D",
"Z  c #0B727B",
"A  c #167179",
"S  c #28656C",
"D  c #3A666A",
"F  c #246C73",
"G  c #3A6376",
"H  c #454245",
"J  c #4C4440",
"K  c #484B4B",
"L  c #534641",
"P  c #544A42",
"I  c #5A4B43",
"U  c #554C48",
"Y  c #5C4E49",
"T  c #48504F",
"R  c #5B5146",
"E  c #5D524B",
"W  c #5C594E",
"Q  c #444C58",
"!  c #4C5554",
"~  c #4B5459",
"^  c #49575A",
"/  c #565553",
"(  c #5B5653",
")  c #595957",
"_  c #555A5B",
"`  c #5C5C5B",
"'  c #624F48",
"]  c #635345",
"[  c #64574A",
"{  c #63544C",
"}  c #69544C",
"|  c #69594D",
" . c #725C4E",
".. c #635651",
"X. c #685652",
"o. c #655C54",
"O. c #6C5D54",
"+. c #645D59",
"@. c #6A5E5A",
"#. c #725E53",
"$. c #5B615A",
"%. c #6E6156",
"&. c #66635A",
"*. c #6E625B",
"=. c #726155",
"-. c #73645B",
";. c #7A665C",
":. c #76695C",
">. c #7A695F",
",. c #7A705F",
"<. c #445463",
"1. c #455965",
"2. c #4B5C62",
"3. c #4D5B6B",
"4. c #555260",
"5. c #496567",
"6. c #4D656B",
"7. c #566566",
"8. c #5C6364",
"9. c #53646B",
"0. c #486878",
"q. c #586C77",
"w. c #4A7076",
"e. c #5B747C",
"r. c #636362",
"t. c #6D6562",
"y. c #6D6A62",
"u. c #6A6D6B",
"i. c #736763",
"p. c #796663",
"a. c #736A64",
"s. c #7B6C63",
"d. c #736D6A",
"f. c #776C69",
"g. c #6D706E",
"h. c #7D7166",
"j. c #7B7567",
"k. c #7D736C",
"l. c #646972",
"z. c #6B7578",
"x. c #7C7573",
"c. c #767979",
"v. c #84695E",
"b. c #816D63",
"n. c #806E6D",
"m. c #827266",
"M. c #8C7567",
"N. c #85756B",
"B. c #88776D",
"V. c #86796E",
"C. c #8A796D",
"Z. c #907869",
"A. c #817572",
"S. c #857972",
"D. c #877975",
"F. c #8C7C73",
"G. c #8A7E7A",
"H. c #917E73",
"J. c #8D8274",
"K. c #8E827B",
"L. c #918176",
"P. c #94847B",
"I. c #95897E",
"U. c #017780",
"Y. c #00818A",
"T. c #3D688A",
"R. c #3F779C",
"E. c #2C77A7",
"W. c #367AA8",
"Q. c #287CB5",
"!. c #466B86",
"~. c #456D8B",
"^. c #4A718F",
"/. c #597687",
"(. c #447293",
"). c #437B9E",
"_. c #4A7999",
"`. c #60788A",
"'. c #447CA6",
"]. c #3A80A1",
"[. c #2782B8",
"{. c #3885B6",
"}. c #668699",
"|. c #4182A8",
" X c #4383B0",
".X c #4D92BD",
"XX c #688EA9",
"oX c #6D94AE",
"OX c #789AAE",
"+X c #6D98B6",
"@X c #7AA3BB",
"#X c #3A8EC4",
"$X c #3894CB",
"%X c #4492CA",
"&X c #4BA5D7",
"*X c #54AADC",
"=X c #69A4C9",
"-X c #6CA7D1",
";X c #7AB5D5",
":X c #5CB9E9",
">X c #5EB9F1",
",X c #62BBEE",
"<X c #7CBDE7",
"1X c #5EC2F5",
"2X c #79C5E7",
"3X c #68C5F7",
"4X c #73C2F5",
"5X c #7AC9F9",
"6X c #958981",
"7X c #86A6B3",
"8X c #82B3D0",
"9X c #93C6DA",
"0X c #8BC6E8",
"qX c #90C5E4",
"wX c #84CCF6",
"eX c #96DDFE",
"rX c #A3DDFA",
"tX c #94E0FD",
"yX c #A4E2FC",
/* pixels */
"Y.Y.Y.Y.Y.Y.Y.Y.Y.Y.Y.Y.Y.Y.Y.Y.Y.Y.Y.Y.Y.Y.Y.Y.Y.Y.Y.Y.Y.Y.Y.Y.Y.Y.Y.Y.Y.Y.Y.Y.Y.Y.Y.Y.Y.Y.Y.Y.Y.Y.Y.Y.Y.Y.Y.Y.Y.Y.Y.Y.Y.Y.Y.Y.Y.",
"Y.Y.Y.Y.Y.Y.Y.Y.Y.Y.Y.Y.Y.Y.Y.Y.Y.Y.Y.Y.Y.Y.Y.Y.Y.Y.Y.Y.Y.Y.Y.Y.Y.Y.Y.Y.Y.Y.Y.Y.Y.Y.Y.Y.Y.Y.Y.Y.Y.Y.Y.Y.Y.Y.Y.Y.Y.Y.Y.Y.Y.Y.Y.Y.Y.",
"Y.Y.Y.Y.Y.Y.Y.Y.Y.Y.Y.Y.Y.Y.Y.Y.Y.Y.Y.Y.Y.Y.Y.Y.Y.Y.Y.Y.Y.Y.Y.Y.Y.Y.Y.Y.Y.Y.Y.Y.Y.Y.Y.Y.Y.Y.Y.Y.Y.Y.Y.Y.Y.Y.Y.Y.Y.Y.Y.Y.Y.Y.Y.Y.Y.",
"Y.Y.Y.Y.Y.Y.Y.Y.Y.Y.Y.Y.Y.Y.Y.Y.Y.Y.Y.Y.Y.Y.Y.Y.Y.Y.Y.Y.Y.Y.Y.Y.Y.Y.Y.Y.Y.Y.Y.Y.Y.Y.Y.Y.Y.Y.Y.Y.Y.Y.Y.Y.Y.Y.Y.Y.Y.Y.Y.Y.Y.Y.Y.Y.Y.",
"Y.Y.Y.Y.Y.Y.Y.Y.Y.Y.Y.Y.Y.Y.Y.Y.Y.Y.Y.Y.Y.Y.Y.Y.Y.Y.Y.C M U.U.U.U.U.U.C M C Y.Y.Y.Y.Y.Y.Y.Y.Y.Y.Y.Y.Y.Y.Y.Y.Y.Y.Y.Y.Y.Y.Y.Y.Y.Y.Y.",
"Y.Y.Y.Y.Y.Y.Y.Y.Y.Y.Y.Y.Y.Y.Y.Y.Y.Y.Y.Y.Y.Y.Y.Y.Y.Y.B y.a.a.a.a.a.a.a.a.a.u.B Y.Y.Y.Y.Y.Y.Y.Y.Y.Y.Y.Y.Y.Y.Y.Y.Y.Y.Y.Y.Y.Y.Y.Y.Y.Y.",
"Y.Y.Y.Y.Y.Y.Y.Y.Y.Y.Y.Y.Y.Y.Y.Y.Y.Y.Y.Y.Y.Y.Y.Y.Y.C ) a.{ { { { ..} { W ..f.7.Y.Y.Y.Y.Y.Y.Y.Y.Y.Y.Y.Y.Y.Y.Y.Y.Y.Y.Y.Y.Y.Y.Y.Y.Y.Y.",
"Y.Y.Y.Y.Y.Y.Y.Y.Y.Y.Y.Y.Y.Y.Y.Y.Y.Y.Y.Y.Y.Y.U.Y.c w o.s.6 = , q.}.e., : 7 f.@.r x U.Y.Y.Y.Y.Y.Y.Y.Y.Y.Y.Y.Y.Y.Y.Y.Y.Y.Y.Y.Y.Y.Y.Y.",
"Y.Y.Y.Y.Y.Y.Y.Y.Y.Y.Y.Y.Y.Y.Y.Y.Y.Y.Y.Y.Y.C l ) t.V.m.s.] : /.0XyX2Xe.3 W f.h.J.k._ S C Y.Y.Y.Y.Y.Y.Y.Y.Y.Y.Y.Y.Y.Y.Y.Y.Y.Y.Y.Y.Y.",
"Y.Y.Y.Y.Y.Y.Y.Y.Y.Y.Y.Y.Y.Y.U.D D V U.U.S d j.F.-.O.s.=.;.< ^.4X5X3X_.1 :.*.N.C.C.F.( ! l C Y.m z S Y.Y.Y.Y.Y.Y.Y.Y.Y.Y.Y.Y.Y.Y.Y.",
"Y.Y.Y.Y.Y.Y.Y.Y.Y.Y.Y.Y.Y.U.^ k.k.) z 8.G.N.s.N.=.O.s.-.,.I w.{.#X{.~.I f.O.-.B.-.s.F.P.G.8.z / f.A.6.Y.Y.Y.Y.Y.Y.Y.Y.Y.Y.Y.Y.Y.Y.",
"Y.Y.Y.Y.Y.Y.Y.Y.Y.Y.Y.Y.C ^ N.{ : V.6XL.C.F.;.m.m.s.N.-.h.} 0 ^.|.(.H ] f.:.s.:.m.B.m.;.m.L.6XS.: } N.5.N Y.Y.Y.Y.Y.Y.Y.Y.Y.Y.Y.Y.",
"Y.Y.Y.Y.Y.Y.Y.Y.Y.Y.Y.U.2.A.[ 1 * -.L.B.B.C.O.{ C.N.V.#.} s.3 , $ , 1 v.#.N.C.O.F.C.=.O.=.B.J.:.* * [ N.K C Y.Y.Y.Y.Y.Y.Y.Y.Y.Y.Y.",
"Y.Y.Y.Y.Y.Y.Y.Y.Y.Y.C ^ N.[ 5 H 5 ; V.F.V.V.-.; { O.=.7 P j.H.H.J.H.G.x.P 7 O.O.s.N.>.O.:.F.S.; J H 4 { k.w.C Y.Y.Y.Y.Y.Y.Y.Y.Y.Y.",
"Y.Y.Y.Y.Y.Y.Y.Y.Y.C 5.k.} 4 oXqX;X3.=.K.S.B.H.C.' X $ e q i < ; , , , @ q y X % P s.N.m.V.K.*.3.8XqX+X: { A./ C Y.Y.Y.Y.Y.Y.Y.Y.Y.",
"Y.Y.Y.Y.Y.Y.Y.Y.Y.6.j.} < /.2XeXwX=X> S.J.m.{ T s b U.Y.Y.U.Y.C C Y.Y.Y.Y.Y.C v s H E m.F.V., =X5XeX4X/.= ..m.6.U.Y.Y.Y.Y.Y.Y.Y.Y.",
"Y.Y.Y.Y.Y.Y.Y.Y.M c.=.8 < G &X>X-XW.< *.J.R + Z U.Y.Y.Y.Y.Y.Y.Y.Y.Y.Y.Y.Y.Y.Y.Y.Y.N + R J.%., ).:X,X&XG = 7 ;.c.M Y.Y.Y.Y.Y.Y.Y.Y.",
"Y.Y.Y.Y.Y.Y.Y.Y.M z.V.B.#.^ R.E.E.!.= 7 N.f C Y.Y.Y.Y.Y.Y.Y.Y.Y.Y.Y.Y.Y.Y.Y.Y.Y.Y.Y.U.a S.4 = ~.E.E.W.^ %.V.C.z.M Y.Y.Y.Y.Y.Y.Y.Y.",
"Y.Y.Y.Y.Y.Y.Y.Y.C x T :.M.V.l.T.G > : { z.A Y.Y.Y.Y.Y.Y.Y.Y.Y.Y.Y.Y.Y.Y.Y.Y.Y.Y.Y.Y.Y.V t.E : ; 0.~.l.B.F.i.! x Y.Y.Y.Y.Y.Y.Y.Y.Y.",
"Y.Y.Y.Y.Y.Y.Y.Y.Y.C 8.I I :.F.V.-.2 X.t.V Y.Y.Y.Y.Y.Y.Y.Y.Y.Y.Y.Y.Y.Y.Y.Y.Y.Y.Y.Y.Y.Y.Y.j y.[ 6 =.N.D.p.I R ` U.Y.Y.Y.Y.Y.Y.Y.Y.Y.",
"Y.Y.Y.Y.Y.Y.Y.Y.Y.l G.B.O.7 7 :.V.F.t.n Y.Y.Y.Y.Y.Y.Y.Y.Y.Y.Y.Y.Y.Y.Y.Y.Y.Y.Y.Y.Y.Y.Y.Y.Y.V y.C.C.:.L 7 %.V.D.S Y.Y.Y.Y.Y.Y.Y.Y.Y.",
"Y.Y.Y.Y.Y.Y.Y.Y.Y.u.P.C.s.s.>.Y J &.A Y.Y.Y.Y.Y.Y.Y.Y.Y.Y.Y.Y.Y.Y.Y.Y.Y.Y.Y.Y.Y.Y.Y.Y.Y.Y.Y.B r.L Y :.s.s.m.P.7.U.Y.Y.Y.Y.Y.Y.Y.Y.",
"Y.Y.Y.Y.Y.Y.Y.Y.l D.F.V.V.N.V.E k M Y.Y.Y.Y.Y.Y.Y.Y.Y.Y.Y.Y.Y.Y.Y.Y.Y.Y.Y.Y.Y.Y.Y.Y.Y.Y.Y.Y.U.C u ' B.V.V.B.C.J.k Y.Y.Y.Y.Y.Y.Y.Y.",
"Y.Y.Y.Y.Y.Y.Y.Y.T m.s.V.N.N.s.Q Z Y.Y.Y.Y.Y.Y.Y.Y.Y.Y.Y.Y.Y.Y.Y.Y.Y.Y.Y.Y.Y.Y.Y.Y.Y.Y.Y.Y.Y.Y.U.Z * p.s.X.s.N.L.T Y.Y.Y.Y.Y.Y.Y.Y.",
"Y.Y.Y.Y.Y.Y.Y.M   X s.B.V.V.{ s U.Y.Y.Y.Y.Y.Y.Y.Y.Y.Y.Y.Y.Y.Y.Y.Y.Y.Y.Y.Y.Y.Y.Y.Y.Y.Y.Y.Y.Y.Y.Y.U.o Y s.F.s.{ %.a.M Y.Y.Y.Y.Y.Y.Y.",
"Y.Y.Y.Y.Y.Y.U.r i.7 F.N.N.s.> b Y.Y.Y.Y.Y.Y.Y.Y.Y.Y.Y.Y.Y.Y.Y.Y.Y.Y.Y.Y.Y.Y.Y.Y.Y.Y.Y.Y.Y.Y.Y.Y.Y.g - s.B.C.F.P.K.w U.Y.Y.Y.Y.Y.Y.",
"Y.Y.Y.Y.Y.B ) f.I.I.N.B.N.O.X C Y.Y.Y.Y.Y.Y.Y.Y.Y.Y.Y.Y.Y.Y.Y.Y.Y.Y.Y.Y.Y.Y.Y.Y.Y.Y.Y.Y.Y.Y.Y.Y.Y.Y.$ O.N.N.N.V.P.f._ b Y.Y.Y.Y.Y.",
"Y.Y.Y.Y.M r.i.s.C.H.L.F.V.7 . U.Y.Y.Y.Y.Y.Y.Y.Y.Y.Y.Y.Y.Y.Y.Y.Y.Y.Y.Y.Y.Y.Y.Y.Y.Y.Y.Y.Y.Y.Y.Y.Y.Y.Y.j 7 S.F.L.K.F.s.s.W U.Y.Y.Y.Y.",
"Y.Y.Y.Y.U.@.O.: Y -.M.F.K.s.T U.Y.Y.Y.Y.Y.Y.Y.Y.Y.Y.Y.Y.Y.Y.Y.Y.Y.Y.Y.Y.Y.Y.Y.Y.Y.Y.Y.Y.Y.Y.Y.Y.Y.Y.5.a.K.C.N.:.I : O.o.U.Y.Y.Y.Y.",
"Y.Y.Y.Y.U.+.#.= : # 5 I :.k.&.C Y.Y.Y.Y.Y.Y.Y.Y.Y.Y.Y.Y.Y.Y.Y.Y.Y.Y.Y.Y.Y.Y.Y.Y.Y.Y.Y.Y.Y.Y.Y.Y.Y.Z t.N.;.I J # : 1 O.+.U.Y.Y.Y.Y.",
"Y.Y.Y.Y.U.@. .: /.7XOXQ % o.o.C Y.Y.Y.Y.Y.Y.Y.Y.Y.Y.Y.Y.Y.Y.Y.Y.Y.Y.Y.Y.Y.Y.Y.Y.Y.Y.Y.Y.Y.Y.Y.Y.Y.M +.X.% Q OX7Xe.4 O.o.U.Y.Y.Y.Y.",
"Y.Y.Y.Y.U.@.O.q.<XeX5X+X5 O.o.Y.Y.Y.Y.Y.Y.Y.Y.Y.Y.Y.Y.Y.Y.Y.Y.Y.Y.Y.Y.Y.Y.Y.Y.Y.Y.Y.Y.Y.Y.Y.Y.Y.Y.M ` @.< =XwXtX<Xq.@.o.U.Y.Y.Y.Y.",
"Y.Y.Y.Y.U.@.O.z *X4X1X|.H O.+.Y.Y.Y.Y.Y.Y.Y.Y.Y.Y.Y.Y.Y.Y.Y.Y.Y.Y.Y.Y.Y.Y.Y.Y.Y.Y.Y.Y.Y.Y.Y.Y.Y.Y.C $.@.5 |.3X3X*X1.@.o.U.Y.Y.Y.Y.",
"Y.Y.Y.Y.U.@.O.1.'.Q.[.(.L O.+.C Y.Y.Y.Y.Y.Y.Y.Y.Y.Y.Y.Y.Y.Y.Y.Y.Y.Y.Y.Y.Y.Y.Y.Y.Y.Y.Y.Y.Y.Y.Y.Y.Y.Y.&.O.: R.[.Q.'.^ @.o.U.Y.Y.Y.Y.",
"Y.Y.Y.Y.U.+.#., <._.~.H #.f.o.M Y.Y.Y.Y.Y.Y.Y.Y.Y.Y.Y.Y.Y.Y.Y.Y.Y.Y.Y.Y.Y.Y.Y.Y.Y.Y.Y.Y.Y.Y.Y.Y.Y.Y.&.a.#.K ~.^.<., O.o.U.Y.Y.Y.Y.",
"Y.Y.Y.Y.C @.#.1 L [ b.Z.C.A./ Y.Y.Y.Y.Y.Y.Y.Y.Y.Y.Y.Y.Y.Y.Y.Y.Y.Y.Y.Y.Y.Y.Y.Y.Y.Y.Y.Y.Y.Y.Y.Y.Y.Y.C _ x.C.M.v.{ L * #.+.U.Y.Y.Y.Y.",
"Y.Y.Y.Y.C +.:.#.B.J.n.a.7 2 e Y.Y.Y.Y.Y.Y.Y.Y.Y.Y.Y.Y.Y.Y.Y.Y.Y.Y.Y.Y.Y.Y.Y.Y.Y.Y.Y.Y.Y.Y.Y.Y.Y.Y.Y.h : U f.m.F.B.=.-.o.U.Y.Y.Y.Y.",
"Y.Y.Y.Y.C 8.D.S.:.E 7 7 =.8 u Y.Y.Y.Y.Y.Y.Y.Y.Y.Y.Y.Y.Y.Y.Y.Y.Y.Y.Y.Y.Y.Y.Y.Y.Y.Y.Y.Y.Y.Y.Y.Y.Y.Y.Y.y I =.7 7 Y p.C.F.) U.Y.Y.Y.Y.",
"Y.Y.Y.Y.Y.Z 7.L 7 =.m.N.B.H.i.C Y.Y.Y.Y.Y.Y.Y.Y.Y.Y.Y.Y.Y.Y.Y.Y.Y.Y.Y.Y.Y.Y.Y.Y.Y.Y.Y.Y.Y.Y.Y.Y.Y.C a.F.V.N.s.=.7 P _ B Y.Y.Y.Y.Y.",
"Y.Y.Y.Y.Y.Y.Y.r & m.m.s.N.F.a.h Y.Y.Y.Y.Y.Y.Y.Y.Y.Y.Y.Y.Y.Y.Y.Y.Y.Y.Y.Y.Y.Y.Y.Y.Y.Y.Y.Y.Y.Y.Y.Y.Y.v E m.B.B.C.>.: g Y.Y.Y.Y.Y.Y.Y.",
"Y.Y.Y.Y.Y.Y.Y.M $ -.N.s.N.s.F.8.U.Y.Y.Y.Y.Y.Y.Y.Y.Y.Y.Y.Y.Y.Y.Y.Y.Y.Y.Y.Y.Y.Y.Y.Y.Y.Y.Y.Y.Y.Y.Y.U.9.L.m.s.B.N.=.@ x Y.Y.Y.Y.Y.Y.Y.",
"Y.Y.Y.Y.Y.Y.Y.Y.O I C.V.m.C.P.S.S Y.Y.Y.Y.Y.Y.Y.Y.Y.Y.Y.Y.Y.Y.Y.Y.Y.Y.Y.Y.Y.Y.Y.Y.Y.Y.Y.Y.Y.Y.Y.F D.B.F.F.p.=.; . Y.Y.Y.Y.Y.Y.Y.Y.",
"Y.Y.Y.Y.Y.Y.Y.Y.v J s.V.m.N.V.P.$.M Y.Y.Y.Y.Y.Y.Y.Y.Y.Y.Y.Y.Y.Y.Y.Y.Y.Y.Y.Y.Y.Y.Y.Y.Y.Y.Y.Y.Y.M ` K.=.%.F.L.F.4 c Y.Y.Y.Y.Y.Y.Y.Y.",
"Y.Y.Y.Y.Y.Y.Y.Y.U.y ..B.N.N.V.C.J.r.V Y.Y.Y.Y.Y.Y.Y.Y.Y.Y.Y.Y.Y.Y.Y.Y.Y.Y.Y.Y.Y.Y.Y.Y.Y.Y.Y.b &.K.F.;.s.V.F.P y U.Y.Y.Y.Y.Y.Y.Y.Y.",
"Y.Y.Y.Y.Y.Y.Y.Y.Y.h T s.m.k.F.V.s.i.i.m U.Y.Y.Y.Y.Y.Y.Y.Y.Y.Y.Y.Y.Y.Y.Y.Y.Y.Y.Y.Y.Y.Y.Y.Y.m y.i.s.C.L.F.V.s.Y v Y.Y.Y.Y.Y.Y.Y.Y.Y.",
"Y.Y.Y.Y.Y.Y.Y.Y.Y.U.p b.H.D.s.Y % 6 s.-.n Y.Y.Y.Y.Y.Y.Y.Y.Y.Y.Y.Y.Y.Y.Y.Y.Y.Y.Y.Y.Y.Y.Y.V a.s.6 % Y p.F.J.h.u C Y.Y.Y.Y.Y.Y.Y.Y.Y.",
"Y.Y.Y.Y.Y.Y.Y.Y.Y.M ! F.>.U 3.}./.< 6 s.d.m Y.Y.Y.Y.Y.Y.Y.Y.Y.Y.Y.Y.Y.Y.Y.Y.Y.Y.Y.Y.Y.A g.s.6 5 `.}.3.I a.D.Y x Y.Y.Y.Y.Y.Y.Y.Y.Y.",
"Y.Y.Y.Y.Y.Y.Y.Y.C c.a.I < 9.;XyX0XoX: h.k.9 C Y.Y.Y.Y.Y.Y.Y.Y.Y.Y.Y.Y.Y.Y.Y.Y.Y.Y.Y.C s k.h.7 XX0XrX;X9.* U p.z.M Y.Y.Y.Y.Y.Y.Y.Y.",
"Y.Y.Y.Y.Y.Y.Y.Y.C x.| : < 0.:X5X4X.X] F.{ &.8.k U.Y.Y.Y.Y.Y.Y.Y.Y.Y.Y.Y.Y.Y.Y.Y.U.F ` @.{ F.E .X3X5X>XT.= , X.c.M Y.Y.Y.Y.Y.Y.Y.Y.",
"Y.Y.Y.Y.Y.Y.Y.Y.Y.6.k.{ > 6.{.$X%X).m.h.: V.I.x.7.F C Y.Y.Y.Y.C Z M Z C Y.Y.C p ( D.6XN.: m.k.(.#X%X{.0.= { N.w.C Y.Y.Y.Y.Y.Y.Y.Y.",
"Y.Y.Y.Y.Y.Y.Y.Y.Y.U.5.V.} - T. X].4.F.{ @.N.m.C.P.S.d.d s r.i.i.a.:.y.` S d a.S.L.C.N.B.O...H.2.'. X!.; ..A.7.C Y.Y.Y.Y.Y.Y.Y.Y.Y.",
"Y.Y.Y.Y.Y.Y.Y.Y.Y.Y.Y.2.N.{ - @ - k.N.; f.s.V.C.C.F.F.P.B.=.{ { { ] [ *.N.P.L.m.s.V.N.S.m.; b.N.@ @ < { x.w.U.Y.Y.Y.Y.Y.Y.Y.Y.Y.Y.",
"Y.Y.Y.Y.Y.Y.Y.Y.Y.Y.Y.N K N.{ : R F.E =.m.s.V.V.V.V.N.#.| >.4 H H H 2 v.#.C.B.V.N.>.O.:.V.O.{ F.{ : { A.! Z Y.Y.Y.Y.Y.Y.Y.Y.Y.Y.Y.",
"Y.Y.Y.Y.Y.Y.Y.Y.Y.Y.Y.Y.C 6.A.{ m.N.i [ s.m.-.-.m.V.N.:.b.{ T @X9X@XQ ] s.:.C.V.V.=.O.=.s...- m.m.{ k.w.C Y.Y.Y.Y.Y.Y.Y.Y.Y.Y.Y.Y.",
"Y.Y.Y.Y.Y.Y.Y.Y.Y.Y.Y.Y.Y.C ! N.F.) c u , Y | #.s.N.V.=.s.U }.5XeX5XXX8 f.=.N.B.B.m.O.I K u e E V.N.^ Y.Y.Y.Y.Y.Y.Y.Y.Y.Y.Y.Y.Y.Y.",
"Y.Y.Y.Y.Y.Y.Y.Y.Y.Y.Y.Y.Y.Y.C z d F Y.U.b O ; 7 =.s.b.#.>., 0.&X,X*XT.: >.@.V.s.=.Y 5 u b C Y.S d f C Y.Y.Y.Y.Y.Y.Y.Y.Y.Y.Y.Y.Y.Y.",
"Y.Y.Y.Y.Y.Y.Y.Y.Y.Y.Y.Y.Y.Y.Y.Y.Y.Y.Y.Y.Y.C g O @ : { s.} < 1.).E.).<.2 ] s.{ ; # O b Z Y.Y.Y.Y.Y.Y.Y.Y.Y.Y.Y.Y.Y.Y.Y.Y.Y.Y.Y.Y.Y.",
"Y.Y.Y.Y.Y.Y.Y.Y.Y.Y.Y.Y.Y.Y.Y.Y.Y.Y.Y.Y.Y.Y.Y.Y.x r L s.7 * , <.0.<., 1 6 >.I t M Y.Y.Y.Y.Y.Y.Y.Y.Y.Y.Y.Y.Y.Y.Y.Y.Y.Y.Y.Y.Y.Y.Y.Y.",
"Y.Y.Y.Y.Y.Y.Y.Y.Y.Y.Y.Y.Y.Y.Y.Y.Y.Y.Y.Y.Y.Y.Y.Y.Y.Y._ a.E { [ { ( { { E { a.7.U.Y.Y.Y.Y.Y.Y.Y.Y.Y.Y.Y.Y.Y.Y.Y.Y.Y.Y.Y.Y.Y.Y.Y.Y.Y.",
"Y.Y.Y.Y.Y.Y.Y.Y.Y.Y.Y.Y.Y.Y.Y.Y.Y.Y.Y.Y.Y.Y.Y.Y.Y.Y.B @ @ @ o % o % % @ - a B Y.Y.Y.Y.Y.Y.Y.Y.Y.Y.Y.Y.Y.Y.Y.Y.Y.Y.Y.Y.Y.Y.Y.Y.Y.Y.",
"Y.Y.Y.Y.Y.Y.Y.Y.Y.Y.Y.Y.Y.Y.Y.Y.Y.Y.Y.Y.Y.Y.Y.Y.Y.Y.Y.U.U.U.U.U.U.U.U.U.U.U.Y.Y.Y.Y.Y.Y.Y.Y.Y.Y.Y.Y.Y.Y.Y.Y.Y.Y.Y.Y.Y.Y.Y.Y.Y.Y.Y.",
"Y.Y.Y.Y.Y.Y.Y.Y.Y.Y.Y.Y.Y.Y.Y.Y.Y.Y.Y.Y.Y.Y.Y.Y.Y.Y.Y.Y.Y.Y.Y.Y.Y.Y.Y.Y.Y.Y.Y.Y.Y.Y.Y.Y.Y.Y.Y.Y.Y.Y.Y.Y.Y.Y.Y.Y.Y.Y.Y.Y.Y.Y.Y.Y.Y.",
"Y.Y.Y.Y.Y.Y.Y.Y.Y.Y.Y.Y.Y.Y.Y.Y.Y.Y.Y.Y.Y.Y.Y.Y.Y.Y.Y.Y.Y.Y.Y.Y.Y.Y.Y.Y.Y.Y.Y.Y.Y.Y.Y.Y.Y.Y.Y.Y.Y.Y.Y.Y.Y.Y.Y.Y.Y.Y.Y.Y.Y.Y.Y.Y.Y.",
"Y.Y.Y.Y.Y.Y.Y.Y.Y.Y.Y.Y.Y.Y.Y.Y.Y.Y.Y.Y.Y.Y.Y.Y.Y.Y.Y.Y.Y.Y.Y.Y.Y.Y.Y.Y.Y.Y.Y.Y.Y.Y.Y.Y.Y.Y.Y.Y.Y.Y.Y.Y.Y.Y.Y.Y.Y.Y.Y.Y.Y.Y.Y.Y.Y.",
"Y.Y.Y.Y.Y.Y.Y.Y.Y.Y.Y.Y.Y.Y.Y.Y.Y.Y.Y.Y.Y.Y.Y.Y.Y.Y.Y.Y.Y.Y.Y.Y.Y.Y.Y.Y.Y.Y.Y.Y.Y.Y.Y.Y.Y.Y.Y.Y.Y.Y.Y.Y.Y.Y.Y.Y.Y.Y.Y.Y.Y.Y.Y.Y.Y."
};
