/* XPM */
static char *_4f0994c82cb40f1e4ae389d4087f338CVih8C6NUx3lUFb8[] = {
/* columns rows colors chars-per-pixel */
"65 65 226 2 ",
"   c #1E2325",
".  c #222627",
"X  c #232628",
"o  c #2A262D",
"O  c #252A2B",
"+  c #292D2C",
"@  c #2C312E",
"#  c #2B2931",
"$  c #332534",
"%  c #342B37",
"&  c #3B243B",
"*  c #2D3234",
"=  c #2D353B",
"-  c #2C363D",
";  c #313631",
":  c #393C36",
">  c #343A39",
",  c #40233F",
"<  c #682231",
"1  c #3D413C",
"2  c #42453C",
"3  c #3E2840",
"4  c #2E3A43",
"5  c #3E3646",
"6  c #323C44",
"7  c #3E3E52",
"8  c #422B44",
"9  c #473A47",
"0  c #563840",
"q  c #483750",
"w  c #1E4D5A",
"e  c #29464D",
"r  c #344145",
"t  c #3C4445",
"y  c #37464B",
"u  c #3C4A4B",
"i  c #274B57",
"p  c #2B4D54",
"a  c #354C52",
"s  c #3A4A57",
"d  c #2D5057",
"f  c #25535C",
"g  c #2B535C",
"h  c #375459",
"j  c #1C5B67",
"k  c #374F60",
"l  c #3D4E65",
"z  c #2C5560",
"x  c #235A64",
"c  c #285864",
"v  c #235E69",
"b  c #2C5D6D",
"n  c #3C5167",
"m  c #355962",
"M  c #37576B",
"N  c #3A546A",
"B  c #345A6D",
"V  c #2F5F71",
"C  c #315E70",
"Z  c #17616E",
"A  c #1D626D",
"S  c #156674",
"D  c #1B6572",
"F  c #166976",
"G  c #196976",
"H  c #00818A",
"J  c #1B6B7A",
"K  c #22616D",
"L  c #2A626C",
"P  c #256676",
"I  c #2B6273",
"U  c #216977",
"Y  c #474847",
"T  c #434B4C",
"R  c #544B4A",
"E  c #495247",
"W  c #4B524C",
"Q  c #54554B",
"!  c #56584A",
"~  c #454759",
"^  c #5A4B52",
"/  c #455251",
"(  c #4D5554",
")  c #4A5A58",
"_  c #545452",
"`  c #5B5557",
"'  c #545A54",
"]  c #5B5C53",
"[  c #545C5B",
"{  c #625E4E",
"}  c #625D55",
"|  c #58614E",
" . c #5C6354",
".. c #56615C",
"X. c #59615E",
"o. c #636254",
"O. c #686957",
"+. c #6C6659",
"@. c #6B6959",
"#. c #726D5B",
"$. c #69745C",
"%. c #75715C",
"&. c #7A765E",
"*. c #434660",
"=. c #414B63",
"-. c #435D61",
";. c #436164",
":. c #5A6665",
">. c #6E7365",
",. c #6F726D",
"<. c #757466",
"1. c #727C63",
"2. c #7D7A64",
"3. c #B9161D",
"4. c #AE182C",
"5. c #912A3C",
"6. c #B3252F",
"7. c #C81B2C",
"8. c #E51B26",
"9. c #F71D26",
"0. c #CE2326",
"q. c #831E45",
"w. c #985351",
"e. c #837D64",
"r. c #867C6A",
"t. c #7A8769",
"y. c #7B846A",
"u. c #7D8277",
"i. c #83866B",
"p. c #8A846A",
"a. c #8E896C",
"s. c #918A6E",
"d. c #82916F",
"f. c #858A71",
"g. c #898976",
"h. c #948D72",
"j. c #958B75",
"k. c #8A9775",
"l. c #8F9C79",
"z. c #9C9575",
"x. c #9A9678",
"c. c #949C7B",
"v. c #A19679",
"b. c #A39B7B",
"n. c #94A37D",
"m. c #98A67E",
"M. c #A5A37D",
"N. c #AAA27E",
"B. c #8D8887",
"V. c #9A9887",
"C. c #A29D87",
"Z. c #9AA782",
"A. c #99AB82",
"S. c #9FB085",
"D. c #A2A381",
"F. c #ACA581",
"G. c #ADAA84",
"H. c #00818A",
"J. c #B4AA86",
"K. c #B4AC85",
"L. c #A2B186",
"P. c #A5B489",
"I. c #AAB48B",
"U. c #ABB88B",
"Y. c #BCB38A",
"T. c #B1B88D",
"R. c #ADAA95",
"E. c #AEB992",
"W. c #B6B995",
"Q. c #B2AEA3",
"!. c #BBB7A9",
"~. c #C0B78D",
"^. c #C3BA8E",
"/. c #C5BD91",
"(. c #C7BE94",
"). c #C3BCB2",
"_. c #B6C291",
"`. c #BBC595",
"'. c #BDC69A",
"]. c #CBC295",
"[. c #CDC49A",
"{. c #C0C899",
"}. c #C3CD99",
"|. c #D0C69A",
" X c #D4CB9D",
".X c #C6D09B",
"XX c #C9D29E",
"oX c #C4C5A2",
"OX c #C7CAA3",
"+X c #CCCEA9",
"@X c #D6CDA1",
"#X c #D7CDA2",
"$X c #CCD4A4",
"%X c #CDD3AA",
"&X c #DBD2A4",
"*X c #D2D4AE",
"=X c #DED6AA",
"-X c #D3DBA9",
";X c #D4DBAC",
":X c #C7C5B7",
">X c #D8DAB3",
",X c #E1D7A8",
"<X c #E4DBAB",
"1X c #E3DEB8",
"2X c #D9E1AF",
"3X c #DDE3B5",
"4X c #DEE4B8",
"5X c #EBE1AF",
"6X c #EDE3B2",
"7X c #E2E4BA",
"8X c #EAE4BC",
"9X c #E5EBBC",
"0X c #E8EDBF",
"qX c #F4EAB7",
"wX c #F5ECBA",
"eX c #FDF3BE",
"rX c #D9D8C9",
"tX c #EBE7C9",
"yX c #FBF4C8",
"uX c #E6E5D7",
"iX c #F2EED1",
"pX c #FAF7DA",
"aX c #F5F4E4",
"sX c #FCFBE4",
"dX c #FDFDEC",
"fX c ivory",
/* pixels */
"H H H H H H H H H H H H H H H H H H H H H H H H H H H H H H H H H H H H H H H H H H H H H H H H H H H H H H H H H H H H H H H H H ",
"H H H H H H H H H H H H H H H H H H H H H H H H H F Q @.T j j x i i f w i e e e x H H H H H H H H H H H H H H H H H H H H H H H H ",
"H H H H H H H H H H H H H H H H H H H H H H H H H H g a.Y.^.<X6X6X<X<X=X=X=X@XK.b.' D H J P H H H H H H H H H H H H H H H H H H H ",
"H H H H H H H H H H H H H H H H H H H H H H H I H H H v ] F.Y.~.^.^.^.^./././.^.6XtXu.j J P H H H H H H H H H H H H H H H H H H H ",
"H H H H H H H H H H H H H H H H H H H H H H H l M l V I B D d u Y Y R Q Q Q ! z.].pXdXV.x B J H H H H H H H H H H H H H H H H H H ",
"H H H H H H H H H H H H H H H H H H H H H H H H H H U P I J H H B C M H H H H p s.].iXpXx.c N J H =.B H H H H H H H H H H H H H H ",
"H H H H H H H H H H H H H H H H H H H P J H H H H H H H H P P M B I J H H H H P s x.^.&X Xh.` v H n B J H H H H H H H H H H H H H ",
"H H H H H H H H H H H H H H H H H H H I U H H H H H H H H J J H H H H H H H H N I u N.^.6XyXdXV.j I =.I H H H H H H H H H H H H H ",
"H H H H H H H H H H H H H H H H H H H C C H H H H H H H H I M H H H H H H P M P H S W Y.|.6XiX*X' b N I H H I J I N H H H H H H H ",
"H H H H H H H H H H H H H H H H H H H H H H J I J H H H H H I B G x Q o.{ ] ` ' Y r o.^.K.Y 2 @.#.a =.C H U M H H J H H H H H H H ",
"H H H H H H H H H H H P J H M P H H H H H H H a 7 b F H H H H U Y h.(.wXeXsXdXdXaX8X@X^.z.X - 6 6 t 5 p H I N J H H H H H H H H H ",
"H H H H H H H H H H H l J H M P H H H H H H H o.z.p.@._ u f j ] J.^.F.^. XpXdXdXdXyXqX^.p.. = 6 r [ X.( y N N J H H H H H H H H H ",
"H H H H H H H H H H H N I H A q 7 D H H H H H G a 2.J.@X6X<XJ.Y.^.h.9 y R %.G.[.@X<X=X^.p.. + 6 6 [ X.X.[ t x H H M H H H H H H H ",
"H H H H H H H H H H H I b ] s.z.s. .F H J C J H H D a #.G. X XY.%.f H H B m w u @.p.G.^.p.. . - 6 u X.X.X.X.t x H P M H H H H H H ",
"H H H H H H H H H H H H D &.z.Y.v.h.c H N n J H H H H F f Q &.W A H H H U M S w 4 : f.}.a.. . + 5 6 T [ [ ( 6 @ i I I H H H H H H ",
"H H H H H H H H H H H H H S f u v.Y.+.N M C J H H H H H H J P C B J H H H D i Y <.>X0X0Xf.. . . % 8 4 6 6 E 1.c.V. .k J H H H H H ",
"H H H H H H H H H H H H H H H A z.^.v.s J J B H H H H H H J P J J M M H F u 1.I.V.+X7X4X$.. X ; Y ^ i.g.c.3X*X9X0XV.` N M H H H H ",
"H H H H H H H H H H H H H H H H 2.^./.O.H I I B J H H J J H H H H P P H a k.A.$XoXH.*X;X$.1.n.m.A.r.x.W.x.W.W.+X0X>XOX/ ~ I J H H ",
"H H H H J J H H H H I ~ H H H H h K.<X6X..H H P I J J P I C I H H H F e t.A.U.$XoXV.+X$Xm.m.A.U..X.XD.x.XXoX0XoXoX0X9Xl.s M =.H H ",
"H H H H P C J H H H P n H H H M b z.].wX<X) H P I I M H M B M H H f  .W.L.A._.-XR.C.H.'.l.l.A.T..X.XD.H.I.;X0X>X*X3X0X$X .I l U H ",
"H H H H H B I H H H J P H H C M H ) K. XsXrX[ F H H M H N B C V / Z.7X9XP.A.'.-X+XW.oX`.A.A.L.D.x.j.}..X`.>X0X0X3XoX>X4X<.z U U H ",
"H H H H H P P F a s.p.q i j V P H H  .Y.=XdXuX:.F H B H H H V ~ m.4X0X>XA.A.}.>X3XoX0XE.A.A.`..X}.H.p.T..X2X4X3X3X%Xj.R.k.! y v H ",
"H H H H H P n ( N.&X6X@X>X!.V.s j H G @.Y.7XdXrX-.M ~ H H H s 1.E.9X0X'.k.A.}.;X%X>X9XP.A.A.T._._.L.f.t.t.1. .E : : c.k.t.t ( t H ",
"H H H H H P _ K.^.|.qXeXpXfXfXaXW.] H A e.^.tXdXQ.s U H H g >.L.`.9X0X3XA.L.}.W.W.oX9XA.m.k.t.! @ O % 3 * 4 6 6 > M..Xc._ u X.' H ",
"H H H H A o.Y.^.Y.K.^.].&XiXsXdXyXY.) H c z./.wXpXb.K H G $.I._.'.9X0X-XA.L.}.W.R.C.+Xk.: X . . # 9 0 0 0 9 6 r m..X'.t.% 6 [ ( H ",
"H H H D O.Y.^.K.+.Y Q o.p.N.^.|. X^.z.v H h K.].wXwX:.H ( T.{._.`.9X0X$XA.P..XoX7X0XoX^ $ o & < 7.3.9.7.9.6.r m.}..XL.: & 6 6 - H ",
"H H d p.Y.Y.z.T P H H F D i T #.Y.^.^. .D H O.^.<XeXD.c l..X.X_.`.9X0XI.t.Z..X3X0X0X%X] o . $ < 6.4.3.8.9.5.W.-X.X_.| . 9 j./.] H ",
"H ' M.^.N.+.c B V H H H J P I k +.Y.&X6Xx.i z s.&XeX[.E A.U.U.L._.$X4X_.f.P.G.;X0X0XOXE . . . # 6.q.3.8.0.W.*XH.I.1.+ p.b.qXpX:.H ",
"H e.&.W d B B M H H H I I N P C z a.|.eXeX&X] ^ [.eX<X1.A.m.t. .U..X.X}.A.n.D.{.>X0X'.: . . . * 0 6.5.w.J.>X+Xj.t.2 F.@XF.6XaX-.H ",
"H j H H I N H H H H H H H J H H H a b.,XeXeXwXj.^.<X&Xk.$.; . ; L..X.X}.A.L.x.$XoX*XI.@ . . . O 6 - g.4X0X0X;Xd.2 p.[.6X~.6XuXK H ",
"H H H H M P H H H H H H H H H H H F / K.6XeXwX,X^.^.F.: . . O * m..X.XH.Z.P.{.>X0XoXE.X . . . .  .'.0X0X7X;Xd.1 b.p.J.OXM.=X!.D H ",
"H H H H M P H H H H H N B M I M J H P ] ~. X/.^.^.Y.! . O - 6 = l.}..XI.i.L..X;X0X+XI.X . . ; i.7X0X0X7XW.t.O R b.{ 2.a.e.@X,.H H ",
"H H H H H H H I M H H U n P I M J H M v +.K.Y.^.^.&.. * 6 6 6 6 k.'..X}.c.n.}.$X0X7XI.X + | T.$X0X0X3XE.$.% # : { r t 1 r Q m H H ",
"H H H H H H H H I I H H H H H H H H V M B p R %.N.: = 6 6 y T - d.S.}.{.l.A.}.XX9X0XP. .l.L.}.$XoXZ.t.R $ # 5 +.r.+.r.R o.W J.D H ",
"H H H H H H H H H b 7 7 f A B J H H H K s X.:X6X(.1 6 6 T [ X.t d.A.A.P.c.l.`..X$X$XU.A.A.L.}.T.m.n.$.. . O 4 5 #.x.OXj.%.=X!.S H ",
"H H H H H H H H H L e.z.b.s.2.~ w w / C.uXuXdXwX(.Q 6 6 ( X.X.t t.A.A.A.A.A._..X.X.XU.A.A.A.A.n.$.d.1 . . . = 6 t J.&X/.<XpXu.H H ",
"H H H H H H H H H H x ] x.^.5X@X,X<XwXsXfXsX8X].^.a.6 6 / X.[ * 1 $.k.A.A.i.g.}..X.XU.A.A.n.t.; O.1.$ & $ X $ 6 6 T D.wXpXuXm H H ",
"H H H H H H H H H H H H f t h.N.].qXwXyX1X].Y.].].N.+ 4 6 6 > p H A i p  .f.} c.D.D.U.n.t.* . @ k.E . $ & $ & % 6 u X.<.>Xg.H H H ",
"H H H H H H H H H H H H J P U a Q b.Y.Y.N.@.x.wX,X^.K.o.* - i H J I I J x t.f.l.k.G.c.@ . . 2 P.m.& & $ o . . O 4 / X.X.[ g H H H ",
"H H V V H H H H H H H B J P B M I A u t t R.sXyX&X/.6Xh.G H H M B I J H H / n.A.A.A.l.+ X ; d.t.; $ & $ & $ . . + u [ :.[ g H H H ",
"H H ~ T D H J P H P P J I I P B n M H h :XdXdXqX].[.eXx.H I N I H H H H H D O.A.A.A.m.W.%X*Xn.; . . . . o o $ X . + 6 u 8 d H H H ",
"H H ~ r.s.T M P H M N H J M M J H F W rXfXdX1X^.p.|.eXg.H I H H H H H H I J x 1.A.A.A.oXE.t.2 , , 8 $ & & & $ X . + X $ % D H H H ",
"H H P ( K.K.e.e a s l H H H C C D O.1XfXpX@Xb.! Y  XeXu.H H H H H H H V V H J g 1.m.m.E +   . o & , & $ , $ . . = v c ~ B H H H H ",
"H H H F ( F./.(.~.F.b.2.e j x s 2.6XyX7XY.2.i H )  XwX,.H H H H H P U =.N M M M h >.n.2 . . . . . . . . . . X r K I M C C H H H H ",
"H H H H F s h.Y.@X&X&XeXwXY.p.e.6X6X].h.a G H H ..@X6X;.H H H H H I =.*.V =.I J H T F.Y.e.! X     . . . X * z I J J J M N H H H H ",
"H H J P M U c a ' #.z.~.[.].^.^./.N.] v H H H H X.@X<Xf H H H H H H H H H H H F h N.<X6X^.^.^.z.a.&.> r d H H N U H H N P H H H H ",
"H H H J H H H H H I g a T o.a.b.@.d H H H H H H >.&X(.M I H H H H H H H H H H / J.8XyXwX/.^.^.|.sXR.G H H U n M U H J N P H H H H ",
"H H H H H H H H H U U H H F G G F H H H H H H H <.].b.P H H H H H H H H H H ) Y.pXuXsXF.z.^. XyXdX,.H H H P =.H H H H J J H H H H ",
"H H H H H H H H H H H H H H H H H H H I H H H G 2.^.2.S H H H H H H H H H / Y.pX:X!.<.j a Y.5XeXg.v H H I n B H H H H H H H H H H ",
"H H H H H H H H H H H H H H H H J C M n J H H h K.Y.[ H H H D Q %.#.o.q Y Y.yX!.:X:.G H <.^.].G.h I H H I B I H H J M J H H H H H ",
"H H H H H H H H H H H H H H H H J C M l M H A a.^.#.b J I M ^ ].[.^.^.j.^.qX=X+.z H H D h.[.wX<.N H H H I M H H H H ~ P H H H H H ",
"H H H H H H H H H H H H H H H H H H H H J N o.~.e.A I B I _ Y.<XF.h.z.s.F.h.d I I H H h K.tXrX~ C H H H H H H H H H =.N H H H H H ",
"H H H H H H H H H H H H H H H H P P H H J s F.s.x H H H h Y.(.#.x J b f i D N I H H H <.[.).B.B C H H H H H H H H J M P H H H H H ",
"H H H H H H H H H H H H H H H H M M H H D p.h.d H H H c x.=X} b H I I H H H H J H H x z.,XQ.~ J B H H H H H H H H P B M H H H H H ",
"H H H H H H H H H H H H H H H H H H P P ' a.q J P J D 2.Y.) I P H I J H H H H H H K +.Y.6Xj.b H M U H H H H H H H B =.H H H H H H ",
"H H H H H H H H H H H H H H H H H H J J W d N P P I _ p.m H M I H H H H H H I n T e.F./.N.m M J P P H H H H H H H H H H H H H H H ",
"H H H H H H H H H H H H H H H H H H H H H H H H H J Q c H H M P H H H H H H z +.K. X,Xh.d H H H H H H H H H H H H H H H H H H H H ",
"H H H H H H H H H H H H H H H H H H H H H H H H H H H H H H B J H H H H D ) z. X<XY.) F H H H H H H H H H H H H H H H H H H H H H ",
"H H H H H H H H H H H H H H H H H H H H H H H H H H H H H H N I H H H g %./.<X@X` k J H H H H H H H H H H H H H H H H H H H H H H ",
"H H H H H H H H H H H H H H H H H H H H H H H H H H H H H H H J H G W b.].<X2.d I I B N n n H H H H H H H H H H H H H H H H H H H ",
"H H H H H H H H H H H H H H H H H H H H H H H H H H H H H H H H H ( K. Xp.a H =.B H U P M M H H H H H H H H H H H H H H H H H H H ",
"H H H H H H H H H H H H H H H H H H H H H H H H H H H H H H H H K z.b.Y b J V I H H H H H H H H H H H H H H H H H H H H H H H H H ",
"H H H H H H H H H H H H H H H H H H H H H H H H H H H H H H H F  .z.~ B H J V I H H H H H H H H H H H H H H H H H H H H H H H H H ",
"H H H H H H H H H H H H H H H H H H H H H H H H H H H H H H H F ] h J H H H H H H H H H H H H H H H H H H H H H H H H H H H H H H ",
"H H H H H H H H H H H H H H H H H H H H H H H H H H H H H H H H H H H H H H H H H H H H H H H H H H H H H H H H H H H H H H H H H "
};
