/* XPM */
static char *f3da5b8dfc0e42acbbc3a478af83c6e5xVCbwWge4XyZP8vP[] = {
/* columns rows colors chars-per-pixel */
"65 65 226 2 ",
"   c #1E2325",
".  c #222627",
"X  c #252629",
"o  c #2B252D",
"O  c #262A2C",
"+  c #292C2C",
"@  c #2C322F",
"#  c #2F2632",
"$  c #272D30",
"%  c #2D2B31",
"&  c #322534",
"*  c #352D36",
"=  c #2C3437",
"-  c #2C353B",
";  c #353837",
":  c #3A3A39",
">  c #68232B",
",  c #3D413C",
"<  c #42453C",
"1  c #3F2A41",
"2  c #2F3A41",
"3  c #323C43",
"4  c #3B3945",
"5  c #393E51",
"6  c #473B45",
"7  c #563840",
"8  c #1D4C58",
"9  c #2A444C",
"0  c #3C4445",
"q  c #34454A",
"w  c #3C444B",
"e  c #3B494B",
"r  c #244B55",
"t  c #2C4C54",
"y  c #284C58",
"u  c #354454",
"i  c #3A4450",
"p  c #334B54",
"a  c #364759",
"s  c #334B5C",
"d  c #26545D",
"f  c #2D5259",
"g  c #2D525D",
"h  c #385458",
"j  c #0B4E60",
"k  c #1C5C68",
"l  c #324F60",
"z  c #235661",
"x  c #2E5565",
"c  c #245A64",
"v  c #2A5965",
"b  c #265E6D",
"n  c #2A5B6A",
"m  c #305262",
"M  c #335B62",
"N  c #3A5B61",
"B  c #1C626D",
"V  c #156573",
"C  c #1C6673",
"Z  c #166976",
"A  c #1B6977",
"S  c #136E7C",
"D  c #1A6A78",
"F  c #25606F",
"G  c #2A626C",
"H  c #226372",
"J  c #444B45",
"K  c #424C4C",
"L  c #494848",
"P  c #514E46",
"I  c #524D4B",
"U  c #47514A",
"Y  c #4B524C",
"T  c #54544B",
"R  c #56574B",
"E  c #4B4E51",
"W  c #524F54",
"Q  c #455353",
"!  c #4D5554",
"~  c #49595A",
"^  c #555656",
"/  c #545B53",
"(  c #5A5C53",
")  c #545B5B",
"_  c #625F4F",
"`  c #625D54",
"'  c #685F53",
"]  c #57604D",
"[  c #5C6354",
"{  c #5C6759",
"}  c #59615E",
"|  c #636354",
" . c #686758",
".. c #6B6B5A",
"X. c #726D5B",
"o. c #6C735E",
"O. c #6A755C",
"+. c #75715C",
"@. c #7A765E",
"#. c #435D61",
"$. c #596767",
"%. c #676964",
"&. c #6E7565",
"*. c #737364",
"=. c #797667",
"-. c #737C63",
";. c #7D7B64",
":. c #767C76",
">. c #A21927",
",. c #B41D2A",
"<. c #8E363A",
"1. c #B4262D",
"2. c #C9171F",
"3. c #D31923",
"4. c #F01C25",
"5. c #CD292C",
"6. c #B06352",
"7. c #837D64",
"8. c #857E6A",
"9. c #778266",
"0. c #7B846A",
"q. c #7D896B",
"w. c #7D8277",
"e. c #868166",
"r. c #868268",
"t. c #8B856A",
"y. c #818C6E",
"u. c #8E896C",
"i. c #928B6E",
"p. c #82916F",
"a. c #848D70",
"s. c #898873",
"d. c #958E71",
"f. c #938D78",
"g. c #869473",
"h. c #8C9574",
"j. c #8C9976",
"k. c #8F9179",
"l. c #8E9D79",
"z. c #949375",
"x. c #9C9475",
"c. c #969778",
"v. c #9B9479",
"b. c #949C7B",
"n. c #9B9C7B",
"m. c #A29978",
"M. c #A39B7B",
"N. c #94A47D",
"B. c #9BA47E",
"V. c #98A87F",
"C. c #A7A07D",
"Z. c #AAA27E",
"A. c #949186",
"S. c #A49D82",
"D. c #99A680",
"F. c #99AB82",
"G. c #9FA88F",
"H. c #ADA581",
"J. c #A3AC83",
"K. c #ABAB84",
"L. c #A7A889",
"P. c #B3AB84",
"I. c #B2AA86",
"U. c #A5B388",
"Y. c #ADB58A",
"T. c #B8B08A",
"R. c #BCB38B",
"E. c #B4BC8E",
"W. c #ADAD95",
"Q. c #B3B595",
"!. c #B5BC93",
"~. c #BBBB96",
"^. c #BAB7A6",
"/. c #BFBDB5",
"(. c #C0B78D",
"). c #C3BA8E",
"_. c #C5BC92",
"`. c #C8BF93",
"'. c #C5BD9A",
"]. c #BBC594",
"[. c #BFC996",
"{. c #BAC398",
"}. c #CBC295",
"|. c #C6C69B",
" X c #C3CC9A",
".X c #D0C79B",
"XX c #D4CB9D",
"oX c #C6D09B",
"OX c #C3C5A1",
"+X c #C7CBA4",
"@X c #CACDA6",
"#X c #D4CCA2",
"$X c #D7CFA7",
"%X c #CBD3A5",
"&X c #CDD2A9",
"*X c #DBD2A4",
"=X c #D1D6AC",
"-X c #DDD5A9",
";X c #D5DBAD",
":X c #CAC9B5",
">X c #D7DBB1",
",X c #DADAB3",
"<X c #E1D7A7",
"1X c #E3DAAA",
"2X c #E3DBB5",
"3X c #D9E1AF",
"4X c #DDE2B5",
"5X c #DEE4B8",
"6X c #EBE1AF",
"7X c #EDE3B2",
"8X c #E8E4BB",
"9X c #E5EABC",
"0X c #E8EDBF",
"qX c #F3E9B6",
"wX c #F6EDBA",
"eX c #FCF2BE",
"rX c #D7D6C8",
"tX c #EAE9C7",
"yX c #FBF4C8",
"uX c #E9E8D9",
"iX c #F2EED0",
"pX c #FAF7DA",
"aX c #F4F4E2",
"sX c #FCFAE4",
"dX c #FDFDEC",
"fX c ivory",
/* pixels */
"S S S S S S S S S S S S S S S S S S S S S S S S S S S S S S S S S S S S S S S S S S S S S S S S S S S S S S S S S S S S S S S S S ",
"S S S S S S S S S S S S S S S S S S S S S S S S S D / ..K k k z r r y d r 9 9 9 c D S S S S S S S S S S S S S S S S S S S S S S S ",
"S S S S S S S S S S S S S S S S S S S S D C n H x x p X.x.Z._.1XS.#X_._.-X-X$XP.m./ V S D D S D x S S S S S S S S S S S S S S S S ",
"S S S S S S S S S S S S S S S S S S S A n x s H D H Z g ( Z.Z.m.x.P.T.H._._._.).7XtXw.y n H D D s s S S S S S S S S S S S S S S S ",
"S S S S S S S S S S S S S S S S D S S n H D D S S S S D Z n q e J J T P T T T x.}.pXdXA.c H n S Z Z S S S S S S S S S S S S S S S ",
"S S S S S S S S S S S S S S D H s m D H Z n A S n n H n v n D S S S S S S S S t d.}.iXpXv.z H H S v Z S n n S S S S S S S S S S S ",
"S S S S S S S S S S S S S S D H H n H b Z m n n x l x n b x m D S S D Z x s S S t x.).*XXXz.( g S n b S S H H S S S S S S S S S S ",
"S S S S S S S S S S S S S S n S S S S S S x S S S n C S H x u n H n x a s s Z H D e Z._.7XyXdXs.c D u H S S v D D S S S S S S S S ",
"S S S S S S S S S S S S S D n v Z S S S S s n D S F H S S D H H n D b a C m C H v b L T..X7XiX'.I n a x S S S n x D D S S S S S S ",
"S S S S S S S S S H x S S S H n Z n D S S D H x l 5 H S S H v H x g P I T 6 W ^ J q T m.P.J < ..X.y x x A H F S H b H S S S S S S ",
"S S S S S S S S S H F n n F H S S H H S S S F 4 r u s l H n n Z K d.`.7X'.A.uXdXaX8X#XZ.t.X - 3 3 0 4 u m x x D S H x H S S S S S ",
"S S S S S S S S S S S D D b n S S C C S S D H ( x.r...L 1 4 p I P.).R._.}.^.rXaXdXyXqX).t.o - 3 4 ^ ) 6 4 b A s S D s b S S S S S ",
"S S S S S S S S S S S S D x u y y p l S S H n b e ;.R.}.'._.8.u.m.d.e e T +.m.m.#X1X-X).t.o $ 3 4 ! ) ^ W 0 g H n C b n S S S S S ",
"S S S S S S S S S S S S Z T t.x.x.L a s H H H D n B p X.H..X_.m. .d S S Z B 8 e  .t.H.).r.. . - 3 4 ) } W W 4 u m H v s H S S S S ",
"S S S S S S A D S S S S V X.i.m.x.8.g n n x H m H S S Z d T ' Y x H S S S S V j 9 : s.|.u.. . $ 3 4 6 ) ) E 4 * 5 n v n n S S S S ",
"S S S S S S n n S S H D S b t e Z.P. .s x x Z S S S S D m v H S D x s s S Z 8 U n.9XtX0Xy.. . . - 3 2 3 3 U -.8.s.L s C H D S S S ",
"S S S S S S D v A v H H S S S B x.).Z.5 l A x D S S S D b 5 a x m m x 5 p 4 ..!.9X0X0X4XO.. X ; J O.j.l.].4X0X0X0XL.I C H H S S S ",
"S S S S S D D H Z S S H H S H n ;.)._.( b S n m C H n x n H n l n a s 4 1 6 ^ ` S.9X9X;XO.-.N.V.U.[. X X!.4X0X0X0XQ.k.Q Z n S S S ",
"S S S S D v H S H H S S n D S H w P.1X1X! D S S n D D H D D H H H S Z 9 &.o.h.L.Q.+XQ.L.F.F.F.Y. X X[.[.!.OX>X>X9XL.*.a.g H S S S ",
"S S S S S S H n S b A S H H S S v u.m.wX*XE D S H n v H m Z H n x u P ~.U.F.J. X4X>X{.k.o.j.D. XoXY.K.J.E.9X9X4X&X>X~.k.{ x S S S ",
"S S S S S S D F H C x D D x H S S ~ P.P.sX^.~ Z S H x b a v x x 6 *.W.9XU.F.].|.&XOXOXb. . .y.K.Y.B.[.E.n.Q.=X0X=XW.>X&Xg.p S S S ",
"S S S S S S S Z w i.X.4 r z n S S D [ m.$XdX/.$.D b A D n n H h V.@XOX=XF.F. X@X=X9X=XY.j.N.b.n.E.[.K.Y.[.3X@X~.4X;X~.%XF.T t B S ",
"S Z b H S S D ! Z.H.qX7X,X^.A.h k S C ` R.8XdXrX#.b H S S D f  .b.4X0XQ.D.F. X>X&X>X9XU.F.F.b.J.r.l.B.0.o.-.[ U : : j.N.g.0 ! 0 S ",
"S Z b H S Z ( P.)..XqXeXpXfXrXuXQ.( Z g 7.).tXdX^.i s S S u -.h.D.OX0XOX9...c.L.@X4X9XF.V.j.9./ * # O $ = 2 3 3 : B.E.F.[ w } ! S ",
"S S D n B | T.).).R.).}.*XtX/.aXyXT.Q s c x._.wXiX8.s v H ..[.E.].@XW.Q.l.-.c.8.=.X.s.-.: % X X * 6 7 7 7 6 3 q B.oXY.9.$ 3 ~ ! S ",
"S S S b ( T.).m. .J T | 7.Z.m..XXX).u.c S h P.P.T.#X^ m Y b.].B.].4XL.k.g.J. X=X@Xc.*.T o o o > 1.>.4.3.4.1.q B. XoXa.: O 3 3 - D ",
"S S f e.H.R.t.K C D D F x q K X.T.).H.[ V D  .H.R.#Xz.z j.[.B.B.].9X9XY.q.y.oX4X0X0X&X[ . . . > 3.>.>.4.4.<.Q.;XoX].T o : v._.( D ",
"S ! C.).H.@.p n S H H b D S S B +.)._.7Xn.y c x._.qXR.L j.h.U.U.].%X&XU.` -.z.{.>X0X+XU . . . * 5.2.2.4.5.|.0X4X[.-.% t._.eXpX$.S ",
"S &.@.Y z V H H v S S S S S S S c 7._.eXeX*X| _ }.eX1X-.F.q. .P a.E.J.c.*.B.B.{.>X0X[.; . . . $ 7 1.,.6.-X0X0X%Xq.< H.#X_.wXaX#.S ",
"S k S S S C n D x H S S S S H D S h u.*XeXeXwXR.).1X*Xh.O.; X * h.n. X XF.U.[.=X0X0X{.@ . . . O 3 - b.5X0X0X;Xy.< r..X8X(.7XuXF S ",
"S S S S S H D D x D S S S S n H H x K P.7XeXwX<X).).H.; . . O @ N.Y.Y. XF.B.[.%X0X@XD.X . . o X [ {.0X0X0X;Xy., m.r.P.+XC.-X^.V S ",
"S S S S D n S S m S S S S S H n H S V ( (.XX_.).).T.T . O - 3 - l.J.K.Y.y.B.oX;X0XOXB.X & & * 9.{.~.L.9X%Xq.+ P m._ ;.u.7.#X&.S S ",
"S S S H H H S S S D S S S S D H n S S B  .P.R.).).@.. = 3 3 3 3 g.[.c.n.j.F. X X0XQ.k.X + ] E.=X0X0X+X!.o.X O : ` q 0 , q T M S S ",
"S S S H S S S S D H n D S S S S D n D S D t P +.Z.; = 3 3 w K - p.J.J.].j.g.B.K.&X4Xb.T q.9.J. X&X{.V.T o O 2 +.x. .i.P | Y P.V S ",
"S S S S S S S S S Z t q d B S S S H n V f %.:X7X`., 3 3 K } } 0 y.F.F.B.j.V.[.E.!.!.h.9.N.U. XY.D.V.[ X o X 3 3 e.R.,Xm.+.-X^.V S ",
"S S S S S S S S S G e.m.i.;.;.! 8 d K S.tXdXdXwX`.T 3 3 ! } } 0 q.F.F.F.q.g.l.E.E.J.-.-.V.F.F.N.[ o.: X . . = 3 0 P.*X_.1XpXw.S S ",
"S S S S S S S S S S c ( x.x.1XeXeX-XP.dXfXsX8X}.).u.3 3 Q } ) = , o.j.D.D.l.J.E.].h.b.9.F.l. .* T -.. . . . O 3 3 K H.wXpXuXN S S ",
"S S S D S S H S S S S D d 0 7.P.*X<X.XyX2X}.T.}.}.Z.$ 2 3 3 ; t S B y t ( l.q.B. X!.B.g.o.* o % ..J . . . . . = 3 e } :.:X:.D S S ",
"S S S H H S n D S S D D S S D p T m.R.T.Z. .v.wX<X).P.| = - r D S S S S v o.q.a.F.J.B.@ . . < U.V.X . . . . . X 2 Q } } ^ p S S S ",
"S S S n v H H H D S H H n H S S D B e 0 0 W.sXyX*X_.7Xd.Z D S S S S n x s K q.a.a.l.l.+ X ; p.q.; . . . . . . X O w } } ! u S S S ",
"S S h K v D S D n S S S S H n D S S D h :XdXdXqX`.}.eXv.D S S S S x A l H b I q.l.N.V.!.&X=XV.@ . . . . . . . & X O 3 w ; u S S S ",
"S S M m.t.w V S S H H S S S D n v F Y rXfXsX#X).t..XeXs.D S S S S b F n b b p -.F.F.F.OX!.0.< . . . . . X & # o X + X % * b S S S ",
"S S S ~ P.m.e.q y u b S S S S S V ( ^.fXpX#Xt.T J XXeXw.S S S S D x x n b D S g q.F.V.T +   . . . . . . o o o . * c v g b S S S S ",
"S S S D ! m.)._.#X_.m.=.9 k k z ;.7XtX8XT.;.t A Q XXwX%.n C H D S S D S S S S D g 9.V.< . . . . . . . o & & O q x S A n D S S S S ",
"S S S S Z h x.R.*X7XR._.wX~.e.t.7X7X}.z.p Z S C E v.7X~ x n n m m b S S S S S S S K H.R.7.T X     . . & & = v S n S n n S S S S S ",
"S S S S S S c p / ;.d.m.}.}.).)._.Z.( c S S S D ) _.1Xd S S H H x s x n H n D D h Z.1X7X).).).x.u.@.; 4 u n S S x D n D S S S S S ",
"S S S S S S S S D D d p K | u.m...f D S S D D S &.*X.XV S S Z Z S S F n x D D Q P.8XyXwX_.).)..XsXW.x u A n S D H S S S S S S S S ",
"S S S S S S S S S S S S S D Z Z Z S S S S H s S *.`.H.V S S S S S S S S S F Q T.pXdXsXH.x.).XXyXdX:.m x S l n v S S S S S S S S S ",
"S S S S S S S S S S S S S S S S S S S S S S H v X.P.;.V S S S S S S S S D Y m.aXfXuX=.k p T.7XeXf.v s C S x n Z S S S S S S S S S ",
"S S S S S S S S S S S S S S S S S S S S S S S h d.H.) S D S V T +.X.| Q U R.2XdXrX$.Z S *.).}.H.c v s H a 5 n S H H S S S S S S S ",
"S S S S S S S S S S S S S S S S S S D S S S B u.T...C H n b T d.`.).).).).qX-X..c D S V d._.qXr.D H s b n S S S n A S S S S S S S ",
"S S S S S S S S S S S S S S S S S D b n D C | (.7.B D n D ! _.7Xx.i.m.Z.H.d.f D S D F i d.^.rXQ S D H H S S D x H S S S S S S S S ",
"S S S S S S S S S S S S S S S S S S D n H i m.i.z S S D h T.7Xz.g H Z d y V S S S S C ` `.uXG.b S S v H S S n x S S S S S S S S S ",
"S S S S S S S S S S S S S S S S S S S D C e.t.f S H C v x.-X .B S S S S S D S D S S c x.1XiX~ x S D n H S n m D S S S S S S S S S ",
"S S S S S S S S S S S S S S S S S S S D / i.M v n H g +.~.~ D S S S S S S v H n x b ..R.7Xn.F H S D H n H F H S S S S S S S S S S ",
"S S S S S S S S S S S S S S S S S S S D U f S S D D / t.N D S S S S S S S S S D 4  .m._.Z.M D n x v S S D S S S S S S S S S S S S ",
"S S S S S S S S S S S S S S S S S S S S S S S S S D P v S Z H S D D S S n D c X.T._.m.8.f S H x A S S S S S S S S S S S S S S S S ",
"S S S S S S S S S S S S S S S S S S S S S S S S S S H x n v x H n H H D x ! x.XX6XH.~ Z S D s H S S S S S S S S S S S S S S S S S ",
"S S S S S S S S S S S S S S S S S S S S S S S S S S b H D D D D S S H f ` H.R.v.( k S S S H m S S S S S S S S S S S S S S S S S S ",
"S S S S S S S S S S S S S S S S S S S S S S S S S S S S S S S S D x Y x.m.1X*.p H S S S S H S S S S S S S S S S S S S S S S S S S ",
"S S S S S S S S S S S S S S S S S S S S S S S S S S S S S S S D D ! P.XXu.h D S S S S S S S S S S S S S S S S S S S S S S S S S S ",
"S S S S S S S S S S S S S S S S S S S S S S S S S S S S x H n x v x.m.e Z S S S S S S S S S S S S S S S S S S S S S S S S S S S S ",
"S S S S S S S S S S S S S S S S S S S S S S S S S S S S S D S D { x.M S S S S S S S S S S S S S S S S S S S S S S S S S S S S S S ",
"S S S S S S S S S S S S S S S S S S S S S S S S S S S S S S S D ( h S S S S S S S S S S S S S S S S S S S S S S S S S S S S S S S ",
"S S S S S S S S S S S S S S S S S S S S S S S S S S S S S S S S Z S S S S S S S S S S S S S S S S S S S S S S S S S S S S S S S S "
};
