/* XPM */
static char *ee6b2763d3504253e230cbe41132a5bexvnLOafxS2I306vk[] = {
/* columns rows colors chars-per-pixel */
"65 65 226 2 ",
"   c #1E2325",
".  c #222627",
"X  c #252629",
"o  c #2B252D",
"O  c #262A2C",
"+  c #292C2C",
"@  c #2C322F",
"#  c #2F2632",
"$  c #272D30",
"%  c #2D2B31",
"&  c #322534",
"*  c #352D36",
"=  c #2C3437",
"-  c #2C353B",
";  c #353837",
":  c #3A3A39",
">  c #68232B",
",  c #3D413C",
"<  c #42453C",
"1  c #3F2A41",
"2  c #2F3A41",
"3  c #323C43",
"4  c #3B3945",
"5  c #393E51",
"6  c #473B45",
"7  c #563840",
"8  c #1D4C58",
"9  c #2A444C",
"0  c #3C4445",
"q  c #34454A",
"w  c #3C444B",
"e  c #3B494B",
"r  c #244B55",
"t  c #2C4C54",
"y  c #284C58",
"u  c #354454",
"i  c #3A4450",
"p  c #334B54",
"a  c #364759",
"s  c #334B5C",
"d  c #26545D",
"f  c #2D5259",
"g  c #2D525D",
"h  c #385458",
"j  c #0B4E60",
"k  c #1C5C68",
"l  c #324F60",
"z  c #235661",
"x  c #2E5565",
"c  c #245A64",
"v  c #2A5965",
"b  c #265E6D",
"n  c #2A5B6A",
"m  c #305262",
"M  c #335B62",
"N  c #3A5B61",
"B  c #1C626D",
"V  c #156573",
"C  c #1C6673",
"Z  c #166976",
"A  c #1B6977",
"S  c #808080",
"D  c #1A6A78",
"F  c #25606F",
"G  c #2A626C",
"H  c #226372",
"J  c #444B45",
"K  c #424C4C",
"L  c #494848",
"P  c #514E46",
"I  c #524D4B",
"U  c #47514A",
"Y  c #4B524C",
"T  c #54544B",
"R  c #56574B",
"E  c #4B4E51",
"W  c #524F54",
"Q  c #455353",
"!  c #4D5554",
"~  c #49595A",
"^  c #555656",
"/  c #545B53",
"(  c #5A5C53",
")  c #545B5B",
"_  c #625F4F",
"`  c #625D54",
"'  c #685F53",
"]  c #57604D",
"[  c #5C6354",
"{  c #5C6759",
"}  c #59615E",
"|  c #636354",
" . c #686758",
".. c #6B6B5A",
"X. c #726D5B",
"o. c #6C735E",
"O. c #6A755C",
"+. c #75715C",
"@. c #7A765E",
"#. c #435D61",
"$. c #596767",
"%. c #676964",
"&. c #6E7565",
"*. c #737364",
"=. c #797667",
"-. c #737C63",
";. c #7D7B64",
":. c #767C76",
">. c #A21927",
",. c #B41D2A",
"<. c #8E363A",
"1. c #B4262D",
"2. c #C9171F",
"3. c #D31923",
"4. c #F01C25",
"5. c #CD292C",
"6. c #B06352",
"7. c #837D64",
"8. c #857E6A",
"9. c #778266",
"0. c #7B846A",
"q. c #7D896B",
"w. c #7D8277",
"e. c #868166",
"r. c #868268",
"t. c #8B856A",
"y. c #818C6E",
"u. c #8E896C",
"i. c #928B6E",
"p. c #82916F",
"a. c #848D70",
"s. c #898873",
"d. c #958E71",
"f. c #938D78",
"g. c #869473",
"h. c #8C9574",
"j. c #8C9976",
"k. c #8F9179",
"l. c #8E9D79",
"z. c #949375",
"x. c #9C9475",
"c. c #969778",
"v. c #9B9479",
"b. c #949C7B",
"n. c #9B9C7B",
"m. c #A29978",
"M. c #A39B7B",
"N. c #94A47D",
"B. c #9BA47E",
"V. c #98A87F",
"C. c #A7A07D",
"Z. c #AAA27E",
"A. c #949186",
"S. c #808080",
"D. c #99A680",
"F. c #99AB82",
"G. c #9FA88F",
"H. c #ADA581",
"J. c #A3AC83",
"K. c #ABAB84",
"L. c #A7A889",
"P. c #B3AB84",
"I. c #B2AA86",
"U. c #A5B388",
"Y. c #ADB58A",
"T. c #B8B08A",
"R. c #BCB38B",
"E. c #B4BC8E",
"W. c #ADAD95",
"Q. c #B3B595",
"!. c #B5BC93",
"~. c #BBBB96",
"^. c #BAB7A6",
"/. c #BFBDB5",
"(. c #C0B78D",
"). c #C3BA8E",
"_. c #C5BC92",
"`. c #C8BF93",
"'. c #C5BD9A",
"]. c #BBC594",
"[. c #BFC996",
"{. c #BAC398",
"}. c #CBC295",
"|. c #C6C69B",
" X c #C3CC9A",
".X c #D0C79B",
"XX c #D4CB9D",
"oX c #C6D09B",
"OX c #C3C5A1",
"+X c #C7CBA4",
"@X c #CACDA6",
"#X c #D4CCA2",
"$X c #D7CFA7",
"%X c #CBD3A5",
"&X c #CDD2A9",
"*X c #DBD2A4",
"=X c #D1D6AC",
"-X c #DDD5A9",
";X c #D5DBAD",
":X c #CAC9B5",
">X c #D7DBB1",
",X c #DADAB3",
"<X c #E1D7A7",
"1X c #E3DAAA",
"2X c #E3DBB5",
"3X c #D9E1AF",
"4X c #DDE2B5",
"5X c #DEE4B8",
"6X c #EBE1AF",
"7X c #EDE3B2",
"8X c #E8E4BB",
"9X c #E5EABC",
"0X c #E8EDBF",
"qX c #F3E9B6",
"wX c #F6EDBA",
"eX c #FCF2BE",
"rX c #D7D6C8",
"tX c #EAE9C7",
"yX c #FBF4C8",
"uX c #E9E8D9",
"iX c #F2EED0",
"pX c #FAF7DA",
"aX c #F4F4E2",
"sX c #FCFAE4",
"dX c #FDFDEC",
"fX c ivory",
/* pixels */
"S S S S S S S S S S S S S S S S S S S S S S S S S S S S S S S S S S S S S S S S S S S S S S S S S S S S S S S S S S S S S S S S S ",
"S S S S S S S S S S S S S S S S S S S S S S S D c 9 9 9 r d t r r z k k K ../ Z S S S S S S S S S S S S S S S S S S S S S S S S S ",
"S S S S S S S S S S S S S S S S x D S D D S C / m.I.$X-X-X_._.#XS.<X).Z.x.X.p x x H n C D S S S S S S S S S S S S S S S S S S S S ",
"S S S S S S S S S S S S S S S s s D D H n y w.tX7X)._._._.H.R.I.x.m.Z.Z.( g A H D H s x n A S S S S S S S S S S S S S S S S S S S ",
"S S S S S S S S S S S S S S S A A S n H c A.dXpX}.x.R R R R T J J e i n Z D S S S S D D H n S S D S S S S S S S S S S S S S S S S ",
"S S S S S S S S S S S n n S A v S H H z v.pXiX}.d.t S S S S S S S S D n v n H n n S A n A H D m s H D S S S S S S S S S S S S S S ",
"S S S S S S S S S S H H S S b n S g ( z.XX*X).x.t S S s x A D S S D m x b n x l x n n m A b H n H H D S S S S S S S S S S S S S S ",
"S S S S S S S S D D v S S H u D c s.dXyX7X).Z.e Z H A s s a x n H n a x H S C n S S S x S S S S S S n S S S S S S S S S S S S S S ",
"S S S S S S D D x n S S S x a n I '.iX7X.XR.L b v H C m C a b D n H H D S S H F S D n s S S S S A v n D S S S S S S S S S S S S S ",
"S S S S S S H b H S F H A x x y X...< J I.m.R q J ^ W 6 R I P g x H v H S S F 5 s x H D S S D n A n H S S S x H S S S S S S S S S ",
"S S S S S H x H S D x x m u 4 0 3 3 - X t.Z.#X8XaXdXuXA.'.7X`.d.K Z n b H l s u r 4 F S S S H H S S H F n n F H S S S S S S S S S ",
"S S S S S b s D S s A b 4 6 ) ^ 4 3 - o t.).qXyXdXaXrX^.}._.R.).I.I s 4 1 L ..r.x.( H D S S C C S S n b D D S S S S S S S S S S S ",
"S S S S S n b C n H g 0 W ^ ) ! 4 3 $ o t.).-X<X#Xm.m.+.R q e d.m.t.8._.'..XR.;.e b n H S S l s y y a x D S S S S S S S S S S S S ",
"S S S S H s v H m u 4 W W } ) 4 3 - . . e.).H.t. .e 8 B Z S S d  .m.`..XH.X.p B n D H H H s a L x.x.t.R A S S S S S S S S S S S S ",
"S S S S n n v n 5 * 4 E ) ) 6 4 3 $ . . u.|.s.: 9 j V S S S S H x Y ' R d Z S S H m H x n n g 8.x.m.i.X.C S S S S D A S S S S S S ",
"S S S D H C s L s.8.-.U 3 3 2 3 - . . . y.0XtX8Xb.U 8 Z S s s x D S H v m D S S S S A x x s  .I.Z.e t b S D H S S n n S S S S S S ",
"S S S H H C I L.0X0X0X4X].c.j.O.J ; X . O.4X0X0X9X!...4 s 5 x m m x a 5 b D S S S D x A l 5 Z.).x.B S S S H H v A v D S S S S S S ",
"S S S n A Q k.Q.0X0X0X4X!. X X[.U.N.N.-.O.;X9X9XS.` ^ 6 1 4 s a n l n H n x n H C m n S b ( _.).;.n H S H H S S A H D D S S S S S ",
"S S S H g a.*.L.8X>X>XOX!.[.[. X XY.F.F.F.L.Q.+XQ.L.j.o.&.9 Z S H H H D D H D D n S S D ! <X1XI.w H S D n S S H H S H v D S S S S ",
"S S S x { k.~.>X&X4X9X9XE.J.U.Y. X XB.j.o.k.{.>X4X XJ.F.U.~.I u x n H A m H v n H S D E *XwXm.u.v S S H H S A b S n H S S S S S S ",
"S S S p g.&X>XW.=X0X=XQ.n.E. XC.Y.K.y. . .b.OXOX&X|.].F.U.9XW.*.6 x x v a b x H S Z ~ ^.sXI.I.~ S S H x D D x C H F D S S S S S S ",
"S B t R F.@X~.;X4X~.@X3X].Y.K. XE.n.b.N.j.Y.=X9X=X@X XF.F.=XOX@XN.h H n n D A b Z $./.dX$Xm.[ D S S n z r 4 X.i.w Z S S S S S S S ",
"S 0 ! 0 g.N.j.: : U [ -.o.0.B.c.r.J.b.F.F.U.9X>X&X>X XF.N.Q.0X4Xb. .f D S S H b #.rXdX8XR.` C S k h A.^.,X7XqXH.Z.! D S S H b A S ",
"S ! } e [ F.E.B.: 2 3 2 = $ O # * / 9.j.V.F.9X4X@XL.c...0.OX0XOXD.j.-.u S S s i ^.dXtX).7.g A ( Q.uXrXfXpXeXqX.X).I.( A S H b A S ",
"S ! ^ 3 $ 9.Y.oXB.0 3 6 7 6 7 6 % X X % : -.s.X.=.8.c.;.l.!.W.@X].E.[...H n s 8.iXwX_.x.z s Q R.yXaX/.tX*X}.).R.).).R.| B n D S S ",
"S - 3 3 O : a.oX XB.0 1.4.3.4.>.1.> o o o R *.c.@X=X XJ.g.k.L.4X].B.].b.Y m ^ #XT.I.I.h S c u.).XX.Xm.Z.7.| R J  .m.).T.( b S S S ",
"S ( _.v.: o R ].oX;XQ.<.4.4.>.>.3.> . . . [ &X0XtX4XoXy.0.Y.9X9X].B.B.[.j.z z.#XR.H. .D C [ H.).R.X.K i x F D D C K t.R.H.e.f S S ",
"S $.pXeX_.t.% -.].4X0X|.5.4.2.2.5.% . . . U +X0X>X{.z.=.` U.&X%X].U.U.j.j.L T.qX_.x.c y n.7X`.).+.B S S D b H H S n p @.H.).C.! S ",
"S #.aXwX_.#XH.< q.%X0X0X-X6.,.1.7 $ . . . ; [.0X>X{.B.B.*.c.J.E.a.P  .0.F.-.<XeX.X_ | *XeXeX_.7.z S S S S S S S v H H C z Y @.&.S ",
"S F uX7X(.8X.Xe., y.;X0X0X5Xb.- 3 O . . . @ {.0X0X=X].U.F. X Xn.j.* X ; O.h.*X1X).R.wXeXeX*Xt.h S Z H S S S S H x D n C S S S k S ",
"S C ^.-XC.+XI.e.m., y.;X0X0X0X|.[ X o . . X D.@X0X%X].B.F. XY.Y.N.@ O . . ; H.).).<XwXeX7XI.K x H H n S S S S D x D D H S S S S S ",
"S S &.#X7.u.;._ m.P + q.%X0XL.~.{.0.* & & X B.OX0X;XoXB.y.Y.K.J.l.- 3 - O . R R.).)._.XX(.( C S H n H S S S S S m S S n D S S S S ",
"S S M R q , 0 q ` : O X o.!.@X0X0X=XE.] + X h.Q.0X X XF.j.n.c.[.g.3 3 3 3 = . @.).).R.I. .B S S n C Z S S S S D S S S H H H S S S ",
"S V I.Y | P i...x.+.2 O o R N.{.&X|.J.0.q.R b.4X&XK.B.g.j.].J.J.p.- K w 3 3 = ; Z.+.P t D S D n D S S S S D n H D S S S S H S S S ",
"S Z ^.-X+.m.,XR.e.3 3 X o X [ V.D.Y. XU.N.9.h.!.!.E.].N.j.B.F.F.y.0 } } K 3 3 , `.7X:X%.f C n H S S S B d i t A S S S S S S S S S ",
"S S w.pX<X_.*XI.0 3 = . . X : o.[ l.F.F.N.=.;.J.E.E.c.g.q.F.F.F.q.0 } } ! 3 3 R `.wXdXdXtXS.K d 8 ! =.=.i.m.e.G S S S S S S S S S ",
"S S N uXpXwXH.K 3 3 O . . . . -.R *  .l.F.0.b.h.].E.J.l.D.D.j.o., = ) } Q 3 3 u.).}.8XsXfXdXH.-XeXeX<Xx.x.( c S S S S S S S S S S ",
"S S D :.:X:.} e 3 = . . . . . J ..% o * o.g.B.!. XB.q.l.( t y B S t - 3 3 2 $ Z.}.}.R.}.2XyX.X<X*XI.7.0 d D S S S S H S S D S S S ",
"S S S p ^ } } Q 2 X . . . . . X V.U.< . . @ B.J.F.a.q.o.x S S S S D r - = | I.).<XwXv...Z.R.R.m.R p Z S S D D S S D n S H H S S S ",
"S S S u ! } } e O X . . . . . . ; q.p.; X + l.l.a.a.q.K s x n S S S S D A d.7X_.*XyXsXW.0 0 e B D S S H n H H S D H H H v n S S S ",
"S S S u ; e 3 O X & . . . . . . . @ N.=X&X!.V.N.l.0.I n H l A x S S S S D v.eX}.`.qXdXdX:Xh D S S D n H S S S S n D S D v K h S S ",
"S S S b * % X + X o # & X . . . . . < 0.!.OXF.F.F.-.p b b n b b S S S S D s.eX.Xt.).#XsXfXrXY F v n D S S S H H S S C 0 t.m.N S S ",
"S S S S b g v c * . o o o . . . . . .   + Y N.F.q.g S D b n x x D S S S S w.eXXXJ R t.#XpXfX^.( C S S S S S b u y q e.m.I.~ S S S ",
"S S S S D n A S x q O & & o . . . . . .   < N.9.g D S S S S D S S D H C n %.wXXXQ A t ;.R.8XtX7X;.z k k 9 =.m.`.#X_.).m.! Z S S S ",
"S S S S S n n S n S x = & & . .     X R 7.R.H.K D S S S S S S b m m n n x ~ 7Xv.E C S A p z.}.7X7Xr.e.R.wX_.T.7X*XR.x.h Z S S S S ",
"S S S S S D n D x S S n u 4 - @.u.x.).).).7X1XZ.h Z D n H n x s x H H S S d <X_.) D S S S c ( Z._.).).}..Xm.d.;./ p c S S S S S S ",
"S S S S S S S S H D S n A a x W.sX.X).)._.wXyX8XI.Q D D x n F S S A A S S V .X*X&.S D D S S D f ..m.u.| K p d D D S S S S S S S S ",
"S S S S S S S S S v n l S x m :.dXyXXX).x.H.sXdXpXT.Q F S S S S S S S S S C H.`.*.S s H S S S S Z A A Z S S S S S S S S S S S S S ",
"S S S S S S S S S A n x S C s v f.eX7XR.p k =.uXfXaXm.Y D S S S S S S S S Z ;.I.X.v H S S S S S S S S S S S S S S S S S S S S S S ",
"S S S S S S S H H S n 5 a H s v z H.}.).*.S A $.rXdX2XR.U Y | X.+.R C S D S ) H.d.h S S S S S S S S S S S S S S S S S S S S S S S ",
"S S S S S S S A n S S S n b s H D r.qX_.d.C S D c ..-XqX).).).).`.d.R b n H C ..T.u.B S S S D S S S S S S S S S S S S S S S S S S ",
"S S S S S S S S H x D S S H H D S Q rX^.d.i F D S S h d.H.Z.m.i.x.7X_.! D n D B 7.(.| C D n b D S S S S S S S S S S S S S S S S S ",
"S S S S S S S S S x n S S H v S S b G.uX`.` C S S S S C y d A H g z.7XR.h D S S z i.m.i H n D S S S S S S S S S S S S S S S S S S ",
"S S S S S S S S S D m n S H n D S x ~ iX1Xx.c S S D S D S S S S S B  .-Xx.v C H S f r.e.C D S S S S S S S S S S S S S S S S S S S ",
"S S S S S S S S S S H F H n H D S H F n.7XR...b x n H v S S S S S S D ~ R.+.g H n v M i./ D S S S S S S S S S S S S S S S S S S S ",
"S S S S S S S S S S S S D S S v x n D N Z._.m. .4 D S S S S S S S S S D N t./ D D S S h U D S S S S S S S S S S S S S S S S S S S ",
"S S S S S S S S S S S S S S S S A x H S f 8.m.`.R.X.z D n S S D D S H A S v P D S S S S S S S S S S S S S S S S S S S S S S S S S ",
"S S S S S S S S S S S S S S S S S H s D S Z ~ H.6XXXx.! x D H H n H x v n x H S S S S S S S S S S S S S S S S S S S S S S S S S S ",
"S S S S S S S S S S S S S S S S S S m H S S S k ( v.T.H.` f H S S D D D D H b S S S S S S S S S S S S S S S S S S S S S S S S S S ",
"S S S S S S S S S S S S S S S S S S S H S S S S H p *.<Xm.x.Y x D S S S S S S S S S S S S S S S S S S S S S S S S S S S S S S S S ",
"S S S S S S S S S S S S S S S S S S S S S S S S S S D h u.XXI.! D D S S S S S S S S S S S S S S S S S S S S S S S S S S S S S S S ",
"S S S S S S S S S S S S S S S S S S S S S S S S S S S S A e m.x.x x n H x S S S S S S S S S S S S S S S S S S S S S S S S S S S S ",
"S S S S S S S S S S S S S S S S S S S S S S S S S S S S S D M x.{ Z S D S S S S S S S S S S S S S S S S S S S S S S S S S S S S S ",
"S S S S S S S S S S S S S S S S S S S S S S S S S S S S S S S h ( Z S S S S S S S S S S S S S S S S S S S S S S S S S S S S S S S ",
"S S S S S S S S S S S S S S S S S S S S S S S S S S S S S S S S S S S S S S S S S S S S S S S S S S S S S S S S S S S S S S S S S "
};
