/* XPM */
static char *_4940066cd964cf1e9e9f92caa7ff817fpKvRpk7KiVivbyB[] = {
/* columns rows colors chars-per-pixel */
"65 65 227 2 ",
"   c #1E2325",
".  c #222627",
"X  c #232628",
"o  c #2A262D",
"O  c #252A2B",
"+  c #292D2C",
"@  c #2C312E",
"#  c #2B2931",
"$  c #332534",
"%  c #342B37",
"&  c #3B243B",
"*  c #2D3234",
"=  c #2D353B",
"-  c #2C363D",
";  c #313631",
":  c #393C36",
">  c #343A39",
",  c #40233F",
"<  c #682231",
"1  c #3D413C",
"2  c #42453C",
"3  c #3E2840",
"4  c #2E3A43",
"5  c #3E3646",
"6  c #323C44",
"7  c #3E3E52",
"8  c #422B44",
"9  c #473A47",
"0  c #563840",
"q  c #483750",
"w  c #1E4D5A",
"e  c #29464D",
"r  c #344145",
"t  c #3C4445",
"y  c #37464B",
"u  c #3C4A4B",
"i  c #274B57",
"p  c #2B4D54",
"a  c #354C52",
"s  c #3A4A57",
"d  c #2D5057",
"f  c #25535C",
"g  c #2B535C",
"h  c #375459",
"j  c #1C5B67",
"k  c #374F60",
"l  c #3D4E65",
"z  c #2C5560",
"x  c #235A64",
"c  c #285864",
"v  c #235E69",
"b  c #2C5D6D",
"n  c #3C5167",
"m  c #355962",
"M  c #37576B",
"N  c #3A546A",
"B  c #345A6D",
"V  c #2F5F71",
"C  c #315E70",
"Z  c #17616E",
"A  c #1D626D",
"S  c #156674",
"D  c #1B6572",
"F  c #166976",
"G  c #196976",
"H  c #136E7C",
"J  c #1B6B7A",
"K  c #22616D",
"L  c #2A626C",
"P  c #256676",
"I  c #2B6273",
"U  c #216977",
"Y  c #216978",
"T  c #474847",
"R  c #434B4C",
"E  c #544B4A",
"W  c #495247",
"Q  c #4B524C",
"!  c #54554B",
"~  c #56584A",
"^  c #454759",
"/  c #5A4B52",
"(  c #455251",
")  c #4D5554",
"_  c #4A5A58",
"`  c #545452",
"'  c #5B5557",
"]  c #545A54",
"[  c #5B5C53",
"{  c #545C5B",
"}  c #625E4E",
"|  c #625D55",
" . c #58614E",
".. c #5C6354",
"X. c #56615C",
"o. c #59615E",
"O. c #636254",
"+. c #686957",
"@. c #6C6659",
"#. c #6B6959",
"$. c #726D5B",
"%. c #69745C",
"&. c #75715C",
"*. c #7A765E",
"=. c #434660",
"-. c #414B63",
";. c #435D61",
":. c #436164",
">. c #5A6665",
",. c #6E7365",
"<. c #6F726D",
"1. c #757466",
"2. c #727C63",
"3. c #7D7A64",
"4. c #B9161D",
"5. c #AE182C",
"6. c #912A3C",
"7. c #B3252F",
"8. c #C81B2C",
"9. c #E51B26",
"0. c #F71D26",
"q. c #CE2326",
"w. c #831E45",
"e. c #985351",
"r. c #837D64",
"t. c #867C6A",
"y. c #7A8769",
"u. c #7B846A",
"i. c #7D8277",
"p. c #83866B",
"a. c #8A846A",
"s. c #8E896C",
"d. c #918A6E",
"f. c #82916F",
"g. c #858A71",
"h. c #898976",
"j. c #948D72",
"k. c #958B75",
"l. c #8A9775",
"z. c #8F9C79",
"x. c #9C9575",
"c. c #9A9678",
"v. c #949C7B",
"b. c #A19679",
"n. c #A39B7B",
"m. c #94A37D",
"M. c #98A67E",
"N. c #A5A37D",
"B. c #AAA27E",
"V. c #8D8887",
"C. c #9A9887",
"Z. c #A29D87",
"A. c #9AA782",
"S. c #99AB82",
"D. c #9FB085",
"F. c #A2A381",
"G. c #ACA581",
"H. c #ADAA84",
"J. c #A7A888",
"K. c #B4AA86",
"L. c #B4AC85",
"P. c #A2B186",
"I. c #A5B489",
"U. c #AAB48B",
"Y. c #ABB88B",
"T. c #BCB38A",
"R. c #B1B88D",
"E. c #ADAA95",
"W. c #AEB992",
"Q. c #B6B995",
"!. c #B2AEA3",
"~. c #BBB7A9",
"^. c #C0B78D",
"/. c #C3BA8E",
"(. c #C5BD91",
"). c #C7BE94",
"_. c #C3BCB2",
"`. c #B6C291",
"'. c #BBC595",
"]. c #BDC69A",
"[. c #CBC295",
"{. c #CDC49A",
"}. c #C0C899",
"|. c #C3CD99",
" X c #D0C69A",
".X c #D4CB9D",
"XX c #C6D09B",
"oX c #C9D29E",
"OX c #C4C5A2",
"+X c #C7CAA3",
"@X c #CCCEA9",
"#X c #D6CDA1",
"$X c #D7CDA2",
"%X c #CCD4A4",
"&X c #CDD3AA",
"*X c #DBD2A4",
"=X c #D2D4AE",
"-X c #DED6AA",
";X c #D3DBA9",
":X c #D4DBAC",
">X c #C7C5B7",
",X c #D8DAB3",
"<X c #E1D7A8",
"1X c #E4DBAB",
"2X c #E3DEB8",
"3X c #D9E1AF",
"4X c #DDE3B5",
"5X c #DEE4B8",
"6X c #EBE1AF",
"7X c #EDE3B2",
"8X c #E2E4BA",
"9X c #EAE4BC",
"0X c #E5EBBC",
"qX c #E8EDBF",
"wX c #F4EAB7",
"eX c #F5ECBA",
"rX c #FDF3BE",
"tX c #D9D8C9",
"yX c #EBE7C9",
"uX c #FBF4C8",
"iX c #E6E5D7",
"pX c #F2EED1",
"aX c #FAF7DA",
"sX c #F5F4E4",
"dX c #FCFBE4",
"fX c #FDFDEC",
"gX c ivory",
/* pixels */
"H H H H H H H H H H H H H H H H H H H H H H H H H H H H H H H H H H H H H Z D H H H H H H H H H H H H H H H H H H H H H H H H H H ",
"H H H H H H H H H H H H H H H H H H H H H H H H x e e e i f f i i x j j R #.! F H H H H H H H H H H H H H H H H H H H H H H H H H ",
"H H H H H H H H H H H H H H H H H H H P J H D ] n.K.#X-X-X-X1X1X7X7X1X/.T.s.g H H H H H H H H H H H H H H H H H H H H H H H H H H ",
"H H H H H H H H H H H H H H H H H H H P J j i.yX7X/.(.(.(././././.T.T.G.[ v H H H I H H H H H H H H H H H H H H H H H H H H H H H ",
"H H H H H H H H H H H H H H H H H H J B x C.fXaX[.x.~ ! ! ! E T T y d D B I V l M l H H H H H H H H H H H H H H H H H H H H H H H ",
"H H H H H H H H H H H H H H B -.H J M c c.aXpX[.d.p H H H H M C B H H J P P Y H H H H H H H H H H H H H H H H H H H H H H H H H H ",
"H H H H H H H H H H H H H J B n H v ' j..X*X/.c.s P H H H H J P B M P P H H H H H H H H J P H H H H H H H H H H H H H H H H H H H ",
"H H H H H H H H H H H H H I -.I j C.fXuX7X/.B.u I M H H H H H H H H J J H H H H H H H H Y I H H H H H H H H H H H H H H H H H H H ",
"H H H H H H H N I J I H H I M b ] =XpX7X XT.Q S H P M P H H H H H H M I H H H H H H H H C C H H H H H H H H H H H H H H H H H H H ",
"H H H H H H H J H H M Y H C -.a $.#.2 T L./.O.r T ] ' [ } O.! x J B I H H H H H J I J H H H H H H H H H H H H H H H H H H H H H H ",
"H H H H H H H H H J M I H p 5 t 6 6 - X x./.#X9XsXfXfXdXrXeX).j.T U H H H H F b 7 a H H H H H H H P M H J P H H H H H H H H H H H ",
"H H H H H H H H H J M N y ) o.{ y 6 = . a./.wXuXfXfXfXaX.X/.G./.L.[ j f u ` #.a.x.O.H H H H H H H P M H J l H H H H H H H H H H H ",
"H H H H H H H M H H x t { o.o.{ 6 6 + . a./.-X<X#X{.H.&.E y 9 j./.T.L.<X7X#XK.3.a G H H H H H D 7 q A H I M H H H H H H H H H H H ",
"H H H H H H M P H x t o.o.o.o.u 6 - . . a./.G.a.#.u w m B H H f &.T..X.XG.$.a D H H J C J H F ..d.x.d.[ b I H H H H H H H H H H H ",
"H H H H H H P P i @ 6 ) { { R 6 5 + . . s.|.g.: 4 w S M Y H H H A Q *.! f F H H H H J n M H c j.b.T.x.*.D H H H H H H H H H H H H ",
"H H H H H J l ..C.v.2.W 6 6 4 8 % . . . g.qXqX,X1.T i D H H H J B C P J H H H H H H J C M M @.T.b.y f S H H H H H H H H H H H H H ",
"H H H H M N ' C.qX0X=X4Xv.h.p./ T ; X . %.5X8X@XC.U.2.u F H M M J J P J H H H H H H B J J s b./.x.A H H H H H H H H H H H H H H H ",
"H H J I ^ ( +X,XqX@XQ.Q.c.Q.c.t.S.M.m.2.%.:X=XJ.+X%XS.l.a H P P H H H H J J H H J B I I H +.(./.3.H H H H H H H H H H H H H H H H ",
"H H -.M s z.0XqXOXOXqXOXoXc.F.XX|.Y.S.A.M.%X@XC.OX%XY.S.u.e F H H H I C P P J J I P H H X.7X1XL.h H H H H ^ I H H H H J J H H H H ",
"H Y l I ..%XqX4X=X,XqX:XU.J.F.XXXXR.S.z.z.].J.Z.E.;X`.S.P.Q...f H H M B M H M I I P H _ <XeX[.x.b M H H H n P H H H J C P H H H H ",
"H Y Y z 1.5X,XOX4XqXqX,X'.XX|.k.c.F.I.S.S.'.+XQ.@X:X].S.P.0X8XA.( V C B N H M H H F { tXdX.XL._ H M C H H P J H H H I B H H H H H ",
"H v y ~ l.U.k.&X4X4X5X3XXXR.a.J.|.XX'.S.S.W.qX+X4X:X}.S.S.,XqX8XM.^ V H H H C H F >.iXfX-XT...H H P V j i q a.d.a F P P H H H H H ",
"F t ) t u.l.v.: : W ..2.u.u.g.I.W.`.Y.S.S.I.0X,X&X:X|.S.l.].qX0XW.2.s H H H ^ M ;.tXfX8XT.#.G H j s C.~.,X#X7X*XB.) n P H H H H H ",
"x ` >.u ` v.XXN.> 6 6 4 * 3 % X @ ~ u.l.M.S.0X+XQ.Q.|.P.S.4XqX0X'.I.,.g H H Y s !.fXyX/.r.A H [ Q.sXgXgXaXrXwX X/.L.` P H H H H H ",
"g ) { 6 % u.].XXM.r 6 9 0 8 0 9 # . . X : l.@XZ.E.Q.|.P.S.:XqX0X].`.U.%.G H K n.aXeX(.x.c H _ T.uXfXdXpX*X[./.L.T./.T.O.A H H H H ",
"f - 6 6 & : P.XX|.M.r 7.0.8.0.4.8.< & o $ / OXqX8XOXXXI.S.%XqX0X'.`.}.R.) H >.eXeX[.K.h H v x./..X X/.B.a.O.! T +.L./.T.+.D H H H ",
"G [ (.k.9 .  .`.XX;XW.6.0.9.4.5.7.< $ X o [ &XqXqX4XXXA.u.U.qX0X'.`.XXXXz.c F.rX1X/.+.H D .././.T.$.R i D F H H P R x.T.T.a.d H H ",
"H >.aXwXn.a.+ 2.U.J.=XQ.q.9.4.w.7.# . . . W +XqXqX:XH.I.g.`.5X%X`.P.Y.Y.S.W {.rX*Xd.m i c.7X*XT.@.l I P J H H H V B c @.B./.N.] A ",
"H ;.sX7XG.#XG.2 u.k.@X,XK.e.6.7.0 * . . . : ].qX,X].F.m.S.|.XXXXY...u.M.S.2.<XrX{./ [ *XrXrX Xs.z C P M I I H H H M B B d Q *.r.m ",
"H K iX7X^.9X{.a.2 f.:XqXqX5Xh.- 6 + X X . @ U.=XOX%Xc.P.S.|.XXXXP.; . ; %.l.*X1X/.k.eXrXrX<Xn.a H H H J H H H H H H H M I H H j H ",
"H D ~.-XN.+XK.a.n.1 f.:X8XqXqX}.... . X . X W.OXqX:X}.I.A.J.XXXXM.* O X . : G././.<XeXrX7XL.( F H H H H H H H H H H H P M H H H H ",
"H H <.#Xr.s.3.} n.E + u.W.8XqXqX8Xp.; . . X U.@XqX;XXXP.p.U.XX|.z.= 6 - O . ~ T././.(..X^.[ P H J M P M B N H H H H H P M H H H H ",
"H H m ! r : t r } : # % %.W.4XqXqX%XR. .+ X U.8XqX%X|.m.v.|.XX].l.6 6 6 6 * X *././.T.L.@.v M H J M P P n Y H H M I H H H H H H H ",
"H D K.Q O.E t.+.t.@.5 # $ E u.A.OX%X|.P.z...I.qX0XoX}.S.z.}.}.D.f.- R y 6 6 = : B.&.E p B B V H H H H H H H H I I H H H H H H H H ",
"H S ~.-X&.k.+Xc.$.5 6 X . . %.m.M.Y.|.P.S.S.Y.%X%XXX'.z.v.I.S.S.f.t o.o.R 6 6 1 ).7X>Xo.s K H H H J B A f 7 7 b H H H H H H H H H ",
"H H i.aX<X(.*XL.t 6 = . . . : f.%.m.S.S.S.S.Y.XXXXXX`.S.S.S.S.S.u.t o.o.) 6 6 ! ).eXfXiXiXZ.( w w ^ 3.d.n.x.r.L H H H H H H H H H ",
"H H m iXaXeXF.R 6 6 % X $ & $ 2.+.; u.m.S.S.Y.XXXX}.g.p.S.S.l.%.1 * { o.( 6 6 s./.[.9XdXgXdXeX<X<X#X6X/.c.[ x H H H H H H H H H H ",
"H H H h.,X<.o.u 6 % & # & $ . W l.@ . * u.m.Y.F.F.v.| g...p i A H p = 6 6 4 + B.[.[.T.[.2XuXeXwX[.B.j.t f H H H H H H H H H H H H ",
"H H H g { o.o.( 4 X . . o # & & M.I.2 . . @ v.H.l.z.g.u.x J I I J H i - * O.K./.<XeXc.#.B.T.T.n.! a U P J H H H H H H H H H H H H ",
"H H H d ] o.{ u + . . $ & $ & # ; u.f.; O + z.S.S.S.m.( H H J I B M H H G j.7X(.*XuXdXE.t t y A I M B P J B H H H H H H H V V H H ",
"H H H g 8 u 6 + . X # o o X . . . ; m.=X@XQ.M.S.S.S.+.D H H H H H I M I H c.rX[.).wXfXfX>Xh H M n B P I I J P P H P J H D R ^ H H ",
"H H H D % $ X + . X # & & & $ 8 , , 2 u.W.OXS.S.S.2.x J I H H H H H H I H g.rX Xa./.2XfXgXtXQ F H J M M J H M M H P M R d.t.^ H H ",
"H H H H B ^ c v = X . $ , $ & , & o .   + W M.M.2.g J H V C H H H H H H H i.rX.XT ~ n.#XaXgX2X+.D C C H H H l s a e r.L.L._ P H H ",
"H H H H C C M I K r X . . . . . . . . . . 2 m.,.h M M M N -.U P H H H H H <.eX.X_ H i 3.T.8XuX7X3.s x j e 3.n.G.^.(./.G.) F H H H ",
"H H H H M M J J J I c * X X . .     X ~ p.T.G.R H J I -.V =.-.I H H H H H :.7X#XX.H H G a j.[.7X7Xr.a.T.eXrX*X*X#XT.j.s F H H H H ",
"H H H H P M H H Y N H H d r = *.s.x./././.7X1XB.h F H H H H H H H H H H H f 1X#Xo.H H H H v [ B.(././.[.{.^.x.$.] a c Y M P J H H ",
"H H H H P M J H Y M n Y H H G E.dX X/./.(.eXuX9XL.( H H H H H H H H H H I M ).*X,.H H H H H H d #.n.s.O.R a g P H H H H H J H H H ",
"H H H H J J H H H H -.P H H H <.fXuX.X/.x.G.dXiXaXT._ H H H H H H H H H H P n.[.1.H H H H H H H F G G F H H Y Y H H H H H H H H H ",
"H H H H H H H H H H B n I H H b h.rX6XT.a j 1.~.>XaXT.( H H H H H H H H H G 3./.3.G H H H I H H H H H H H H H H H H H H H H H H H ",
"H H H H H J M J H H I B I H H I h G.[./.1.H G >.>X~.uXT.T q O.$.&.! D H H H { T.K.h H H J n M C J H H H H H H H H H H H H H H H H ",
"H H H H H P ^ H H H H M I H H H M 1.eX[.x.D H H z @.-XwX/.k././.[.[./ M I J b $./.s.A H M l M C J H H H H H H H H H H H H H H H H ",
"H H H H H M -.H H H H H H H H H V ^ tXyXL.h H H I I a j.G.d.x.j.G.<XK.` I B I A r.^.O.N J H H H H H H H H H H H H H H H H H H H H ",
"H H H H H P M J H H H H H H H H B B V._.{.1.H H H V M D i f b J x $.).T.h H H H x d.G.s J H H P P H H H H H H H H H H H H H H H H ",
"H H H H H M B P H H H H H H H H B J ^ !.<Xx.x H H J H H H H I I H b | -Xc.c H H H d j.a.D H H M M H H H H H H H H H H H H H H H H ",
"H H H H H H -.B H H H H H H H Y M H b k.7XT.+.K H H H H H H J I H P P _ T.3.D J P J q s.] P P H H H H H H H H H H H H H H H H H H ",
"H H H H H H H H H H H H H H H P P J M m B.(.G.r.R n I H H H H H H I M H m a.` I P P M h Q J J H H H H H H H H H H H H H H H H H H ",
"H H H H H H H H H H H H H H H H H H H H d j.<X.XL.@.c H H H H H H P M H H c E J H H H H H H H H H H H H H H H H H H H H H H H H H ",
"H H H H H H H H H H H H H H H H H H H H H F _ T.1X.Xx._ D H H H H J B H H H H H H H H H H H H H H H H H H H H H H H H H H H H H H ",
"H H H H H H H H H H H H H H H H H H H H H H J k ' #X1X(.&.g H H H I M H H H H H H H H H H H H H H H H H H H H H H H H H H H H H H ",
"H H H H H H H H H H H H H H H H H H H n n M B I P d 3.<X[.n.Q G H J H H H H H H H H H H H H H H H H H H H H H H H H H H H H H H H ",
"H H H H H H H H H H H H H H H H H H H M M P Y H B -.H a a..XL.) H H H H H H H H H H H H H H H H H H H H H H H H H H H H H H H H H ",
"H H H H H H H H H H H H H H H H H H H H H H H H H I V J b T n.x.K H H H H H H H H H H H H H H H H H H H H H H H H H H H H H H H H ",
"H H H H H H H H H H H H H H H H H H H H H H H H H I V J H B ^ x...F H H H H H H H H H H H H H H H H H H H H H H H H H H H H H H H ",
"H H H H H H H H H H H H H H H H H H H H H H H H H H H H H H J h [ F H H H H H H H H H H H H H H H H H H H H H H H H H H H H H H H ",
"H H H H H H H H H H H H H H H H H H H H H H H H H H H H H H H H F H H H H H H H H H H H H H H H H H H H H H H H H H H H H H H H H "
};
