/* XPM */
static char *_d891bbb575445f685382a25d08d091flakmSlsJZ5dwav8S[] = {
/* columns rows colors chars-per-pixel */
"65 65 164 2 ",
"   c #000000",
".  c #0B0404",
"X  c #01020E",
"o  c #120807",
"O  c #150B09",
"+  c #1A0E0C",
"@  c #020312",
"#  c #030519",
"$  c #261613",
"%  c #2E2F17",
"&  c #2E3915",
"*  c #060B28",
"=  c #090F32",
"-  c #091033",
";  c #3E2726",
":  c #41531F",
">  c #4B6424",
",  c #56722A",
"<  c #5E7E2F",
"1  c #111947",
"2  c #121B4B",
"3  c #151E52",
"4  c #172159",
"5  c #19245D",
"6  c #202859",
"7  c #1B2664",
"8  c #1C2867",
"9  c #1F2A6D",
"0  c #222F76",
"q  c #223D76",
"w  c #24317C",
"e  c #30447C",
"r  c #00818A",
"t  c #426A73",
"y  c #628730",
"u  c #648931",
"i  c #77A53B",
"p  c #7CAC3E",
"a  c #7FB13F",
"s  c #81B440",
"d  c #8EC947",
"f  c #92CD49",
"g  c #94D14A",
"h  c #9ADA4E",
"j  c #A5EB52",
"k  c #AAF355",
"l  c #B2FF59",
"z  c #263482",
"x  c #283786",
"c  c #2D3887",
"v  c #283788",
"b  c #293B8C",
"n  c #2B3D90",
"m  c #2F3F9A",
"M  c #433F85",
"N  c #2A478D",
"B  c #384F8C",
"V  c #385387",
"C  c #39508F",
"Z  c #2B4091",
"A  c #2F409B",
"S  c #31419E",
"D  c #38439F",
"F  c #1E6E8D",
"G  c #286E9F",
"H  c #3344A5",
"J  c #324CA2",
"K  c #3446A9",
"L  c #3B48A9",
"P  c #3459A6",
"I  c #3452AC",
"U  c #355BAC",
"Y  c #384BB3",
"T  c #3B4EBC",
"R  c #3C50BF",
"E  c #2C6EA8",
"W  c #3562AA",
"Q  c #316AAF",
"!  c #3962B4",
"~  c #336EB6",
"^  c #396DB2",
"/  c #3769BD",
"(  c #3A6DBD",
")  c #3C70BB",
"_  c #44438F",
"`  c #405788",
"'  c #454595",
"]  c #437B85",
"[  c #4A659B",
"{  c #474AA4",
"}  c #425FAF",
"|  c #484FB1",
" . c #4A54BD",
".. c #455ABA",
"X. c #467BA1",
"o. c #477BAF",
"O. c #5575AD",
"+. c #426ABC",
"@. c #4873B7",
"#. c #487BB3",
"$. c #3D52C3",
"%. c #3C62C4",
"&. c #3B6EC6",
"*. c #4B57C5",
"=. c #4156CC",
"-. c #4258CF",
";. c #4B59CB",
":. c #4D5DD4",
">. c #465DDA",
",. c #4565C7",
"<. c #4A6DC2",
"1. c #427ACB",
"2. c #4B7ECB",
"3. c #4C69D4",
"4. c #4E63DF",
"5. c #4478D2",
"6. c #4C61E4",
"7. c #4C63E9",
"8. c #5065EB",
"9. c #4E66F0",
"0. c #4F68F3",
"q. c #5169F3",
"w. c #536DFE",
"e. c #448C97",
"r. c #458D9C",
"t. c #4789AE",
"y. c #5D83AF",
"u. c #4790AD",
"i. c #4884B4",
"p. c #4892B7",
"a. c #6189AD",
"s. c #47A3B3",
"d. c #49A2BD",
"f. c #48AEBB",
"g. c #7DAEB1",
"h. c #4B84C7",
"j. c #4180C9",
"k. c #4787D7",
"l. c #4894DA",
"z. c #499DDD",
"x. c #49ACC4",
"c. c #49B5C4",
"v. c #4BBDCC",
"b. c #47A0D7",
"n. c #4BA4D0",
"m. c #49A1DC",
"M. c #4BAADF",
"N. c #4980E1",
"B. c #4B93E3",
"V. c #4B9EE2",
"C. c #4AA3E0",
"Z. c #4EACE8",
"A. c #4DB7E6",
"S. c #4DBCE4",
"D. c #4FB3ED",
"F. c #50ACF0",
"G. c #4CC3D4",
"H. c #4CCADB",
"J. c #4EC3E6",
"K. c #4DCCE3",
"L. c #4DD0E1",
"P. c #86BDB2",
"I. c #91CFA8",
"U. c #91CDB4",
/* pixels */
"r r r r r r r r r r r r r r r r r r r r r r r r r G &.&.%.>.9.$.$.$.9.>.%.&.&.G r r r r r r r r r r r r r r r r r r r r r r r r r ",
"r r r r r r r r r r r r r r r r r r r r r r ( %.=.H     9 S   m K m   S 9     H =.%.( r r r r r r r r r r r r r r r r r r r r r r ",
"r r r r r r r r r r r r r r r r r r r E %.=.            K 8 B.K.L.K.B.8 K             =.%.E r r r r r r r r r r r r r r r r r r r ",
"r r r r r r r r r r r r r r r r r E %.x @           O L w ( J.L.L.L.J.( w L O           @ x %.E r r r r r r r r r r r r r r r r r ",
"r r r r r r r r r r r r r r r E %.b =           $ , f U.w l.L.L.L.L.L.l.w U.f , $           = b %.E r r r r r r r r r r r r r r r ",
"r r r r r r r r r r r r r F / Z 1           $ p j k j g.w l.L.L.L.L.L.l.w g.j k j p $           1 Z / F r r r r r r r r r r r r r ",
"r r r r r r r r r r r r F U 9         + y p j l j s > c n U J.L.L.L.J.U n c > s j l j p y +         9 U F r r r r r r r r r r r r ",
"r r r r r r r r r r r Q I 1     . % i g k l g < > o     K 8 ) Z.D.Z.) 8 K     o > < g l k g i % .     1 I Q r r r r r r r r r r r ",
"r r r r r r r r r r ~ >.T T Y ` i j l j p < +           2 H z 9 w 9 z H 2           + < p j l j i ` Y T T >.~ r r r r r r r r r r ",
"r r r r r r r r r E n 3 z z 7 C I.k a : .                 v R 6.6.6.R v                 . : a k I.C 7 z z 3 n E r r r r r r r r r ",
"r r r r r r r r ~ n N B.J.J.V.P e [ .             w U N.N.A.J.J.i.J.J.A.N.N.U w             . [ e P V.J.J.B.N n ~ r r r r r r r r ",
"r r r r r r r Q >.3 B.L.L.L.L.m.4 T         3 U N.J.J.L.L.L.L.G.,.G.L.L.L.L.J.J.N.U 3         T 4 m.L.L.L.L.B.3 >.Q r r r r r r r ",
"r r r r r r F I T z J.L.L.L.L.J.K $.    5 ! V.J.L.L.L.L.L.L.L.t.q.t.L.L.L.L.L.L.L.J.V.! 5     $.K J.L.L.L.L.J.z T I F r r r r r r ",
"r r r r r F U 1 T z J.L.L.L.L.J.K $.  w C.D.J.J.J.J.L.L.L.L.v.3.w.3.v.L.L.L.L.J.J.J.J.D.C.w   $.K J.L.L.L.L.J.z T 1 U F r r r r r ",
"r r r r r / 9   Y 7 V.L.L.L.L.M.0 R Y >.l.H H H H ( l.S.K.L.p.q.w.q.p.L.K.S.l.( H H H H l.>.Y R 0 M.L.L.L.L.V.7 Y   9 / r r r r r ",
"r r r r E Z     ` C P m.J.J.M.^ z 6.$.9               A b.K.d.q.w.q.d.K.b.A               9 $.6.z ^ M.J.J.m.P C `     Z E r r r r ",
"r r r r %.1   . i I.e 4 K K 0 z 7.$.      1 8 8 8 X     9 b.G.<.w.<.G.b.9     X 8 8 8 1       $.7.z 0 K K 4 e I.i .   1 %.r r r r ",
"r r r E b     % j k [ T $.$.R 6.$.    - J l.Z.2.D.,.5 #   8 m.d.6.d.m.8   # 5 ,.D.2.Z.l.J -     $.6.R $.$.T [ k j %     b E r r r ",
"r r r %.=     i l a .       Y $.    @ B.J.L.s.;.L.L.D.W     5 l.o.l.5     W D.L.L.;.s.L.J.B.@     $.Y       . a l i     = %.r r r ",
"r r E x     + g j :       w >.9   - B.L.L.L.| w.e.L.L.J.W     U n.U     W J.L.L.e.w.| L.L.L.B.-   9 >.w       : j g +     x E r r ",
"r r %.@     y k h +     5 C.l.    J J.L.L.c.6.w.@.H.L.L.z.7   w D.w   7 z.L.L.H.@.w.6.c.L.L.J.J     l.C.5     + h k y     @ %.r r ",
"r r =.      p l <       ! D.H   8 h.;  . ._  . . .M  .' t +.    =.    +.t '  .M  . . ._  . .; h.8   H D.!       < l p       =.r r ",
"r (       $ j g +     3 V.J.H   8 D.L.@.8. .w.w.w.| ;.x.L.1.    =.    1.L.x.;.| w.w.w. .8.@.L.D.8   H J.V.3     + g j $       ( r ",
"r %.      , k s o     U J.J.H   8 D.L.L.r.;.w.w.8.{ G.L.L.1.    =.    1.L.L.G.{ 8.w.w.;.r.L.L.D.8   H J.J.U     o s k ,       %.r ",
"r =.    O d j >       N.L.J.H   8 D.L.L.;.w. .;.:.w.u.L.L.1.    =.    1.L.L.u.w.:.;. .w.;.L.L.D.8   H J.L.N.      > j d O     =.r ",
"G H     $ j f +     w J.L.J.(   X ,.L.v.6.7.@.c.;.w.#.H.D.w   3 k.3   w D.H.#.w.;.c.@.7.6.v.L.,.X   ( J.L.J.w     + f j $     H G ",
"&.      i l u       U J.L.L.l.    5 D.o.;.x.H.L.G.i. .x.j.*   w D.w   * j.x. .i.G.L.H.x.;.o.D.5     l.L.L.J.U       u l i       &.",
"&.    $ j h &       N.L.L.L.S.A   # W #.v.L.L.L.L.H.x.+.q     5.K.5.    q +.x.H.L.L.L.L.v.#.W #   A S.L.L.L.N.      B P.P.L     &.",
"%.  K K a.O.K v     N.L.L.L.K.b.9     W z.J.L.L.L.D.j.q     W S.L.S.W     q j.D.L.L.L.J.z.W     9 b.K.L.L.L.N.  2 K n w w w K 9 %.",
"$.H w 8 S S 9 n b 0 A.L.L.L.L.K.b.8     7 U 1.1.1.w *     W S.L.L.L.S.W     * z 1.1.1.U 7     8 b.K.L.L.L.L.A.v H 8 U l.l.( 8 S >.",
"0.7 ! C.J.J.B.N S H J.L.L.v.p.d.G.m.5                   W S.L.L.L.L.L.S.W                   5 m.G.d.p.v.L.L.J.R z ) J.L.L.J.B.  9.",
"-.3 F.L.L.L.L.k.4 >.J.G.t.3.q.q.<.d.l.} w         3 w 5.S.L.L.L.L.L.L.L.S.5.w 3         w } l.d.<.q.q.3.t.G.J.6.9 Z.L.L.L.L.K.m $.",
"$.K L.L.L.L.L.D.w 6.i.,.q.w.w.w.w.6.o.n.D.=.=.=.=.k.D.K.L.L.L.L.D.L.L.L.L.K.D.k.=.=.=.=.D.n.o.6.w.w.w.w.q.,.i.6.w D.L.L.L.L.L.K $.",
"$.K L.L.L.L.L.D.w 6.J.G.t.3.q.q.<.d.l.} w         3 w 5.S.L.L.L.L.L.L.L.S.5.w 3         w } l.d.<.q.q.3.t.G.J.6.9 Z.L.L.L.L.K.m $.",
"-.5 F.L.L.L.L.k.5 >.J.L.L.v.p.d.G.m.5                   W S.L.L.L.L.L.S.W                   5 m.G.d.p.v.L.L.J.R z ) J.L.L.J.B.  9.",
"0.7 ( C.J.J.z.C S S A.L.L.L.L.K.b.8     7 U 1.V 1.w *     W S.L.L.L.S.W     * w 1.V 1.U 7     8 b.K.L.L.L.L.A.v H 8 U l.l.( 8 D >.",
"%.K w 9 K K 9 b n   N.L.L.L.K.b.9     W z.J.c.@.L.D.j.q     W S.L.S.W     q j.D.L.@.c.J.z.W     9 b.K.L.L.L.N.  2 K n w w w K 9 %.",
"&.  K L y.O.K v     N.L.L.L.S.A   # W J.L.L.#.8.f.L.L.b.q     5.K.5.    q b.L.L.f.8.#.L.L.J.W #   A S.L.L.L.N.      B P.P.L     &.",
"&.    O f j >       U J.L.L.l.    5 D.L.L.H. .w.r.L.L.L.j.*   w D.w   * j.L.L.L.r.w. .H.L.L.D.5     l.L.L.J.U       u l i       &.",
"G H     , k s o     w J.L.J.(   3 ..e.r.r.t | | _ e.r.r.X.6   3 k.3   6 X.r.r.e._ | | t r.r.e...3   ( J.L.J.w     + f j $     H G ",
"r =.    $ j j >       N.L.J.H   8 Z.s.6.w. .w.w.w.| w.h.v.1.    =.    1.v.h.w.| w.w.w. .w.6.s.Z.8   H J.L.N.      > j d O     =.r ",
"r %.      p l <       U J.J.H   8 D.L.v.o.7.w.w.w.*.s.H.L.1.    =.    1.L.H.s.*.w.w.w.7.o.v.L.D.8   H J.J.U     o s k ,       %.r ",
"r (       $ j g +     3 V.J.H   8 D.L.L.@.*.:.w. .*.x.L.L.1.    =.    1.L.L.x.*. .w.:.*.@.L.L.D.8   H J.V.3     + g j $       ( r ",
"r r =.      p l <       ! D.H   1 l.L.L.;.w.*.] w.w.u.L.J.U     =.    U J.L.u.w.w.] *.w.;.L.L.l.1   H D.!       < l p       =.r r ",
"r r %.@     y k p .     5 C.l.    J J.e.w.#.f.L.r.4.;.v.z.7   w D.w   7 z.v.;.4.r.L.f.#.w.e.J.J     l.C.5     + h k y     @ %.r r ",
"r r E x     + g j :       w >.9   - B.{ e.L.L.L.L.v.o.#.W     U n.U     W #.o.v.L.L.L.L.e.{ B.-   9 >.w       : j g +     x E r r ",
"r r r %.=     i l a .       Y $.    @ B.J.L.L.L.L.L.D.W     5 l.o.l.5     W D.L.L.L.L.L.J.B.@     $.Y       . a l i     = %.r r r ",
"r r r E b     % j k [ T $.$.R 6.$.    - J l.D.D.D.,.5 #   8 m.d.6.d.m.8   # 5 ,.D.D.D.l.J -     $.6.R $.$.T [ k j %     b E r r r ",
"r r r r %.1   . i I.e 4 K K 0 z 7.$.      1 8 8 8 X     9 b.G.<.w.<.G.b.9     X 8 8 8 1       $.7.z 0 K K 4 e I.i .   1 %.r r r r ",
"r r r r E Z     ` C P m.J.J.M.^ z 6.$.9               A b.K.d.q.w.q.d.K.b.A               9 $.6.z ^ M.J.J.m.P C `     Z E r r r r ",
"r r r r r / 9   Y 7 V.L.L.L.L.M.0 R Y >.l.H H H H ( l.S.K.L.p.q.w.q.p.L.K.S.l.( H H H H l.>.Y R 0 M.L.L.L.L.V.7 Y   9 / r r r r r ",
"r r r r r F U 1 T z J.L.L.L.L.J.K $.  w C.D.J.J.J.J.L.L.L.L.v.3.w.3.v.L.L.L.L.J.J.J.J.D.C.w   $.K J.L.L.L.L.J.z T 1 U F r r r r r ",
"r r r r r r F I T z J.L.L.L.L.J.K $.    5 ! V.J.L.L.L.L.L.L.L.t.q.t.L.L.L.L.L.L.L.J.V.! 5     $.K J.L.L.L.L.J.z T I F r r r r r r ",
"r r r r r r r Q >.3 B.L.L.L.L.m.4 T         3 U N.J.J.L.L.L.L.G.,.G.L.L.L.L.J.J.N.U 3         T 4 m.L.L.L.L.B.3 >.Q r r r r r r r ",
"r r r r r r r r ~ n N B.J.J.V.P e [ .             w U N.N.A.J.J.i.J.J.A.N.N.U w             . [ e P V.J.J.B.N n ~ r r r r r r r r ",
"r r r r r r r r r E n 3 z z 7 C I.k a : .                 v R 6.6.6.R v                 . : a k I.C 7 z z 3 n E r r r r r r r r r ",
"r r r r r r r r r r ~ >.T T Y ` i j l j p < +           2 H z 9 w 9 z H 2           + < p j l j i ` Y T T >.~ r r r r r r r r r r ",
"r r r r r r r r r r r Q I 1     . % i g k l g < > o     K 8 ) Z.D.Z.) 8 K     o > < g l k g i % .     1 I Q r r r r r r r r r r r ",
"r r r r r r r r r r r r F U 9         + y p j l j s > c n U J.L.L.L.J.U n c > s j l j p y +         9 U F r r r r r r r r r r r r ",
"r r r r r r r r r r r r r F / Z 1           $ p j k j g.w l.L.L.L.L.L.l.w g.j k j p $           1 Z / F r r r r r r r r r r r r r ",
"r r r r r r r r r r r r r r r E %.b =           $ , f U.w l.L.L.L.L.L.l.w U.f , $           = b %.E r r r r r r r r r r r r r r r ",
"r r r r r r r r r r r r r r r r r E %.x @           O L w ( J.L.L.L.J.( w L O           @ x %.E r r r r r r r r r r r r r r r r r ",
"r r r r r r r r r r r r r r r r r r r E %.=.            K 8 B.K.L.K.B.8 K             =.%.E r r r r r r r r r r r r r r r r r r r ",
"r r r r r r r r r r r r r r r r r r r r r r ( %.=.H     9 S   m K m   S 9     H =.%.( r r r r r r r r r r r r r r r r r r r r r r ",
"r r r r r r r r r r r r r r r r r r r r r r r r r G &.&.%.>.9.$.$.$.9.>.%.&.&.G r r r r r r r r r r r r r r r r r r r r r r r r r "
};
