/* XPM */
static char *_e9d00af2ce641f5c7b74cf7551e1c8aoSAUt0110vP4ZxVz[] = {
/* columns rows colors chars-per-pixel */
"65 65 87 1 ",
"  c #5B3C27",
". c #5A3D28",
"X c #5E412B",
"o c #63442E",
"O c #684730",
"+ c #674830",
"@ c #6C4B32",
"# c #704F35",
"$ c #6E503A",
"% c #745137",
"& c #765339",
"* c #79563A",
"= c #7D593D",
"- c #604F45",
"; c #645246",
": c #755741",
"> c #745843",
", c #795941",
"< c #755C4A",
"1 c #7C5E48",
"2 c #7D614D",
"3 c #776254",
"4 c #7D6454",
"5 c #71655D",
"6 c #7F6C5E",
"7 c #6F6A65",
"8 c #6D6C6B",
"9 c #706762",
"0 c #726A64",
"q c #7F6E63",
"w c #815C3E",
"e c #845E41",
"r c #876041",
"t c #8B6344",
"y c #8B674A",
"u c #906747",
"i c #926847",
"p c #906748",
"a c #976C4A",
"s c #986D4A",
"d c #9D714E",
"f c #816755",
"g c #8D6E57",
"h c #866C5A",
"j c #826C5D",
"k c #946E52",
"l c #937056",
"z c #9C7250",
"x c #A0734F",
"c c #A27451",
"v c #A57752",
"b c #A77853",
"n c #AA7A55",
"m c #AE7E57",
"M c #A77A58",
"N c #A57C59",
"B c #AF7E58",
"V c #806B60",
"C c #8D7666",
"Z c #82776E",
"A c #83786F",
"S c #8E796A",
"D c #8F7A6D",
"F c #8F7C6F",
"G c #827770",
"H c #837A73",
"J c #8F7C71",
"K c #AE835F",
"L c #B28059",
"P c #B5825A",
"I c #B6835C",
"U c #B7865F",
"Y c #B9855D",
"T c #8B827C",
"R c #8B837E",
"E c #89847F",
"W c #908279",
"Q c #91867F",
"! c #AD8363",
"~ c #AF8666",
"^ c gray53",
"/ c #898480",
"( c #8F8781",
") c #888785",
"_ c #868887",
"` c #868788",
"' c #858888",
/* pixels */
"YYYYsaaaaaaa=*******nYYYvaaaaaaar*******@...o*******rYYYL***=YYYY",
"YYYYsaaaaaaa=*******nYYYvaaaaaaar*******@...o*******rYYYL***=YYYY",
"YYYYsaaaaaaa=*******nYYYvaaaaaaar*******@...o*******rYYYL***=YYYY",
"YYYYsaaaaaaa=*******nYYYvaaaaaaar*******@...o*******rYYYL***=YYYY",
"====aaaaO   %*******OoooXXXXXX  @***@...&aaat***tIIILsssi  ..oooo",
"****aaaao...%*******o ..........O***@...&aaat***tYYYLaaau........",
"****aaaao...%*******o...........O***@...&aaat***tYYYLsssu   .....",
"****aaaao...%*******o...........O***@...&aaat***tYYYLaaay  ......",
"LLLLw===&&&&oXXocLLLduuuuuuuw&&&aLLLa...O====***&@@@<RREWBBBm&&&&",
"YYYY=*******o.  nYYYcaaaaaaar***dYYYs...+*******%  .;^^`(UYYI****",
"YYYY=*******o.  nYYYcaaaaaaar***dYYYs ..O*******%...;^^'(YYYI****",
"YYYY=*******o.  nYYYcaaaaaaar***dYYYs  .O*******%...;)))QYYYI****",
"dddz9979NmmBw%%%%%%%taaar===dBBBbdddattte***%oooo%%%e~~~!dddd****",
"aasa0888KYYYr***o   raaae***cYYYnaaaaaaat***#...o***rYYYPaaaa****",
"aasa7888KYYYr***o...raaae***cYYYnaaaaaaat***#  .o***rYYYPaaaa****",
"aasa0888KYYYr***o...raaae***cYYYnaaaaaaat***#  .o***rYYYPaaaa****",
"aaaa<<<<dxxxnmmm%...raaae***etttiaaar@@@#***tnnnz***wxxxs@@@@****",
"aaaa****iaaaLYYY*...raaae*******raaaw...O***iYYYm***=aaau... ****",
"aaaa****iaaaLYYY*...raaae*******raaaw...+***iYYYm***=aaau....****",
"aaaa****iaaaLYYY*...raaae*******raaaw...+***iYYYm***=aaau....****",
"mmmBOoooiaaaxccc=###taaa*oooooooO%%#####%***=wwew****eeew###%nnnn",
"YYYYo...uaaaaaaaw***taaa&...........O*******#  .o***********=YYYY",
"YYYYo...uaaaaaaaw***taaa&...........O*******#  .o***********=YYYY",
"YYYYo...uaaaaaaaw***taaa&...........O*******#  .o***********=YYYY",
"YYYY%@@@weeeeeee35552eee*@@@tdddddddt***tvvvcddda***=tttr****vvvv",
"YYYY=***********5888<*******cYYYYYYYc***aYYYYYYYm***=aaai****aaaa",
"YYYY=***********9888<*******cYYYYYYYc***aYYYYYYYm***=sssa****aaaa",
"YYYY=***********5888<*******cYYYYYYYc***aYYYYYYYm***=aaai****aaaa",
"ssss****dcccccccghhhyttt&OOOrsssdvvvuOOOevvvcsssi***1FJJSttttaaaa",
"********LYYYYYYYdaaaaaaa&...@***raaaw...&aaat*******2))^Rasaaaaaa",
"********LYYYYYYYxaaaaaaa&...@***raaaw...&aaat*******2^``/asaaaaaa",
"********LYYYYYYYxaaaaaaa&...@***raaaw...&aaat*******2))^Rasaaaaaa",
"rrrr****sdddbnnnirrriaaa&...oOOO*rrre===wrrre***=rrrySDDC====rrrr",
"aaaa********iaaaw***taaa&.......O***raaat*******waaaaaaap... ****",
"aaaa********iaaaw***taaa&.......O***raaat*******waaaasssu... ****",
"aaaa********iaaaw***taaa&.......@***raaat*******waaaaaaau....****",
"ttttrrrr#@@@ettt=***=wwwO...oOOO%***raaat***&@@@=vvvvvvvxOOOOrrrr",
"****aaaao...%*******o.......@*******raaat***#.. *YYYYYYYL****aaaa",
"****aaaao...%*******o.......@*******raaat***#.. *YYYYYYYL****aaaa",
"****aaaao...%*******o.......@*******raaat***#...*YYYYYYYL****aaaa",
"****aaaa@O++taaaw***&&&&etttreee*@@@rvvvdaaar...%mmmmmmmMjV6jtttt",
"****aaaa=***BYYYt***taaamYYYvaaa=.. tYYYYYYYc...Oaaaaaaal)^^/****",
"****aaaa=***BYYYt***taaamYYYvaaa=.. tYYYYYYYc...Oaaaaaaal^_^)****",
"****aaaa=***BYYYt***taaamYYYvaaa=...tYYYYYYYc...Oaaaaaaal)^^/&***",
"eeeetttt=***vmmmr***taaacnnndaaa1-;-yBmmnccct...OaaaaaaakHHHA@###",
"aaaa********iaaaw***taaae***tasaj888jasaw  .....Oaaaaaaai***&....",
"aaas********iaaaw***tsaae***tasaj888jasaw ......@aaaaaaai****....",
"aass********iaaaw***tsaae***tasaj888jasae.......@sssaaaai****  ..",
"tttt%%%%****iaaaw***ruuutttttuupf9954puuwooooO@@&uuuuuuuutttt****",
"........&***iaaaw*******vYYYs***************eaaau*******eYYYYYYYY",
"........&***iaaaw*******vYYYs***************eaaau*******eYYYYYYYY",
"........&***iaaaw*******vYYYs***************eaaau*******eYYYYYYYY",
"oooo+OOO&***tiii,*******xLLLs====***&%%%%%%%=tttr***=rrrtLLLLLLLL",
"****aaaa=*******:,>>****taaaaaaar***@...........o***rYYYPaaaaaaaa",
"****aaaa=*******:,,,****taaaaaaar***@...........o***rYYYPaaaaaaaa",
"****aaaa=*******:,,,****taaaaaaar***@...........o***rYYYPaaaaaaaa",
"====iiii=***weee,,,,&&&&riiiiuuuteee&XXXXXXXooooO***rLLLmaaaaaaaa",
"aaaa********BYYYt***o...@***O.  iYYYc*******eaaau*******=aaaaaaaa",
"aaaa********BYYYt***o...@***O.  iYYYc*******eaaau*******=aaaaaaaa",
"aaaa********BYYYt***o...@***O.  iYYYc*******eaaau*******=aaaaaaaa",
"aaaa****====mUUUt***o...$,,,@.  iUUUc*******eaaay,,,=***=aaaaaaaa",
"aaaa****LYYYdaaaaaaae***Z))/q***raaaaaaat*******4)))Taaai****....",
"aaaa****LYYYdaaaaaaae***Z^^)q***raaaaaaat*******4^``Raaai****....",
"aaaa****LYYYdaaaaaaae***G^'^q***raaaaaaat*******4^``Raaai****....",
"aaaa****LYYYdaaaaaaae***G^'^q***raaaaaaat*******4^``Raaai****...."
};
